<?xml version="1.0" encoding="utf-8"?>
<!-- Generator: Adobe Illustrator 21.0.0, SVG Export Plug-In . SVG Version: 6.00 Build 0)  -->
<svg version="1.1" xmlns="http://www.w3.org/2000/svg" xmlns:xlink="http://www.w3.org/1999/xlink" x="0px" y="0px"
	 viewBox="0 0 380 380" style="enable-background:new 0 0 380 380;" xml:space="preserve">
<style type="text/css">
	.st0{display:none;}
	.st1{fill:#B4B4B4;}
	.st2{fill:#B4B4B4;stroke:#B4B4B4;stroke-miterlimit:10;}
</style>
<g id="Layer_2">
	<path class="st1" d="M267.8,109.7c0,0-2.6-1.4-7-1.2h0c-5.6,0.3-14,3.2-24,14.9l1.1,1.1c13.5,6.7,24.4,16.6,31.2,28.6
		c0.2,0.4,0.5,0.8,0.7,1.2c1.5-0.9,4.3-4.1,4.3-16.1C273.9,121.8,271.4,114.4,267.8,109.7z M123,114.4c-1.2,0.4-1.9,0.8-1.9,0.8
		c-3.3,4.9-5.3,12.4-4.3,28.7c1,15.8,5.8,16.1,6.2,16.1c0,0,0,0,0,0c0.2-0.5,0.4-1,0.6-1.5c5.6-12.9,16-23.9,29.3-31.6
		C138.1,111.6,127.2,113,123,114.4z M267.8,109.7c0,0-2.6-1.4-7-1.2h0c-5.6,0.3-14,3.2-24,14.9l1.1,1.1
		c13.5,6.7,24.4,16.6,31.2,28.6c0.2,0.4,0.5,0.8,0.7,1.2c1.5-0.9,4.3-4.1,4.3-16.1C273.9,121.8,271.4,114.4,267.8,109.7z M123,114.4
		c-1.2,0.4-1.9,0.8-1.9,0.8c-3.3,4.9-5.3,12.4-4.3,28.7c1,15.8,5.8,16.1,6.2,16.1c0,0,0,0,0,0c0.2-0.5,0.4-1,0.6-1.5
		c5.6-12.9,16-23.9,29.3-31.6C138.1,111.6,127.2,113,123,114.4z M267.8,109.7c0,0-2.6-1.4-7-1.2h0c-5.6,0.3-14,3.2-24,14.9l1.1,1.1
		c13.5,6.7,24.4,16.6,31.2,28.6c0.2,0.4,0.5,0.8,0.7,1.2c1.5-0.9,4.3-4.1,4.3-16.1C273.9,121.8,271.4,114.4,267.8,109.7z
		 M198.1,115.3h-0.4c-1.4,0-2.8,0-4.2,0.1c0,0.4,0,0.6,0,0.6l4.7-0.4C198.2,115.5,198.1,115.4,198.1,115.3z M123,114.4
		c-1.2,0.4-1.9,0.8-1.9,0.8c-3.3,4.9-5.3,12.4-4.3,28.7c1,15.8,5.8,16.1,6.2,16.1c0,0,0,0,0,0c0.2-0.5,0.4-1,0.6-1.5
		c5.6-12.9,16-23.9,29.3-31.6C138.1,111.6,127.2,113,123,114.4z M267.8,109.7c0,0-2.6-1.4-7-1.2h0c-5.6,0.3-14,3.2-24,14.9l1.1,1.1
		c13.5,6.7,24.4,16.6,31.2,28.6c0.2,0.4,0.5,0.8,0.7,1.2c1.5-0.9,4.3-4.1,4.3-16.1C273.9,121.8,271.4,114.4,267.8,109.7z
		 M197.7,115.3c-1.4,0-2.8,0-4.2,0.1c0,0.4,0,0.6,0,0.6l4.7-0.4c0,0,0-0.1-0.1-0.2H197.7z M123,114.4c-1.2,0.4-1.9,0.8-1.9,0.8
		c-3.3,4.9-5.3,12.4-4.3,28.7c1,15.8,5.8,16.1,6.2,16.1c0,0,0,0,0,0c0.2-0.5,0.4-1,0.6-1.5c5.6-12.9,16-23.9,29.3-31.6
		C138.1,111.6,127.2,113,123,114.4z M191,4.4C89,4.4,6.4,87,6.4,189c0,60.5,29.1,114.2,74.1,147.9c30.8,23,69.1,36.7,110.5,36.7
		c53.2,0,101.2-22.5,134.9-58.6c30.8-33,49.7-77.3,49.7-126C375.6,87,293,4.4,191,4.4z M237.2,244.8c0,1.2-1.1,2.1-2.3,1.8
		l-12.7-3.2l-16-4c0,0-6.5,12.3-13.8-0.3l-18.6,4.4l-12.8,3c-1.2,0.3-2.4-0.6-2.4-1.9v-27.6c0-1.1,1.1-2,2.2-1.7l31.6,8.9
		c0,0,7.3-12.8,15,0l27.7-8.9c1-0.3,2.1,0.4,2.1,1.5V244.8z M272.8,201c2.4-6.3,3.7-13,3.7-20c0-9.5-2.4-18.6-6.8-26.8
		c1.5-0.9,4.3-4.1,4.3-16.1c-0.1-16.4-2.5-23.7-6.2-28.4c0,0-2.6-1.4-7-1.2h0c-5.6,0.3-14,3.2-24,14.9l1.1,1.1
		c-0.9-0.5-1.9-0.9-2.8-1.3c-0.7-0.3-1.4-0.6-2.1-0.9c-0.6-0.3-1.2-0.5-1.8-0.7c-0.6-0.2-1.2-0.5-1.8-0.7c-0.7-0.3-1.4-0.5-2.1-0.7
		c-0.1,0-0.2-0.1-0.3-0.1h0c-0.4-0.1-0.8-0.3-1.3-0.4c-0.4-0.1-0.8-0.3-1.3-0.4c-0.3-0.1-0.6-0.2-1-0.3c-2.3-0.7-4.7-1.3-7.1-1.7
		c-0.7-0.1-1.4-0.3-2.1-0.4l0,3.7c6.2-0.4,7.6,0,7.6,0c2.1,4.5-5.4,12.1-5.4,12.1c0.6,2.1,1.2,4,1.7,5.8c6.1,20.9,5,20.3,5,20.3
		c1.5,1.9-27.5,3-28.1,0.1c-0.4-2,3.6-13.6,6.1-20.4c1.1-3,1.9-5.1,1.9-5.1c-6.5-8.9-5-12.4-3.5-13c1.5-0.6,7,0,7,0l0-2.6v-1.9
		c-0.6-0.1-1.2-0.1-1.8-0.2c0,0,0,0,0,0c-2.1-0.2-4.2-0.2-6.3-0.2h-0.4c-1.4,0-2.8,0-4.2,0.1c-5.9,0.3-11.7,1.1-17.2,2.4
		c-7,1.6-13.6,4.1-19.7,7.1c-0.6,0.3-1.2,0.6-1.8,0.9h0c-0.7,0.4-1.3,0.7-1.9,1.1c-14.8-15.3-25.7-13.9-29.9-12.5
		c-1.2,0.4-1.9,0.8-1.9,0.8c-3.3,4.9-5.3,12.4-4.3,28.7c1,15.8,5.8,16.1,6.2,16.1c-2.6,6.6-4.1,13.6-4.1,21c0,7.9,1.6,15.4,4.7,22.4
		c-31.1,21.1-51.2,54.8-51.2,92.7c0,3.7,0.2,7.4,0.6,11C42.3,276.7,23.3,234.6,23.3,188C23.3,95.4,98.4,20.3,191,20.3
		c92.6,0,167.7,75.1,167.7,167.7c0,36.6-11.7,70.4-31.6,98C323.7,250.8,303,220.1,272.8,201z M123,114.4c-1.2,0.4-1.9,0.8-1.9,0.8
		c-3.3,4.9-5.3,12.4-4.3,28.7c1,15.8,5.8,16.1,6.2,16.1c0,0,0,0,0,0c0.2-0.5,0.4-1,0.6-1.5c5.6-12.9,16-23.9,29.3-31.6
		C138.1,111.6,127.2,113,123,114.4z M198.1,115.3h-0.4c-1.4,0-2.8,0-4.2,0.1c0,0.4,0,0.6,0,0.6l4.7-0.4
		C198.2,115.5,198.1,115.4,198.1,115.3z M267.8,109.7c0,0-2.6-1.4-7-1.2h0c-5.6,0.3-14,3.2-24,14.9l1.1,1.1
		c13.5,6.7,24.4,16.6,31.2,28.6c0.2,0.4,0.5,0.8,0.7,1.2c1.5-0.9,4.3-4.1,4.3-16.1C273.9,121.8,271.4,114.4,267.8,109.7z M123,114.4
		c-1.2,0.4-1.9,0.8-1.9,0.8c-3.3,4.9-5.3,12.4-4.3,28.7c1,15.8,5.8,16.1,6.2,16.1c0,0,0,0,0,0c0.2-0.5,0.4-1,0.6-1.5
		c5.6-12.9,16-23.9,29.3-31.6C138.1,111.6,127.2,113,123,114.4z M267.8,109.7c0,0-2.6-1.4-7-1.2h0c-5.6,0.3-14,3.2-24,14.9l1.1,1.1
		c13.5,6.7,24.4,16.6,31.2,28.6c0.2,0.4,0.5,0.8,0.7,1.2c1.5-0.9,4.3-4.1,4.3-16.1C273.9,121.8,271.4,114.4,267.8,109.7z M123,114.4
		c-1.2,0.4-1.9,0.8-1.9,0.8c-3.3,4.9-5.3,12.4-4.3,28.7c1,15.8,5.8,16.1,6.2,16.1c0,0,0,0,0,0c0.2-0.5,0.4-1,0.6-1.5
		c5.6-12.9,16-23.9,29.3-31.6C138.1,111.6,127.2,113,123,114.4z M267.8,109.7c0,0-2.6-1.4-7-1.2h0c-5.6,0.3-14,3.2-24,14.9l1.1,1.1
		c13.5,6.7,24.4,16.6,31.2,28.6c0.2,0.4,0.5,0.8,0.7,1.2c1.5-0.9,4.3-4.1,4.3-16.1C273.9,121.8,271.4,114.4,267.8,109.7z M123,114.4
		c-1.2,0.4-1.9,0.8-1.9,0.8c-3.3,4.9-5.3,12.4-4.3,28.7c1,15.8,5.8,16.1,6.2,16.1c0,0,0,0,0,0c0.2-0.5,0.4-1,0.6-1.5
		c5.6-12.9,16-23.9,29.3-31.6C138.1,111.6,127.2,113,123,114.4z M267.8,109.7c0,0-2.6-1.4-7-1.2h0c-5.6,0.3-14,3.2-24,14.9l1.1,1.1
		c13.5,6.7,24.4,16.6,31.2,28.6c0.2,0.4,0.5,0.8,0.7,1.2c1.5-0.9,4.3-4.1,4.3-16.1C273.9,121.8,271.4,114.4,267.8,109.7z M123,114.4
		c-1.2,0.4-1.9,0.8-1.9,0.8c-3.3,4.9-5.3,12.4-4.3,28.7c1,15.8,5.8,16.1,6.2,16.1c0,0,0,0,0,0c0.2-0.5,0.4-1,0.6-1.5
		c5.6-12.9,16-23.9,29.3-31.6C138.1,111.6,127.2,113,123,114.4z M267.8,109.7c0,0-2.6-1.4-7-1.2h0c-5.6,0.3-14,3.2-24,14.9l1.1,1.1
		c13.5,6.7,24.4,16.6,31.2,28.6c0.2,0.4,0.5,0.8,0.7,1.2c1.5-0.9,4.3-4.1,4.3-16.1C273.9,121.8,271.4,114.4,267.8,109.7z"/>
	<path class="st2" d="M327.1,286c-3.3-35.2-24-65.9-54.3-85c-9.4-5.9-19.7-10.8-30.8-14.3h0c-13.2-4.2-27.3-6.4-42-6.4
		c-11.2,0-22.1,1.3-32.4,3.8c-16.1,3.8-31,10.4-44,19.3c-31.1,21.1-51.2,54.8-51.2,92.7c0,3.7,0.2,7.4,0.6,11
		c1.1,10.4,3.7,20.4,7.6,29.8c30.8,23,69.1,36.7,110.5,36.7c53.2,0,101.2-22.5,134.9-58.6c1.1-6.2,1.7-12.5,1.7-19
		C327.6,292.7,327.4,289.3,327.1,286z M237.2,244.8c0,1.2-1.1,2.1-2.3,1.8l-12.7-3.2l-16-4c0,0-6.5,12.3-13.8-0.3l-18.6,4.4l-12.8,3
		c-1.2,0.3-2.4-0.6-2.4-1.9v-27.6c0-1.1,1.1-2,2.2-1.7l31.6,8.9c0,0,7.3-12.8,15,0l27.7-8.9c1-0.3,2.1,0.4,2.1,1.5V244.8z"/>
	<path class="st2" d="M269.7,154.3c-0.2-0.4-0.5-0.8-0.7-1.2c-6.7-11.9-17.6-21.9-31.2-28.6c-0.9-0.5-1.9-0.9-2.8-1.3
		c-0.7-0.3-1.4-0.6-2.1-0.9c-0.6-0.3-1.2-0.5-1.8-0.7c-0.6-0.2-1.2-0.5-1.8-0.7c-0.7-0.3-1.4-0.5-2.1-0.7c-0.1,0-0.2-0.1-0.3-0.1h0
		c-0.4-0.1-0.8-0.3-1.3-0.4c-0.4-0.1-0.8-0.3-1.3-0.4c-0.3-0.1-0.6-0.2-1-0.3c-2.3-0.7-4.7-1.3-7.1-1.7c-0.7-0.1-1.4-0.3-2.1-0.4
		l0,3.7c6.2-0.4,7.6,0,7.6,0c2.1,4.5-5.4,12.1-5.4,12.1c0.6,2.1,1.2,4,1.7,5.8c6.1,20.9,5,20.3,5,20.3c1.5,1.9-27.5,3-28.1,0.1
		c-0.4-2,3.6-13.6,6.1-20.4c1.1-3,1.9-5.1,1.9-5.1c-6.5-8.9-5-12.4-3.5-13c1.5-0.6,7,0,7,0l0-2.6v-1.9c-0.6-0.1-1.2-0.1-1.8-0.2
		c0,0,0,0,0,0c-2.1-0.2-4.2-0.2-6.3-0.2h-0.4c-1.4,0-2.8,0-4.2,0.1c-5.9,0.3-11.7,1.1-17.2,2.4c-7,1.6-13.6,4.1-19.7,7.1
		c-0.6,0.3-1.2,0.6-1.8,0.9h0c-0.7,0.4-1.3,0.7-1.9,1.1c-13.3,7.7-23.7,18.7-29.3,31.6c-0.2,0.5-0.4,1-0.6,1.5c0,0,0,0,0,0
		c-2.6,6.6-4.1,13.6-4.1,21c0,7.9,1.6,15.4,4.7,22.4c6.4,14.8,19,27.1,35.1,34.8v-20.9c0-1.1,1.1-2,2.2-1.7l31.6,8.9
		c0,0,7.3-12.8,15,0l27.7-8.9c1-0.3,2.1,0.4,2.1,1.5v20.7c16.7-8.1,29.6-21.2,35.6-36.8c2.4-6.3,3.7-13,3.7-20
		C276.5,171.5,274.1,162.4,269.7,154.3z M206.2,239.5c0,0-6.5,12.3-13.8-0.3l-18.6,4.4c7.5,2,15.5,3.1,23.9,3.1
		c8.6,0,16.8-1.1,24.5-3.2L206.2,239.5z"/>
	<path class="st2" d="M232.9,122.2v4c0,6.6-5.4,12-12,12H218c-0.5-1.8-1.1-3.7-1.7-5.8c0,0,7.5-7.7,5.4-12.1c0,0-1.4-0.4-7.6,0
		l0-3.7C220.8,117.9,227.1,119.8,232.9,122.2z"/>
	<path class="st2" d="M155,125.9L125,159c0,0,0,0,0,0c-0.3,0-5.2-0.2-6.2-16.1c-1-16.3,1-23.8,4.3-28.7
		C123.1,114.2,135.8,106.2,155,125.9z"/>
	<path class="st2" d="M272,138.1c0,12.1-2.8,15.3-4.3,16.1c-0.5,0.3-0.9,0.3-0.9,0.3l-31-30.1l-1.1-1.1c17.9-20.9,31-13.7,31-13.7
		C269.4,114.4,271.9,121.8,272,138.1z"/>
	<ellipse class="st2" cx="205.9" cy="158.7" rx="47.4" ry="43.2"/>
	<path class="st2" d="M177.2,119.8c-1.7-0.6-5.8-5.5-4.3-10.7c1.5-5.2,8.9-7.6,12.2-6.6c0,0,6.6-0.7,8.6,6.6c0,0,1.2,1,2,6.8
		c0,0-0.2-3.5,1.8-5.5c1.9-2,5.9-6.5,11.6-6.3c0,0,7.8-0.1,6.3,5c0,0-0.3,4.1-6,6.8S177.2,119.8,177.2,119.8z"/>
</g>
</svg>
