<?xml version="1.0" encoding="utf-8"?>
<!-- Generator: Adobe Illustrator 21.0.0, SVG Export Plug-In . SVG Version: 6.00 Build 0)  -->
<svg version="1.1" xmlns="http://www.w3.org/2000/svg" xmlns:xlink="http://www.w3.org/1999/xlink" x="0px" y="0px"
	 viewBox="0 0 380 380" style="enable-background:new 0 0 380 380;" xml:space="preserve">
<style type="text/css">
	.st0{display:none;}
	.st1{fill:#B4B4B4;}
	.st2{fill:#B4B4B4;stroke:#B4B4B4;stroke-miterlimit:10;}
</style>
<g id="Layer_2">
	<path class="st1" d="M266.9,110.7c0,0-2.6-1.4-7-1.2h0c-5.6,0.3-14,3.2-24,14.9l1.1,1.1c13.5,6.7,24.4,16.6,31.2,28.6
		c0.2,0.4,0.5,0.8,0.7,1.2c1.5-0.9,4.3-4.1,4.3-16.1C273.1,122.8,270.6,115.4,266.9,110.7z M234,88.1h-20.4l0,5.2l-0.1,11.3
		l-0.1,13.2c6.6,1.2,12.9,3,18.7,5.5v-18c0-0.2,0-0.5,0-0.7h1.9c4.3,0,7.9-3.5,7.9-7.9V96C241.9,91.6,238.3,88.1,234,88.1z
		 M205.4,93.2l0-5.2h-52.9c-4.3,0-7.9,3.5-7.9,7.9v0.7c0,4.3,3.5,7.9,7.9,7.9h3.4c0,0.2,0,0.5,0,0.7v20.6c12-6.1,26-9.6,41-9.6
		c2.9,0,5.8,0.1,8.6,0.4l0-12.2L205.4,93.2z M122.2,115.4c-1.2,0.4-1.9,0.8-1.9,0.8c-3.3,4.9-5.3,12.4-4.3,28.7
		c1,15.8,5.8,16.1,6.2,16.1c0,0,0,0,0,0c0.2-0.5,0.4-1,0.6-1.5c5.6-12.9,16-23.9,29.3-31.6C137.3,112.6,126.4,114,122.2,115.4z
		 M266.9,110.7c0,0-2.6-1.4-7-1.2h0c-5.6,0.3-14,3.2-24,14.9l1.1,1.1c13.5,6.7,24.4,16.6,31.2,28.6c0.2,0.4,0.5,0.8,0.7,1.2
		c1.5-0.9,4.3-4.1,4.3-16.1C273.1,122.8,270.6,115.4,266.9,110.7z M234,88.1h-20.4l0,5.2l-0.1,11.3l-0.1,13.2
		c6.6,1.2,12.9,3,18.7,5.5v-18c0-0.2,0-0.5,0-0.7h1.9c4.3,0,7.9-3.5,7.9-7.9V96C241.9,91.6,238.3,88.1,234,88.1z M205.4,93.2l0-5.2
		h-52.9c-4.3,0-7.9,3.5-7.9,7.9v0.7c0,4.3,3.5,7.9,7.9,7.9h3.4c0,0.2,0,0.5,0,0.7v20.6c12-6.1,26-9.6,41-9.6c2.9,0,5.8,0.1,8.6,0.4
		l0-12.2L205.4,93.2z M122.2,115.4c-1.2,0.4-1.9,0.8-1.9,0.8c-3.3,4.9-5.3,12.4-4.3,28.7c1,15.8,5.8,16.1,6.2,16.1c0,0,0,0,0,0
		c0.2-0.5,0.4-1,0.6-1.5c5.6-12.9,16-23.9,29.3-31.6C137.3,112.6,126.4,114,122.2,115.4z M266.9,110.7c0,0-2.6-1.4-7-1.2h0
		c-5.6,0.3-14,3.2-24,14.9l1.1,1.1c13.5,6.7,24.4,16.6,31.2,28.6c0.2,0.4,0.5,0.8,0.7,1.2c1.5-0.9,4.3-4.1,4.3-16.1
		C273.1,122.8,270.6,115.4,266.9,110.7z M241.9,96.6V96c0-4.3-3.5-7.9-7.9-7.9h-20.4l0,5.2l-0.1,11.3l-0.1,13.2
		c6.6,1.2,12.9,3,18.7,5.5v-18c0-0.2,0-0.5,0-0.7h1.9C238.3,104.5,241.9,101,241.9,96.6z M205.4,93.2l0-5.2h-52.9
		c-4.3,0-7.9,3.5-7.9,7.9v0.7c0,4.3,3.5,7.9,7.9,7.9h3.4c0,0.2,0,0.5,0,0.7v20.6c12-6.1,26-9.6,41-9.6c2.9,0,5.8,0.1,8.6,0.4l0-12.2
		L205.4,93.2z M122.2,115.4c-1.2,0.4-1.9,0.8-1.9,0.8c-3.3,4.9-5.3,12.4-4.3,28.7c1,15.8,5.8,16.1,6.2,16.1c0,0,0,0,0,0
		c0.2-0.5,0.4-1,0.6-1.5c5.6-12.9,16-23.9,29.3-31.6C137.3,112.6,126.4,114,122.2,115.4z M190.2,5.4C88.2,5.4,5.6,88,5.6,190
		c0,60.5,29.1,114.2,74.1,147.9c30.8,23,69.1,36.7,110.5,36.7c53.2,0,101.2-22.5,134.9-58.6c30.8-33,49.7-77.3,49.7-126
		C374.8,88,292.1,5.4,190.2,5.4z M22.5,189c0-92.6,75.1-167.7,167.7-167.7c92.6,0,167.7,75.1,167.7,167.7c0,36.6-11.7,70.4-31.6,98
		c-3.4-35.2-24.1-65.9-54.3-85c2.4-6.3,3.7-13,3.7-20c0-9.5-2.4-18.6-6.8-26.8c1.5-0.9,4.3-4.1,4.3-16.1c0-16.4-2.5-23.7-6.2-28.4
		c0,0-2.6-1.4-7-1.2h0c-5.6,0.3-14,3.2-24,14.9l1.1,1.1c-0.9-0.5-1.9-0.9-2.8-1.3c-0.7-0.3-1.4-0.6-2.1-0.9v-18c0-0.2,0-0.5,0-0.7
		h1.9c4.3,0,7.9-3.5,7.9-7.9V96c0-4.3-3.5-7.9-7.9-7.9h-20.4l0,5.2l-0.1,11.3l-0.1,13.2l0,3.7c6.2-0.4,7.6,0,7.6,0
		c2.1,4.5-5.4,12.1-5.4,12.1c0.6,2.1,1.2,4,1.7,5.8c6.1,20.9,5,20.3,5,20.3c1.5,1.9-27.5,3-28.1,0.1c-0.4-2,3.6-13.6,6.1-20.4
		c1.1-3,1.9-5.1,1.9-5.1c-6.5-8.9-5-12.4-3.5-13c1.5-0.6,7,0,7,0l0-4.4l0-12.2l0-11.3l0-5.2h-52.9c-4.3,0-7.9,3.5-7.9,7.9v0.7
		c0,4.3,3.5,7.9,7.9,7.9h3.4c0,0.2,0,0.5,0,0.7v20.6c-0.6,0.3-1.2,0.6-1.8,0.9h0c-0.7,0.4-1.3,0.7-1.9,1.1
		c-14.8-15.3-25.7-13.9-29.9-12.5c-1.2,0.4-1.9,0.8-1.9,0.8c-3.3,4.9-5.3,12.4-4.3,28.7c1,15.8,5.8,16.1,6.2,16.1
		c-2.6,6.6-4.1,13.6-4.1,21c0,7.9,1.6,15.4,4.7,22.4c-31.1,21.1-51.2,54.8-51.2,92.7c0,3.7,0.2,7.4,0.6,11
		C41.4,277.7,22.5,235.6,22.5,189z M122.2,115.4c-1.2,0.4-1.9,0.8-1.9,0.8c-3.3,4.9-5.3,12.4-4.3,28.7c1,15.8,5.8,16.1,6.2,16.1
		c0,0,0,0,0,0c0.2-0.5,0.4-1,0.6-1.5c5.6-12.9,16-23.9,29.3-31.6C137.3,112.6,126.4,114,122.2,115.4z M234,88.1h-20.4l0,5.2
		l-0.1,11.3l-0.1,13.2c6.6,1.2,12.9,3,18.7,5.5v-18c0-0.2,0-0.5,0-0.7h1.9c4.3,0,7.9-3.5,7.9-7.9V96C241.9,91.6,238.3,88.1,234,88.1
		z M205.4,93.2l0-5.2h-52.9c-4.3,0-7.9,3.5-7.9,7.9v0.7c0,4.3,3.5,7.9,7.9,7.9h3.4c0,0.2,0,0.5,0,0.7v20.6c12-6.1,26-9.6,41-9.6
		c2.9,0,5.8,0.1,8.6,0.4l0-12.2L205.4,93.2z M266.9,110.7c0,0-2.6-1.4-7-1.2h0c-5.6,0.3-14,3.2-24,14.9l1.1,1.1
		c13.5,6.7,24.4,16.6,31.2,28.6c0.2,0.4,0.5,0.8,0.7,1.2c1.5-0.9,4.3-4.1,4.3-16.1C273.1,122.8,270.6,115.4,266.9,110.7z
		 M122.2,115.4c-1.2,0.4-1.9,0.8-1.9,0.8c-3.3,4.9-5.3,12.4-4.3,28.7c1,15.8,5.8,16.1,6.2,16.1c0,0,0,0,0,0c0.2-0.5,0.4-1,0.6-1.5
		c5.6-12.9,16-23.9,29.3-31.6C137.3,112.6,126.4,114,122.2,115.4z M234,88.1h-20.4l0,5.2l-0.1,11.3l-0.1,13.2
		c6.6,1.2,12.9,3,18.7,5.5v-18c0-0.2,0-0.5,0-0.7h1.9c4.3,0,7.9-3.5,7.9-7.9V96C241.9,91.6,238.3,88.1,234,88.1z M205.4,93.2l0-5.2
		h-52.9c-4.3,0-7.9,3.5-7.9,7.9v0.7c0,4.3,3.5,7.9,7.9,7.9h3.4c0,0.2,0,0.5,0,0.7v20.6c12-6.1,26-9.6,41-9.6c2.9,0,5.8,0.1,8.6,0.4
		l0-12.2L205.4,93.2z M266.9,110.7c0,0-2.6-1.4-7-1.2h0c-5.6,0.3-14,3.2-24,14.9l1.1,1.1c13.5,6.7,24.4,16.6,31.2,28.6
		c0.2,0.4,0.5,0.8,0.7,1.2c1.5-0.9,4.3-4.1,4.3-16.1C273.1,122.8,270.6,115.4,266.9,110.7z"/>
	<path class="st1" d="M271.9,202c2.4-6.3,3.7-13,3.7-20c0-9.5-2.4-18.6-6.8-26.8c1.5-0.9,4.3-4.1,4.3-16.1c0-16.4-2.5-23.7-6.2-28.4
		c0,0-2.6-1.4-7-1.2h0c-5.6,0.3-14,3.2-24,14.9l1.1,1.1c-0.9-0.5-1.9-0.9-2.8-1.3c-0.7-0.3-1.4-0.6-2.1-0.9v-18c0-0.2,0-0.5,0-0.7
		h1.9c4.3,0,7.9-3.5,7.9-7.9V96c0-4.3-3.5-7.9-7.9-7.9h-20.4l0,5.2l-0.1,11.3l-0.1,13.2l0,3.7c6.2-0.4,7.6,0,7.6,0
		c2.1,4.5-5.4,12.1-5.4,12.1c0.6,2.1,1.2,4,1.7,5.8c6.1,20.9,5,20.3,5,20.3c1.5,1.9-27.5,3-28.1,0.1c-0.4-2,3.6-13.6,6.1-20.4
		c1.1-3,1.9-5.1,1.9-5.1c-6.5-8.9-5-12.4-3.5-13c1.5-0.6,7,0,7,0l0-4.4l0-12.2l0-11.3l0-5.2h-52.9c-4.3,0-7.9,3.5-7.9,7.9v0.7
		c0,4.3,3.5,7.9,7.9,7.9h3.4c0,0.2,0,0.5,0,0.7v20.6c-0.6,0.3-1.2,0.6-1.8,0.9h0c-0.7,0.4-1.3,0.7-1.9,1.1
		c-14.8-15.3-25.7-13.9-29.9-12.5c-1.2,0.4-1.9,0.8-1.9,0.8c-3.3,4.9-5.3,12.4-4.3,28.7c1,15.8,5.8,16.1,6.2,16.1
		c-2.6,6.6-4.1,13.6-4.1,21c0,7.9,1.6,15.4,4.7,22.4c-31.1,21.1-51.2,54.8-51.2,92.7c0,3.7,0.2,7.4,0.6,11
		c30.3,30.1,72,48.6,118.1,48.6c56,0,105.6-27.5,136.1-69.7C322.9,251.8,302.2,221.1,271.9,202z"/>
	<path class="st2" d="M326.7,297.1c0,6.5-0.6,12.8-1.7,19c-33.7,36-81.7,58.6-134.9,58.6c-41.4,0-79.7-13.7-110.5-36.7
		c-3.9-9.4-6.5-19.4-7.6-29.9c-0.4-3.6-0.6-7.3-0.6-11c0-37.9,20.1-71.6,51.2-92.7c21.3-14.5,47.8-23,76.4-23
		c27.1,0,52.2,7.6,72.8,20.7c30.3,19.1,51,49.8,54.3,85C326.6,290.3,326.7,293.7,326.7,297.1z"/>
	<path class="st2" d="M268.9,155.3c-0.2-0.4-0.5-0.8-0.7-1.2c-6.7-11.9-17.6-21.9-31.2-28.6c-0.9-0.5-1.9-0.9-2.8-1.3
		c-0.7-0.3-1.4-0.6-2.1-0.9c-5.9-2.5-12.2-4.3-18.7-5.5l0,3.7c6.2-0.4,7.6,0,7.6,0c2.1,4.5-5.4,12.1-5.4,12.1c0.6,2.1,1.2,4,1.7,5.8
		c6.1,20.9,5,20.3,5,20.3c1.5,1.9-27.5,3-28.1,0.1c-0.4-2,3.6-13.6,6.1-20.4c1.1-3,1.9-5.1,1.9-5.1c-6.5-8.9-5-12.4-3.5-13
		c1.5-0.6,7,0,7,0l0-4.4c-2.8-0.3-5.7-0.4-8.6-0.4c-15,0-29.1,3.5-41,9.6c-0.6,0.3-1.2,0.6-1.8,0.9h0c-0.7,0.4-1.3,0.7-1.9,1.1
		c-13.4,7.7-23.7,18.7-29.3,31.6c-0.2,0.5-0.4,1-0.6,1.5c0,0,0,0,0,0c-2.6,6.6-4.1,13.6-4.1,21c0,7.9,1.6,15.4,4.7,22.4
		c11,25.3,40,43.3,74.1,43.3c35.2,0,64.9-19.2,75.1-45.7c2.4-6.3,3.7-13,3.7-20C275.7,172.5,273.2,163.4,268.9,155.3z"/>
	<path class="st2" d="M202,134.2c0,0-0.8,2.1-1.9,5.1h-32.3c-6.6,0-12-5.4-12-12v-22c0-0.2,0-0.5,0-0.7c0.4-6.3,5.6-11.3,12-11.3
		h37.5l0,11.3l0,12.2l0,4.4c0,0-5.5-0.6-7,0C197,121.8,195.5,125.3,202,134.2z"/>
	<path class="st2" d="M232.1,105.2v22c0,6.6-5.4,12-12,12h-2.9c-0.5-1.8-1.1-3.7-1.7-5.8c0,0,7.5-7.7,5.4-12.1c0,0-1.4-0.4-7.6,0
		l0-3.7l0.1-13.2l0.1-11.3h6.6c6.4,0,11.6,5,12,11.3C232.1,104.8,232.1,105,232.1,105.2z"/>
	<path class="st2" d="M205.4,93.2l0,11.3h-53c-4.3,0-7.9-3.5-7.9-7.9V96c0-4.3,3.5-7.9,7.9-7.9h52.9L205.4,93.2z"/>
	<path class="st2" d="M241.9,96v0.7c0,4.3-3.5,7.9-7.9,7.9h-20.5l0.1-11.3l0-5.2H234C238.3,88.1,241.9,91.6,241.9,96z"/>
	<path class="st2" d="M154.1,126.9l-30,33.2c0,0,0,0,0,0c-0.3,0-5.2-0.2-6.2-16.1c-1-16.3,1-23.8,4.3-28.7
		C122.3,115.2,134.9,107.2,154.1,126.9z"/>
	<path class="st2" d="M271.1,139.1c0,12.1-2.8,15.3-4.3,16.1c-0.5,0.3-0.9,0.3-0.9,0.3L235,125.5l-1.1-1.1
		c17.9-20.9,31-13.7,31-13.7C268.6,115.4,271.1,122.8,271.1,139.1z"/>
</g>
</svg>
