<?xml version="1.0" encoding="utf-8"?>
<!-- Generator: Adobe Illustrator 21.0.0, SVG Export Plug-In . SVG Version: 6.00 Build 0)  -->
<svg version="1.1" xmlns="http://www.w3.org/2000/svg" xmlns:xlink="http://www.w3.org/1999/xlink" x="0px" y="0px"
	 viewBox="0 0 380 430" style="enable-background:new 0 0 380 430;" xml:space="preserve">
<style type="text/css">
	.st0{fill:#FFFFFF;stroke:#FFFFFF;stroke-miterlimit:10;}
</style>
<g id="Layer_3">
	<path class="st0" d="M270.6,399.5c0.6-0.4,33.3,15,77.1,6s29-46.8,25.7-46.8c0,0-6.6-9.7-28.4-3.9c0,0-7.9,0.6-27.2,13.9l-19,7.9
		L270.6,399.5z"/>
	<path class="st0" d="M268,144.6C268,144.6,268,144.6,268,144.6c-15.3-9.7-32.5-17-50.9-21.7c-0.8,4.3-4,8.1-9.8,8.1
		c-1.8,0-3.4-0.4-4.7-1.1c-0.7-0.2-1.4-0.3-2.2-0.5c-0.6,0-1.1,0-1.7,0c-5.8,0.3-10.1-4.9-10.3-10.3c0-0.4,0-0.8,0-1.2
		c-4-0.4-8-0.6-12.1-0.7c-0.6,0-1.2,0-1.8,0c-2,2.9-5.1,5.3-7.7,7.5c-0.1,0-0.1,0.1-0.2,0.1c-0.4,0.3-0.8,0.6-1.2,0.9
		c-0.1,1-0.1,2-0.1,3c0,0,0,0.1,0,0.1v8.5c0.3,0.1,0.6,0.4,0.9,0.7l5.9,7.3c0.4,0.5,0.6,1,0.6,1.6c0,0.7-0.3,1.5-0.9,2
		c-1.1,0.9-2.7,0.7-3.5-0.4l-4.3-5.4c0,0-0.1-0.1-0.1-0.1c-0.3-0.4-0.6-0.7-1-1l-6.4,6.4c-0.5,0.5-1.1,0.7-1.8,0.7s-1.3-0.2-1.8-0.7
		c-1-1-1-2.6,0-3.5l6.7-6.7c0.3-0.3,0.6-0.5,0.9-0.6v-10.9h0c0-0.4,0-0.8,0-1.3c-0.9-0.6-1.8-1.3-2.8-2.2c-0.3-0.3-0.7-0.5-1-0.8
		c-1.1-0.9-2.3-1.7-3.1-2.9c-0.4-0.4-0.8-0.8-1.2-1.3c-32.6,3.5-62.5,15.6-86.7,33.9c0,0,0,0,0,0c-1.7,1.3-3.4,2.6-5.1,4
		C26.9,183.9,5.2,223.8,4.2,268.7c-0.1,5,0,9.9,0.4,14.8c11.7-7,25.1-11,39.4-11c44.8,0,81.1,39.2,81.1,87.6c0,20.9-6.7,40-18,55.1
		c19.2,7.6,40.2,12,62.4,12.5c37.6,0.8,72.6-9.7,101.1-28.2c0,0,0.1,0,0.1-0.1c0,0,0.1,0,0.1-0.1c10.2-6.6,19.5-14.3,27.8-22.8
		c0,0,0,0,0,0c0,0,0.1,0,0.1-0.1c26-26.6,42.1-61.5,42.9-100.1C342.9,221.9,313.5,173.3,268,144.6z M93.8,161.7
		c-1.2,0-2.3-0.6-2.8-1.7c-0.2-0.4-0.3-0.7-0.4-1.1c0-0.2,0-0.4,0-0.6c0.1-1.1,0.7-2.1,1.7-2.6l15.9-8.2c0.5-0.2,1-0.4,1.5-0.4
		c1.2,0,2.3,0.6,2.9,1.7c0.2,0.4,0.3,0.8,0.3,1.3c0,0.2,0,0.4,0,0.6c-0.1,1-0.8,1.9-1.7,2.4l-15.9,8.3
		C94.8,161.6,94.3,161.7,93.8,161.7z M118.2,160.9c-0.1,1-0.8,1.9-1.7,2.4l-15.9,8.2c-0.5,0.2-1,0.4-1.5,0.4c-1.2,0-2.3-0.6-2.8-1.7
		c-0.2-0.4-0.3-0.7-0.3-1.1c0-0.2,0-0.4,0-0.6c0.1-1.1,0.7-2.1,1.7-2.6l15.9-8.2c0.5-0.2,1-0.4,1.5-0.4c1.2,0,2.3,0.6,2.8,1.7
		c0.2,0.4,0.3,0.8,0.3,1.3C118.2,160.5,118.2,160.7,118.2,160.9z M234,168.9c0,0.4-0.2,0.8-0.4,1.1c-0.8,1.5-2.8,2.1-4.3,1.3
		l-15.8-8.4c-0.9-0.5-1.5-1.4-1.7-2.4c0-0.1,0-0.2,0-0.3c0-0.1,0-0.2,0-0.4c0-0.4,0.1-0.9,0.4-1.3c0.8-1.5,2.8-2.1,4.3-1.3l15.8,8.4
		c1,0.5,1.6,1.5,1.7,2.6c0,0.1,0,0.3,0,0.4C234,168.8,234,168.9,234,168.9z M239.3,158.8c0,0.4-0.2,0.8-0.4,1.1
		c-0.8,1.5-2.8,2.1-4.3,1.3l-15.8-8.4c-0.9-0.5-1.5-1.4-1.7-2.4c0-0.1,0-0.2,0-0.3c0-0.1,0-0.2,0-0.4c0-0.4,0.1-0.9,0.4-1.3
		c0.8-1.5,2.8-2.1,4.3-1.3l15.8,8.4c1,0.5,1.6,1.5,1.7,2.6c0,0.1,0,0.3,0,0.4C239.3,158.6,239.3,158.7,239.3,158.8z"/>
	<path class="st0" d="M40.9,287.1c-12.5,0-24.3,3.4-34.6,9.4c8.6,49.8,43,91.9,90.3,114.2c10-13,16-29.6,16-47.7
		C112.6,321.1,80.5,287.1,40.9,287.1z M64.7,372.9c-4.2,0-7.6-3.4-7.6-7.6c0-4.2,3.4-7.6,7.6-7.6s7.6,3.4,7.6,7.6
		C72.2,369.5,68.9,372.9,64.7,372.9z"/>
	<path class="st0" d="M184.8,18.4c0,0.1,0,0.2,0,0.3c0,0,0,0.1,0,0.1h0.1v6.6h4.4l-4.4,10.1c0,0,7.1,10.8,9.2,16.1
		c0.2,0.4,0.3,0.8,0.4,1.1c0.1,0.4,0.2,0.7,0.2,1c0,3.5,0.3,3.5-2.5,5.1c-2.8,1.5-21.6,0.5-22.5,0c-0.8-0.5-2.5-2-1.9-4.3
		c0.1-0.5,0.6-1.5,1.2-2.9c0.2-0.6,0.6-1.2,0.9-1.8c2.6-5.4,6.8-13.4,7.4-14.5c0.8-1.5-5.3-8.8-5.3-8.8l5-0.2l0.1-7.3h0v-0.2
		c0-0.1,0-0.2,0-0.3h-42.5V66h63.3V18.4H184.8z"/>
	<polygon class="st0" points="176.9,18 176.9,18 177.1,4.3 119.3,4.3 119.3,18.4 176.9,18.4 	"/>
	<path class="st0" d="M184.8,4.3V18h-0.2c0,0.2,0,0.3,0,0.5h29V4.3H184.8z"/>
	<path class="st0" d="M254.6,86.6c-0.3-0.4-0.7-0.8-1-1.2c-5.3-6.2-11.8-11.8-19.2-16.7c-0.6,0.2-1.4,0.4-2.3,0.3
		c-3.9-0.2-10.4-2.3-11.1-5c-0.5-1.8-1-2.1-0.9-3.2c-7-3.2-14.5-5.8-22.3-7.7c-1.1-0.3-2.2-0.5-3.3-0.8c0.1,0.4,0.2,0.7,0.2,1
		c0,3.5,0.3,3.5-2.5,5.1c-2.8,1.5-21.6,0.5-22.5,0c-0.8-0.5-2.5-2-1.9-4.3c0.1-0.5,0.6-1.5,1.2-2.9c0.2-0.6,0.6-1.2,0.9-1.8
		c-1.4,0-2.8-0.1-4.2-0.1c-7.9,0-15.5,0.6-22.9,1.9c-0.9,0.1-1.7,0.3-2.6,0.5c-1.9,0.4-3.7,0.7-5.5,1.2c-7.6,1.8-14.8,4.1-21.5,7.1
		c1.5,3.5,0.8,2.9,0,5.6c-0.8,2.7-7.2,4.8-11.2,5c-3.4,0.2-4.2-1.9-4.3-2.5c-7.8,5-14.6,10.8-20.1,17.3c-0.1,0.1-0.2,0.3-0.4,0.4
		C66.6,98,60.6,112.4,60.6,128c0,8.5,1.8,16.7,5.1,24.3c0,0,0,0.1,0,0.1c13.7,31.5,53.2,54.3,99.7,54.3c50.3,0,92.3-26.5,102.5-62
		c0,0,0-0.1,0-0.1c1.5-5.4,2.3-10.9,2.3-16.6C270.3,112.8,264.6,98.6,254.6,86.6z M93.8,161.9c-1.2,0-2.3-0.6-2.8-1.7
		c-0.2-0.4-0.3-0.8-0.4-1.3c0-0.2,0-0.4,0-0.6c0.1-1,0.8-1.9,1.7-2.4l15.9-8.2c0.5-0.2,1-0.4,1.5-0.4c1.2,0,2.3,0.6,2.9,1.7
		c0.2,0.4,0.3,0.7,0.3,1.1c0,0.2,0,0.4,0,0.6c-0.1,1.1-0.7,2.1-1.7,2.6l-15.9,8.3C94.8,161.8,94.3,161.9,93.8,161.9z M118.2,160.9
		c-0.1,1.1-0.7,2.1-1.7,2.6l-15.9,8.2c-0.5,0.2-1,0.4-1.5,0.4c-1.2,0-2.3-0.6-2.8-1.7c-0.2-0.4-0.3-0.8-0.3-1.3c0-0.2,0-0.4,0-0.6
		c0.1-1,0.7-1.9,1.7-2.4l15.9-8.2c0.5-0.2,1-0.4,1.5-0.4c1.2,0,2.3,0.6,2.8,1.7c0.2,0.4,0.3,0.7,0.3,1.1
		C118.2,160.5,118.2,160.7,118.2,160.9z M121.7,120.9c-11.4,0-20.6-8.1-20.6-18.2c0-7,4.5-13.1,11.1-16.1h0.4c0.1,0,0.2-0.1,0.4-0.1
		c0.2-0.1,0.4-0.1,0.5-0.2c0.2-0.1,0.5-0.2,0.7-0.2c0.2-0.1,0.3-0.1,0.5-0.1c3.4-1,7.2-1.2,10.7-0.5c0.9,0.1,1.9,0.2,2.8,0.4
		c0.8,0.2,1.5,0.5,2.2,0.8h0.8c6.6,3,11.1,9.1,11.1,16.1C142.3,112.8,133.1,120.9,121.7,120.9z M173.2,117.3c-0.8,1.5-2,3.3-3.4,4.8
		c-0.1,0.3-0.3,0.6-0.6,0.9c-0.7,0.7-1.5,1.3-2.3,1.8c-0.5,0.4-1,0.8-1.4,1.1c0,0-0.1,0-0.1,0.1c0,0.3,0,0.5,0,0.8h0.1v10.6
		c0.3,0.1,0.6,0.4,0.9,0.7l5.9,7.3c0.4,0.5,0.6,1,0.6,1.6c0,0.7-0.3,1.5-0.9,2c-1.1,0.9-2.7,0.7-3.5-0.4l-4.3-5.4c0,0-0.1,0-0.1-0.1
		c-0.3-0.4-0.6-0.7-1-1l-6.4,6.4c-0.5,0.5-1.1,0.7-1.8,0.7s-1.3-0.2-1.8-0.7c-1-1-1-2.6,0-3.5l6.7-6.7c0.3-0.3,0.6-0.5,0.9-0.6
		v-10.9h0.4c0-0.3,0-0.7,0-1c0,0-0.1-0.1-0.1-0.1c-0.1,0-0.1-0.1-0.1-0.1c-0.4-0.2-0.7-0.5-1.1-0.8c-0.1-0.1-0.3-0.2-0.4-0.3
		c-0.2-0.2-0.4-0.3-0.6-0.5c-0.3-0.2-0.6-0.4-0.8-0.7c-1.2-1.1-2.4-2.3-3.4-3.5c-0.5-0.4-0.8-0.9-1.1-1.5c0,0,0-0.1-0.1-0.1
		c0,0,0,0,0,0c-1.4-2.2-1.8-4.2-0.4-5.3c0.3-0.2,0.6-0.4,0.9-0.5c4.1-1.7,9.4,3.7,9.4,3.7s7.5-6.1,10.3-3.2
		C174.4,113.9,174.1,115.5,173.2,117.3z M200.7,119.5c-1.3-0.1-2.5-0.3-3.7-0.5c0,0,0,0,0,0c-8.9-2-15.4-9.2-15.4-17.6
		c0-6.1,3.4-11.5,8.5-14.8c3.4-2.2,7.6-3.4,12.1-3.4c4.5,0,8.7,1.3,12.1,3.4c5.2,3.3,8.6,8.7,8.6,14.8c0,10-9.2,18.2-20.6,18.2
		C201.6,119.5,201.1,119.5,200.7,119.5z M234,168.9c0,0.4-0.1,0.9-0.4,1.3c-0.8,1.5-2.8,2.1-4.3,1.3l-15.8-8.4
		c-1-0.5-1.6-1.5-1.7-2.6c0-0.1,0-0.2,0-0.3c0-0.1,0-0.2,0-0.4c0-0.4,0.2-0.8,0.4-1.1c0.8-1.5,2.8-2.1,4.3-1.3l15.8,8.4
		c0.9,0.5,1.5,1.4,1.7,2.4c0,0.1,0,0.3,0,0.4C234,168.8,234,168.9,234,168.9z M239.3,158.8c0,0.4-0.1,0.9-0.4,1.3
		c-0.8,1.5-2.8,2.1-4.3,1.3l-15.8-8.4c-1-0.5-1.6-1.5-1.7-2.6c0-0.1,0-0.2,0-0.3c0-0.1,0-0.2,0-0.4c0-0.4,0.2-0.8,0.4-1.1
		c0.8-1.5,2.8-2.1,4.3-1.3l15.8,8.4c0.9,0.5,1.5,1.4,1.7,2.4c0,0.1,0,0.3,0,0.4C239.3,158.6,239.3,158.7,239.3,158.8z"/>
	<path class="st0" d="M242.5,30.7c0,0-29.3-6-44.8,18.6c-0.4,0.6-0.8,1.2-1.1,1.9H194c0.2,0.4,0.3,0.8,0.4,1.1
		c0.1,0.4,0.2,0.7,0.2,1c0,3.5,0.3,3.5-2.5,5.1c-2.8,1.5-21.6,0.5-22.5,0c-0.8-0.5-2.5-2-1.9-4.3c0.1-0.5,0.6-1.5,1.2-2.9h-34.4
		c-15.1-26.8-45.9-20.5-45.9-20.5C69.8,49.4,75.2,79.4,76.3,84.6c0.1,0.5,0.2,0.8,0.2,0.8h28c1.8-3.2,5.4-5.4,9.2-5.5
		c0.3,0,2.7-0.2,2.7-0.2c1.6-0.2,3.1-0.5,4.7-0.7c3.3-0.4,6.2-0.1,9.4,0.3c3.3,0.5,5.5,3,6.7,6h48.2c1.4-2,3.5-3.5,5.8-4.5
		c6.1-2.4,14-2.7,20.2-1c3,0.8,5.2,2.9,6.4,5.5h36.7C254.5,85.4,263,51.2,242.5,30.7z M112.9,65.6c-0.8,2.7-7.2,4.8-11.2,5
		c-3.4,0.2-4.2-1.9-4.3-2.5c0-0.1,0-0.1,0-0.1c0.2-8.2,0-14.2,3.7-16.8c3.7-2.6,11.8,8.7,11.8,8.7C114.4,63.4,113.6,62.8,112.9,65.6
		z M232.1,69c-3.9-0.2-10.4-2.3-11.1-5c-0.5-1.8-1-2.1-0.9-3.2c0.1-0.5,0.4-1.3,0.9-2.5c0,0,8.1-11.2,11.7-8.6
		c3.7,2.6,3.4,8.5,3.7,16.7c0,0-0.2,1.6-2,2.3C233.8,68.9,233.1,69.1,232.1,69z"/>
	<ellipse class="st0" cx="124.7" cy="102.6" rx="15.6" ry="14"/>
	<ellipse class="st0" cx="200" cy="101.3" rx="15.6" ry="14"/>
</g>
</svg>
