<?xml version="1.0" encoding="utf-8"?>
<!-- Generator: Adobe Illustrator 21.0.0, SVG Export Plug-In . SVG Version: 6.00 Build 0)  -->
<svg version="1.1" xmlns="http://www.w3.org/2000/svg" xmlns:xlink="http://www.w3.org/1999/xlink" x="0px" y="0px"
	 viewBox="0 0 600 260" style="enable-background:new 0 0 600 260;" xml:space="preserve">
<style type="text/css">
	.st0{stroke:#000000;stroke-miterlimit:10;}
	.st1{stroke:#000000;stroke-width:0.25;stroke-miterlimit:10;}
	.st2{fill:#FFFFFF;stroke:#FFFFFF;stroke-miterlimit:10;}
</style>
<g id="Layer_4">
	<path class="st2" d="M467.7,244.2c-13.4-25.5-36.4-33.9-40.2-35.1c-0.3-0.1-0.5-0.2-0.5-0.2s-10.9-0.4-28.2-1
		c0,0.2-0.1,0.3-0.2,0.5c-1.1,2-3.6,2.8-5.7,1.7l-4.9-2.6l0,0c-4.8-0.1-9.9-0.3-15.2-0.5l17.1,9.1c1.2,0.7,2,1.9,2.2,3.2
		c0,0.2,0,0.4,0,0.6c0,0.1,0,0.2,0,0.3c0,0.6-0.2,1.1-0.5,1.7c-1.1,2-3.7,2.8-5.7,1.7l-20.8-11c-1.3-0.7-2.1-2-2.2-3.4
		c0-0.1,0-0.2,0-0.3c0-0.2,0-0.3,0-0.5c0-0.5,0.2-1,0.5-1.4c0,0,0-0.1,0-0.1c-44.2-1.4-102-2.9-140.8-3.1h0l-13,6.8
		c-0.6,0.3-1.3,0.5-1.9,0.5c-1.5,0-3-0.8-3.7-2.3c-0.3-0.6-0.4-1.1-0.5-1.7c0-0.3,0-0.6,0-0.8c0.1-0.9,0.6-1.8,1.3-2.4
		c-7.1,0.1-13,0.2-17.2,0.5c-2.9,0.2-5.6,0.6-8.2,1.1c0,1-0.5,2-1.8,2.4c-14.2,4.2-28.4,14.4-36.3,27c-0.3,0.5-0.6,0.8-1,0.9
		c-1.9,3.4-3.2,6.4-4.2,8.6c-1,2.6-1.5,4.1-1.5,4.1l82.6-0.4h0l170.7-0.8l81.1-0.4C468.6,245.9,468.2,245,467.7,244.2z M239.7,209.5
		c-0.1,1.4-0.9,2.7-2.3,3.4l-20.9,10.9c-0.6,0.3-1.3,0.5-2,0.5c-1.5,0-3-0.8-3.7-2.3c-0.3-0.5-0.4-1.1-0.4-1.7c0-0.3,0-0.6,0-0.8
		c0.2-1.3,1-2.5,2.2-3.2l20.9-10.9c0.6-0.3,1.3-0.5,1.9-0.5c1.5,0,3,0.8,3.8,2.3c0.2,0.5,0.4,1,0.4,1.4
		C239.7,208.9,239.7,209.2,239.7,209.5z"/>
	<path class="st2" d="M325.7,22.1c0,0.2,0,0.3,0,0.4c0,0.1,0,0.1,0,0.2h0.1v8.6h5.9l-5.9,13.3c0,0,9.5,14.2,12.2,21.1
		c0.2,0.5,0.4,1.1,0.5,1.5c0.1,0.5,0.2,0.9,0.2,1.3c0,4.6,0.4,4.6-3.3,6.6c-3.7,2-28.9,0.7-30,0c-1.1-0.7-3.3-2.7-2.6-5.7
		c0.1-0.6,0.7-2,1.6-3.8c0.3-0.7,0.7-1.5,1.2-2.4c3.5-7.1,9.1-17.7,9.9-19.1c1.1-2-7-11.6-7-11.6l6.7-0.3l0.1-9.7h0v-0.3
		c0-0.1,0-0.2,0-0.4h-56.8v62.6h84.5V22.1H325.7z"/>
	<polygon class="st2" points="315.2,21.5 315.1,21.5 315.4,3.5 238.3,3.5 238.3,22.1 315.2,22.1 	"/>
	<path class="st2" d="M325.7,3.5v18h-0.2c0,0.2,0,0.4,0,0.6h38.7V3.5H325.7z"/>
	<path class="st2" d="M418.9,111.7c-0.4-0.5-0.9-1.1-1.4-1.6c-7.1-8.2-15.8-15.5-25.6-21.9c-0.8,0.3-1.8,0.5-3.1,0.4
		c-5.2-0.3-13.8-3.1-14.9-6.6c-0.7-2.3-1.4-2.8-1.2-4.2c-9.3-4.2-19.3-7.6-29.8-10.1h0c-1.5-0.4-3-0.7-4.4-1c0.1,0.5,0.2,1,0.2,1.3
		c0,1.1,0,1.9,0,2.6c0,0.2,0,0.5,0,0.7c-0.1,1.6-0.8,2-3.3,3.4c-3.7,2-28.9,0.7-30,0c-0.9-0.6-2.5-2-2.7-4.1v0c0-0.5,0-1,0.1-1.5
		c0.1-0.6,0.8-2,1.6-3.8c0.3-0.7,0.8-1.5,1.2-2.4c-1.9,0-3.7-0.1-5.6-0.1c-10.5,0-20.7,0.8-30.6,2.5c-1.2,0.2-2.3,0.4-3.5,0.6
		c-2.5,0.5-5,1-7.4,1.5h0c-10.1,2.3-19.7,5.4-28.7,9.3c2.1,4.6,1,3.9,0,7.4c-1,3.6-9.6,6.3-14.9,6.6c-4.6,0.3-5.6-2.6-5.7-3.3
		c-10.4,6.5-19.4,14.2-26.8,22.7c-0.2,0.2-0.3,0.3-0.5,0.5c-13.8,16.1-21.8,35.1-21.8,55.6c0,11.2,2.4,21.9,6.8,32c0,0,0,0.1,0,0.2
		c1.2,2.7,2.5,5.4,4,8c8.3,14.6,21,27.5,36.9,37.8c2,1.3,4,2.6,6.2,3.8h0c5.3,3,10.9,5.8,16.7,8.3h138.5c6.3-2.7,12.4-5.7,18-9
		c1.7-1,3.3-2,4.9-3c14.9-9.6,27-21.6,35.3-35.1c4.1-6.6,7.2-13.6,9.3-20.8c0,0,0-0.1,0-0.2c2.1-7,3.1-14.3,3.1-21.8
		C439.9,146.3,432.2,127.6,418.9,111.7z M332.7,111.7c4.5-2.8,10.1-4.5,16.1-4.5c6,0,11.6,1.7,16.1,4.5c6.9,4.3,11.4,11.4,11.4,19.4
		c0,13.2-12.3,23.9-27.5,23.9c-0.6,0-1.2,0-1.9,0c-1.7-0.1-3.4-0.4-5-0.7c0,0,0,0,0,0c-11.9-2.7-20.6-12-20.6-23.1
		C321.3,123.1,325.8,116.1,332.7,111.7z M361.7,208.3c0-0.5,0.2-1,0.5-1.4c0,0,0-0.1,0-0.1c1.1-2,3.7-2.7,5.7-1.6l3.7,1.9h0
		l17.4,9.1c1.2,0.7,2.1,1.9,2.3,3.2c0,0.2,0,0.4,0,0.6c0,0.1,0,0.2,0,0.3c0,0.6-0.2,1.1-0.5,1.7c-1.1,2-3.7,2.8-5.8,1.7l-21.1-11
		c-1.3-0.7-2.2-2-2.3-3.4c0-0.1,0-0.2,0-0.3C361.7,208.6,361.7,208.4,361.7,208.3z M283.1,146.5c0.4-0.3,0.8-0.5,1.2-0.7
		c5.4-2.3,12.6,4.9,12.6,4.9s10-8,13.7-4.2c1.1,1.1,0.7,3.2-0.5,5.6c-1.1,2-2.7,4.3-4.6,6.3c-0.1,0.4-0.4,0.8-0.8,1.2
		c-1,0.9-2,1.7-3.1,2.4c-0.6,0.6-1.3,1-1.9,1.4c0,0-0.1,0-0.1,0.1c0,0.4,0,0.7,0,1.1h0.2v14c0.4,0.2,0.8,0.5,1.1,0.9l7.9,9.6
		c0.5,0.6,0.7,1.3,0.7,2.1c0,1-0.4,1.9-1.2,2.6c-1.4,1.1-3.5,0.9-4.7-0.5l-5.8-7c0,0-0.1,0-0.1-0.1c-0.4-0.5-0.9-0.9-1.3-1.4
		l-8.5,8.4c-0.6,0.6-1.5,1-2.3,1c-0.9,0-1.7-0.3-2.4-1c-1.3-1.3-1.3-3.4,0-4.7l8.9-8.8c0.4-0.4,0.8-0.6,1.2-0.8v-14.3h0.5
		c0-0.4,0-0.9,0-1.3c0,0-0.1-0.1-0.2-0.1c-0.1,0-0.1-0.1-0.2-0.1c-0.5-0.3-1-0.7-1.5-1c-0.2-0.1-0.4-0.2-0.5-0.4
		c-0.3-0.2-0.5-0.4-0.8-0.7c-0.4-0.3-0.8-0.6-1.1-0.9c-1.6-1.4-3.2-3-4.5-4.6c-0.6-0.5-1.1-1.2-1.4-2c0,0,0-0.1-0.1-0.1
		c0,0,0,0-0.1,0C281.8,150.6,281.2,147.9,283.1,146.5z M228.8,111.7h0.5c0.2,0,0.3-0.1,0.5-0.2c0.2-0.1,0.5-0.2,0.7-0.2
		c0.3-0.1,0.6-0.2,0.9-0.3c0.2-0.1,0.4-0.1,0.7-0.2c4.6-1.3,9.6-1.5,14.3-0.6c1.3,0.1,2.6,0.3,3.8,0.5c1,0.3,2,0.6,2.9,1h1.1
		c8.8,4,14.8,12,14.8,21.2c0,13.2-12.3,23.9-27.5,23.9c-15.2,0-27.5-10.7-27.5-23.9C214,123.7,220,115.7,228.8,111.7z M204.2,210.8
		c-1.5,0-3.1-0.8-3.8-2.3c-0.3-0.6-0.4-1.1-0.5-1.7c0-0.3,0-0.6,0-0.8c0.1-0.9,0.6-1.8,1.3-2.4c0,0,0,0,0,0c0.3-0.3,0.6-0.5,1-0.7
		l21.2-10.9c0.6-0.3,1.3-0.5,2-0.5c1.5,0,3.1,0.8,3.8,2.2c0.3,0.5,0.4,0.9,0.4,1.4c0,0.3,0,0.5,0,0.8c-0.1,1.4-0.9,2.7-2.3,3.4
		l-8,4.1h0l-13.2,6.8C205.5,210.7,204.9,210.8,204.2,210.8z M207.5,222c-0.3-0.5-0.4-1.1-0.4-1.7c0-0.3,0-0.6,0-0.8
		c0.2-1.3,1-2.5,2.3-3.2l21.2-10.9c0.6-0.3,1.3-0.5,1.9-0.5c1.5,0,3,0.8,3.8,2.3c0.2,0.5,0.4,1,0.4,1.4c0,0.3,0,0.6,0,0.8
		c-0.1,1.4-1,2.7-2.3,3.4l-21.2,10.9c-0.6,0.3-1.3,0.5-2,0.5C209.8,224.2,208.3,223.4,207.5,222z M398,208.4c-1.1,2-3.7,2.8-5.8,1.7
		l-5-2.6l0,0l-16.1-8.4c-1.3-0.7-2.1-2-2.2-3.4c0-0.1,0-0.2,0-0.4c0-0.2,0-0.3,0-0.5c0-0.5,0.2-1,0.5-1.5c1.1-2,3.7-2.8,5.8-1.7
		l21.1,11c1.2,0.7,2,1.9,2.2,3.1c0,0.2,0,0.4,0,0.6c0,0.1,0,0.2,0,0.3c0,0.4-0.1,0.8-0.3,1.2C398.1,208.1,398.1,208.2,398,208.4z"/>
	<path class="st2" d="M402.7,38.2c0,0-39.1-7.9-59.7,24.5c0,0,0,0,0,0c-0.5,0.8-1,1.6-1.5,2.4H338c0.2,0.6,0.4,1.1,0.5,1.5
		c0.1,0.5,0.2,1,0.2,1.3c0,1.1,0,1.9,0,2.6c0,0.2,0,0.5,0,0.7c-0.1,1.6-0.8,2-3.3,3.4c-3.7,2-28.9,0.7-30,0c-0.9-0.6-2.5-2-2.7-4.1
		v0c0-0.5,0-1,0.1-1.5c0.1-0.6,0.8-2,1.6-3.8h-46c-20.1-35.2-61.2-27-61.2-27c-25,24.6-17.8,64-16.3,70.9c0.2,0.7,0.3,1.1,0.3,1.1
		h37.4c2.4-4.2,7.2-7.1,12.2-7.2c0.4,0,3.6-0.3,3.6-0.2c2.1-0.3,4.2-0.6,6.3-0.9c4.3-0.5,8.2-0.1,12.6,0.4c4.4,0.6,7.4,3.9,8.9,7.9
		h64.3c1.9-2.6,4.7-4.7,7.8-5.9c8.1-3.1,18.6-3.6,27-1.4c4,1.1,7,3.8,8.6,7.2h49C418.7,110.2,430.1,65.3,402.7,38.2z M229.7,84.1
		c-1,3.6-9.6,6.3-14.9,6.6c-4.6,0.3-5.6-2.6-5.7-3.3c0-0.1,0-0.1,0-0.1c0.3-10.9,0-18.6,4.9-22c4.9-3.4,15.7,11.4,15.7,11.4
		C231.8,81.2,230.7,80.5,229.7,84.1z M388.8,88.6c-5.2-0.3-13.8-3.1-14.9-6.6c-0.7-2.3-1.4-2.8-1.2-4.2c0.1-0.7,0.5-1.7,1.2-3.2
		c0,0,10.8-14.8,15.7-11.4c4.9,3.4,4.6,11.2,4.9,22c0,0-0.3,2.1-2.6,3C391.1,88.6,390.1,88.7,388.8,88.6z"/>
	<ellipse class="st2" cx="245.5" cy="132.8" rx="20.8" ry="18.4"/>
	<ellipse class="st2" cx="346" cy="131.1" rx="20.8" ry="18.4"/>
	<rect x="11.8" y="242.2" class="st2" width="581.8" height="16"/>
</g>
</svg>
