<?xml version="1.0" encoding="utf-8"?>
<!-- Generator: Adobe Illustrator 21.0.0, SVG Export Plug-In . SVG Version: 6.00 Build 0)  -->
<svg version="1.1" xmlns="http://www.w3.org/2000/svg" xmlns:xlink="http://www.w3.org/1999/xlink" x="0px" y="0px"
	 viewBox="0 0 900 768" style="enable-background:new 0 0 900 768;" xml:space="preserve">
<style type="text/css">
	.st0{fill:#FDF1D7;}
	.st1{fill:#D26C44;}
	.st2{fill:none;stroke:#D26C44;stroke-width:3;stroke-miterlimit:10;}
	.st3{fill:#FAE8B8;}
	.st4{fill:#956041;}
	.st5{fill:#4398C5;stroke:#FFFFFF;stroke-miterlimit:10;}
	.st6{fill:#5DB1C6;stroke:#FFFFFF;stroke-miterlimit:10;}
	.st7{fill:#2A5A73;stroke:#FFFFFF;stroke-miterlimit:10;}
	.st8{fill:#5DB1C6;stroke:#FFFFFF;stroke-width:2;stroke-miterlimit:10;}
	.st9{fill:#84DFD8;stroke:#FFFFFF;stroke-width:2;stroke-miterlimit:10;}
	.st10{fill:#2A5A73;stroke:#FFFFFF;stroke-width:2;stroke-miterlimit:10;}
	.st11{fill:#FFFFFF;}
	.st12{fill:#FAE8B8;stroke:#000000;stroke-miterlimit:10;}
	.st13{fill:#FAE8B8;stroke:#000000;stroke-width:2;stroke-miterlimit:10;}
	.st14{fill:none;stroke:#FFFFFF;stroke-width:2;stroke-miterlimit:10;}
	.st15{stroke:#8B5E3F;stroke-width:5;stroke-miterlimit:10;}
	.st16{stroke:#8B5E3F;stroke-width:9;stroke-miterlimit:10;}
	.st17{fill:#92BB37;}
	.st18{fill:#C6D82E;}
	.st19{fill:#B2D030;}
	.st20{fill:#FFCA25;}
	.st21{fill:#FFFFFF;stroke:#000000;stroke-width:6;stroke-miterlimit:10;}
	.st22{fill:#84DFD8;stroke:#000000;stroke-miterlimit:10;}
	.st23{fill:#FDEB21;}
	.st24{fill:#FDA51E;}
	.st25{fill:#FDD107;}
	.st26{fill:#FF7E50;}
	.st27{fill:#FF7E50;stroke:#FFFFFF;stroke-miterlimit:10;}
	.st28{fill:#FFD700;}
	.st29{fill:#7F775A;}
	.st30{fill:#F2FDCA;}
	.st31{fill:#E2E0B4;}
	.st32{fill:#C1BD8A;}
	.st33{fill:#494A33;stroke:#734600;stroke-width:8;stroke-miterlimit:10;}
</style>
<g id="Layer_2">
	<rect x="213" y="413" class="st0" width="518" height="237"/>
	<polygon class="st1" points="196,419 204,366 382,366 382,418 	"/>
	<polygon class="st1" points="747,419 739,366 561,366 561,418 	"/>
	<g id="Layer_3">
		<line class="st2" x1="371" y1="346" x2="475" y2="278"/>
		<line class="st2" x1="576.5" y1="344.5" x2="473.5" y2="277.5"/>
		<rect x="380" y="342" class="st3" width="190" height="280"/>
		<polyline class="st3" points="380,342 475,280 570,342 		"/>
	</g>
</g>
<g id="Layer_4">
	<rect x="458" y="523" class="st4" width="32" height="60"/>
	<rect x="423" y="418" class="st5" width="35" height="26"/>
	<rect x="492" y="418" class="st6" width="35" height="26"/>
	<rect x="424" y="465" class="st6" width="35" height="26"/>
	<rect x="492" y="465" class="st7" width="35" height="26"/>
	<rect x="241" y="444" class="st8" width="45" height="74"/>
	<rect x="311" y="444" class="st9" width="45" height="74"/>
	<rect x="597" y="445" class="st10" width="45" height="74"/>
	<rect x="669" y="445" class="st9" width="45" height="74"/>
	<g>
		<path class="st11" d="M475.5,383.5c-21.5,0-39-17.5-39-39s17.5-39,39-39s39,17.5,39,39S497,383.5,475.5,383.5z"/>
		<path d="M475.5,306c21.2,0,38.5,17.3,38.5,38.5S496.7,383,475.5,383S437,365.7,437,344.5S454.3,306,475.5,306 M475.5,305
			c-21.8,0-39.5,17.7-39.5,39.5s17.7,39.5,39.5,39.5s39.5-17.7,39.5-39.5S497.3,305,475.5,305L475.5,305z"/>
	</g>
	<line class="st12" x1="437" y1="345" x2="442" y2="345"/>
	<line class="st12" x1="514.5" y1="344.5" x2="508.5" y2="344.5"/>
	<line class="st12" x1="475.5" y1="305.5" x2="475.5" y2="310.5"/>
	<line class="st12" x1="475.5" y1="383.5" x2="475.5" y2="378.5"/>
	<line class="st13" x1="475.5" y1="344.5" x2="475.5" y2="314.5"/>
	<line class="st13" x1="476" y1="345" x2="497" y2="345"/>
	<g>
		<g>
			<path d="M475.3,346.3c1.9,0,1.9-3,0-3C473.4,343.3,473.4,346.3,475.3,346.3L475.3,346.3z"/>
		</g>
	</g>
	<line class="st10" x1="619" y1="444" x2="619" y2="519"/>
	<line class="st10" x1="597" y1="465" x2="642" y2="465"/>
	<line class="st9" x1="691" y1="445" x2="691" y2="519"/>
	<line class="st9" x1="669" y1="465" x2="714" y2="465"/>
	<line class="st14" x1="334" y1="445" x2="334" y2="519"/>
	<line class="st14" x1="356" y1="465" x2="311" y2="465"/>
	<line class="st14" x1="286" y1="465" x2="241" y2="465"/>
	<line class="st14" x1="264" y1="445" x2="264" y2="517"/>
</g>
<g id="Layer_6">
	<line class="st15" x1="145.1" y1="585.3" x2="169.5" y2="661.5"/>
	<line class="st16" x1="181.5" y1="567.8" x2="207.5" y2="651.5"/>
	
		<ellipse transform="matrix(0.9541 -0.2994 0.2994 0.9541 -143.2564 70.8528)" class="st17" cx="159.6" cy="503" rx="47" ry="71.7"/>
	<circle class="st18" cx="133.5" cy="552.5" r="35.5"/>
	<path class="st19" d="M834,712.1C780.5,632.7,639.8,576,474.5,576c-167,0-309,57.9-361.2,138.7"/>
</g>
<g id="Layer_5">
	<path class="st20" d="M806.9,650.6l-170.5-74.4c-6-2.6-8.8-9.7-6.2-15.8l31.9-73.2c2.6-6,9.7-8.8,15.8-6.2l170.5,74.4
		c6,2.6,8.8,9.7,6.2,15.8l-31.9,73.2C820,650.5,812.9,653.2,806.9,650.6z"/>
	<g>
		<circle cx="659.5" cy="597.5" r="14.5"/>
	</g>
	<g>
		<circle cx="772.5" cy="647.5" r="14.5"/>
	</g>
	<line class="st21" x1="681" y1="556" x2="817" y2="615"/>
	<rect x="652.3" y="501.3" transform="matrix(0.9165 0.4 -0.4 0.9165 267.1886 -222.5717)" class="st22" width="29.1" height="55"/>
	
		<rect x="699.8" y="521.1" transform="matrix(0.9165 0.4 -0.4 0.9165 275.5087 -240.6806)" class="st22" width="29.1" height="37.3"/>
	
		<rect x="745.8" y="541.1" transform="matrix(0.9165 0.4 -0.4 0.9165 287.3484 -257.4103)" class="st22" width="29.1" height="37.3"/>
	
		<rect x="793.8" y="562.1" transform="matrix(0.9165 0.4 -0.4 0.9165 299.755 -274.8565)" class="st22" width="29.1" height="37.3"/>
</g>
<g id="Layer_7">
	<polygon class="st23" points="663.4,118.2 648.4,116.3 647,131.3 633.5,124.7 627.3,138.4 616.7,127.8 606.4,138.8 599.8,125.2 
		586.5,132.3 584.6,117.3 569.7,119.7 572.8,105 558,102.3 565.7,89.4 552.5,82.1 564,72.4 553.9,61.2 567.9,55.7 562,41.9 
		577,41.3 575.9,26.2 590.3,30.5 594.2,16 606.4,24.7 614.8,12.2 623.5,24.4 635.5,15.3 639.8,29.7 654.1,24.9 653.5,40 668.5,40.1 
		663.1,54.2 677.3,59.2 667.5,70.7 679.3,80 666.4,87.7 674.5,100.4 659.8,103.5 	"/>
	<circle class="st24" cx="615.9" cy="75.4" r="47.5"/>
	<circle class="st25" cx="616" cy="75" r="38"/>
	<circle class="st23" cx="615.9" cy="75.1" r="27.1"/>
</g>
<g id="Layer_8">
	<path class="st26" d="M27,172c1,0,36-61,36-61l69,33l-23,104L27,172z"/>
	<line class="st27" x1="63" y1="111" x2="109" y2="248"/>
	<line class="st27" x1="132" y1="144" x2="81" y2="165"/>
	<line class="st27" x1="27" y1="172" x2="81" y2="165"/>
	<g>
		<g>
			<path d="M109.2,247.9c3.6,4,7.6,8.6,7.9,14.3c0.3,5.3-2.8,10-5.6,14.2c-5.1,7.6-10.6,14.9-14.9,23c-3.6,6.7-6.6,14.1-7.2,21.8
				c-0.6,7.8,2.4,14.4,7.1,20.4c5.8,7.4,12.7,13.8,18.1,21.7c5.2,7.4,9.3,15.7,11,24.7c4.1,21.4-8.4,36.8-22.7,50.9
				c-0.7,0.7,0.4,1.7,1.1,1.1c9.5-9.5,19.7-19.8,22.9-33.4c3.2-13.7-1.1-28-8.2-39.8c-3.6-5.9-8-11.3-12.6-16.5
				c-5.4-6-11.6-11.8-14.3-19.7c-5.5-16.3,7.7-34.5,16.5-47.1c3.9-5.7,9.3-11.8,10.1-19c0.8-7.1-3.8-12.7-8.2-17.7
				C109.6,246.1,108.5,247.1,109.2,247.9L109.2,247.9z"/>
		</g>
	</g>
	<g>
		<g>
			<path d="M106.2,285.3c-2.8-2-5.3-4.2-8.4-5.9c-2.3-1.2-5.5-3-8.1-2.9c-0.3,0-0.6,0.2-0.7,0.6c-1.6,5.9,12.8,15,16,8.8
				c0.4-0.9-0.9-1.6-1.3-0.8c-1.8,3.5-8.5-1-10.2-2.4c-0.9-0.8-1.8-1.7-2.4-2.8c-1.4-2.3,0.3-1.7,1.7-1.1c4.9,1.8,8.6,4.8,12.7,7.8
				C106.2,287.1,107,285.8,106.2,285.3L106.2,285.3z"/>
		</g>
	</g>
	<g>
		<g>
			<path d="M106,285.4c1.4,0,2.6-0.4,3.6-1.2c0.6-0.4,1.1-0.8,1.7-1.2c1-0.6,1.9-1.2,2.9-1.8c1.4-0.8,8.9-5.5,8.4-0.9
				c-0.3,2.4-5.5,4.5-7.4,5.1c-3.1,1-7.7,2.4-10.7,0.9c-0.9-0.4-1.6,0.9-0.8,1.3c3.9,2,9.5,0.3,13.3-1.3c2.7-1.1,8-4.2,7.8-7.8
				c-0.4-6.8-17.7,4.2-19.2,7c-0.2,0.4-0.1,0.8,0.3,1c0,0,0.1,0.1,0.1,0.1c0.3,0.2,0.7,0.1,0.9-0.1c0,0,0.1-0.1,0.1-0.1
				C107.8,285.8,106.7,284.8,106,285.4L106,285.4z"/>
		</g>
	</g>
	<g>
		<g>
			<path d="M104.5,287.6c0.2-0.1,0.4-0.1,0.6-0.2c-0.1-0.5-0.3-0.9-0.4-1.4c-3.2,1.7-6.4,3.4-9.6,5c-1.9,1-5,1.9-6,4
				c-0.2,0.5,0,1.1,0.6,1.1c0.7,0,0.8,0,1.4-0.3c0.9-0.4,0.1-1.7-0.8-1.3c-0.2,0-0.4,0.1-0.6,0.1c0.2,0.4,0.4,0.8,0.6,1.1
				c0.9-2,5.6-3.5,7.6-4.6c2.5-1.3,5-2.6,7.5-3.9c0.6-0.3,0.4-1.4-0.4-1.4c-0.6,0-0.8,0.1-1.3,0.4
				C102.9,286.8,103.6,288.1,104.5,287.6L104.5,287.6z"/>
		</g>
	</g>
	<g>
		<g>
			<path d="M105,287.3c1,3.5,2.2,7,3.4,10.5c0.2,0.7,1.3,0.8,1.4,0c0.1-0.3,0.1-0.6,0.2-0.9c0.2-0.9-1.2-1.3-1.4-0.4
				c-0.1,0.3-0.1,0.6-0.2,0.9c0.5,0,1,0,1.4,0c-1.2-3.5-2.4-7-3.4-10.5C106.2,286,104.7,286.4,105,287.3L105,287.3z"/>
		</g>
	</g>
	<g>
		<g>
			<path d="M125.1,380.3c-2.2-2.1-5.1-3.7-8.2-3c-2.6,0.6-4.6,2.8-4.3,5.6c0.8,6.1,12,4.6,12.3-1.2c0-1-1.5-1-1.5,0
				c-0.2,4.7-11,4.9-9.1-0.5c1.6-4.6,7.5-1.9,9.8,0.2C124.7,382,125.8,381,125.1,380.3L125.1,380.3z"/>
		</g>
	</g>
	<g>
		<g>
			<path d="M125.8,381.7c-0.2-2-0.3-4.1,0.4-6c0.7-1.9,4.8-6.5,5.7-1.6c0.7,3.6-2.8,7.3-5.7,8.6c-0.9,0.4-0.1,1.7,0.8,1.3
				c2.6-1.2,4.6-3.3,5.7-5.9c0.8-1.9,1.6-5.6-0.3-7.1c-1.9-1.5-4.6,0.1-6,1.6c-2.2,2.5-2.3,6-2.1,9.1
				C124.4,382.7,125.9,382.7,125.8,381.7L125.8,381.7z"/>
		</g>
	</g>
	<g>
		<g>
			<path d="M124.4,381.9c0.4,2.2-0.7,4.6-1.2,6.7c-0.5,1.9-1,3.7-1.5,5.6c-0.2,0.9,1.2,1.3,1.4,0.4c0.7-2.5,1.3-5,2-7.5
				c0.5-1.9,1.1-3.7,0.7-5.6C125.6,380.5,124.2,380.9,124.4,381.9L124.4,381.9z"/>
		</g>
	</g>
	<g>
		<g>
			<path d="M125.3,382.7c2.9,3.1,6.1,5.8,9.7,8.1c0.8,0.5,1.6-0.8,0.8-1.3c-3.5-2.2-6.6-4.9-9.4-7.9
				C125.7,380.9,124.6,382,125.3,382.7L125.3,382.7z"/>
		</g>
	</g>
	<polygon class="st28" points="28.5,171.5 8.5,162.5 6.5,171.5 25.5,172.5 8.5,174.5 6.5,181.5 22.5,175.5 12.5,185.5 20.5,190.5 	
		"/>
	<polygon class="st28" points="131,144.7 150,155.7 152.9,147 134.1,144 151.2,143.8 154,137 137.4,141.3 148.4,132.4 141,126.6 	
		"/>
</g>
<g id="Layer_9">
	<path class="st11" d="M382.7,156.2c-2.3-0.3-3.4-3.4-2.5-5.6c0.9-2.2,3.1-3.5,5.3-4.4c6.2-2.6,13.2-3.1,19.7-1.4
		c0.2-6.1,3.2-12.3,8.7-15.1c5.4-2.7,13.1-0.8,15.7,4.7c-1-9.8,2.2-20.1,9-27.2s17.3-10.8,26.9-8.7c5.5,1.2,10.5,4,15.2,7.1
		c7.5,4.8,15.3,11.6,15.3,20.5c1.8-10.7,11.1-19.6,21.8-21c5.2-0.7,10.9,0.5,14.6,4.2c5.3,5.5,4.7,14.3,3.7,21.9
		c3.8-3,9.4-3.7,13.8-1.7c4.4,2,7.6,6.7,7.7,11.6c1.9-5.8,7.1-11,13.3-10.9c6.1,0,11.8,6.8,9.3,12.5c5.3-4.6,12.3-7.2,19.3-7.3
		c4.4,0,9.1,1.1,11.8,4.5c2.7,3.4,1.9,9.5-2.2,11c7.8,6.1,21.2,3.1,26.6,11.3c-13.2,8-30.2,3.7-45.4,5.8c-9.6,1.3-19.5,5.3-28.5,1.7
		c-2.9-1.1-5.6-3.2-6.5-6.2c-0.3-1-0.4-2.1-0.9-3c-1.3-2.4-4.5-2.8-7.2-2.8c-29-0.3-58,1.4-86.7,5c-11.8,1.5-23.6,3.3-35.4,1.9
		c-2.4-0.3-5.5-1.9-4.5-4.1c-4.9,1.7-10.1,2.4-15.2,2c-1.4-0.1-3-0.3-4.1-1.2c-1.1-0.9-1.7-2.7-0.8-3.8c-5,0.4-10,0.8-14.9,1.2
		c-1.6,0.1-3.9-1-2.9-2.3"/>
	<path class="st11" d="M698.4,266.3c-6.9,5.2-16.6,3.2-24.9,1c-2.7-0.7-5.8-1.9-6.3-4.6c-0.3-1.8,0.7-3.5,2-4.8
		c6.8-7.4,18.4-6.8,28.4-5.8c0.8,0.1,1.8,0.1,2.2-0.7c0.3-0.6,0-1.2-0.2-1.8c-1.6-4.4,2.5-9.2,7-10s9.2,1.4,13,4
		c-1.9-9.4,0.1-19.5,5.9-27.1c5.8-7.6,15.4-12.3,24.9-11.7c13.1,0.8,24.7,12.4,25.6,25.5c0.7-5.7,6.1-10,11.7-11.3
		c5.6-1.3,11.5-0.3,17.1,0.7c4,0.7,8.8,2.3,9.2,6.3c6-4.2,15.1-3.1,20.1,2.2c5,5.4,5.3,14.5,0.6,20.2c-1.4,1.7-3.3,3.8-2.3,5.8
		c0.6,1.1,1.8,1.6,3,1.8c5.6,1.3,11.4-0.9,17-1.9c7-1.2,14.4-0.7,21.1,1.7c2.6,0.9,5.3,2.2,6.9,4.5s1.3,6-1.2,7.4
		c5.2,0.1,10.4,0.6,15.5,1.4c1.2,0.2,2.6,0.5,3.2,1.6c1.1,2-1.5,4-3.7,4.7c-15.9,5.4-33.2,4-50,2.9c-37.1-2.5-74.3-3.7-111.6-3.5
		c-4.7,0-9.6,0-13.9-1.9c-3-1.3-5.5-3.5-8.3-5.1c-4.3-2.3-9.5-3-14.3-1.9"/>
	<path class="st11" d="M178.5,243.4c-3.4-0.6-5.8-4.6-4.8-7.9c1-3.3,5.2-5.2,8.4-3.8c-1.5-2.2-2.7-4.7-3.5-7.4c-0.5-2-0.9-4-0.6-6
		c0.2-2,1-4,1.9-5.8c6.8-13.6,24.1-20.9,38.5-16.3c14.5,4.6,24.4,20.4,22.2,35.4c1.1-4.4,6.4-6.1,10.8-7c3.8-0.8,7.8-1.6,11.6-0.8
		s7.5,3.8,7.8,7.7c10.5-6.8,25.3-6.1,35.1,1.7c-29.3,6-59.2,8.8-89.1,8.5c-13.1-0.1-26.4-0.9-39.2,1.7"/>
</g>
<g id="Layer_12">
	<path class="st29" d="M426,749H198c-6.6,0-12-5.4-12-12v-18c0-6.6,5.4-12,12-12h228c6.6,0,12,5.4,12,12v18
		C438,743.6,432.6,749,426,749z"/>
	<path class="st29" d="M327.5,753h-202c-4.1,0-7.5-3.4-7.5-7.5l0,0c0-4.1,3.4-7.5,7.5-7.5h202c4.1,0,7.5,3.4,7.5,7.5l0,0
		C335,749.6,331.6,753,327.5,753z"/>
	<path class="st29" d="M850.5,748h-202c-4.1,0-7.5-3.4-7.5-7.5l0,0c0-4.1,3.4-7.5,7.5-7.5h202c4.1,0,7.5,3.4,7.5,7.5l0,0
		C858,744.6,854.6,748,850.5,748z"/>
	<path class="st29" d="M752.3,746H501.7c-0.4,0-0.7-0.3-0.7-0.7v-37.7c0-0.4,0.3-0.7,0.7-0.7h250.7c0.4,0,0.7,0.3,0.7,0.7v37.7
		C753,745.7,752.7,746,752.3,746z"/>
	<path class="st30" d="M506,743.8c0,0,8.9-24.8,32.7-32.4s46.6,0,46.6,0l54.6,14l37.7,11.9c0,0,38.7,4.3,51.6,4.3l56.5,2.2L882,746
		c0,0-40.7-27-42.7-34.5c0,0-55.6,1.1-84.3-5.4c-28.8-6.5-113.1-38.8-113.1-38.8s-44.6-14-63.5-15.1s-46.6,3.2-46.6,3.2
		s-15.9,3.2-29.8,12.9s-27.8,27-27.8,27s-9.4,14.3-8.2,23.4c1.2,9,1.2,15.5,1.2,15.5L506,743.8z"/>
	<path class="st31" d="M506,744c0,0,9-23,33-30s47,0,47,0l55,13l38,11c0,0,39,4,52,4l57,2l97,2c0,0-41-25-43-32c0,0-56,1-85-5
		s-114-36-114-36s-45-13-64-14s-47,3-47,3s-16,3-30,12s-28,25-28,25s-9.5,13.3-8.2,21.7C467,729,467,735,467,735L506,744z"/>
	<path class="st30" d="M427.6,744.8c0,0-8.9-24.8-32.7-32.4c-23.8-7.5-46.6,0-46.6,0l-54.6,14L256,738.4c0,0-38.7,4.3-51.6,4.3
		l-56.5,2.2L51.7,747c0,0,40.7-27,42.7-34.5c0,0,55.6,1.1,84.3-5.4s113.1-38.8,113.1-38.8s44.6-14,63.5-15.1s46.6,3.2,46.6,3.2
		s15.9,3.2,29.8,12.9s27.8,27,27.8,27s9.4,14.3,8.2,23.4c-1.2,9-1.2,15.5-1.2,15.5L427.6,744.8z"/>
	<path class="st31" d="M427.7,746c0,0-9-23-33-30s-47,0-47,0l-55,13l-38,11c0,0-39,4-52,4l-57,2l-97,2c0,0,41-25,43-32
		c0,0,56,1,85-5s114-36,114-36s45-13,64-14s47,3,47,3s16,3,30,12s28,25,28,25s9.5,13.3,8.2,21.7c-1.2,8.3-1.2,14.3-1.2,14.3
		L427.7,746z"/>
	<g>
		<g>
			<path class="st32" d="M480.7,739.9c18.8-40.5,63.2-60.7,106.2-60.9c25.1-0.1,49.8,5.6,73.2,14.2c23.6,8.7,46,20.2,69.6,29
				c25.9,9.6,53.4,15.6,80.9,11.3c3.8-0.6,2.2-6.4-1.6-5.8c-53.3,8.4-101.2-23.4-149.1-40.9c-44-16-95-21.1-137.6,1.9
				c-20.1,10.8-37.1,27.4-46.7,48.2C474,740.4,479.1,743.4,480.7,739.9L480.7,739.9z"/>
		</g>
	</g>
	<g>
		<g>
			<path class="st32" d="M491.8,738.2c-0.2,0.1-0.4,0.2-0.5,0.3c1,0,2,0,3,0c-0.2-0.1-0.4-0.2-0.5-0.3c0.4,1.4,0.7,2.7,1.1,4.1
				c3.4-6.7,9-12.4,14.2-17.8c5.3-5.5,11-10.5,18.1-13.5c3.5-1.5,2-7.3-1.6-5.8c-7.6,3.2-13.9,8-19.7,13.9
				c-5.9,6-12.4,12.6-16.3,20.2c-0.7,1.4-0.4,3.2,1.1,4.1c1.5,0.9,2.6,0.8,4.1,0C498.2,741.5,495.1,736.3,491.8,738.2L491.8,738.2z"
				/>
		</g>
	</g>
	<g>
		<g>
			<path class="st32" d="M838.4,733.2c7-0.7,13.9-2.1,20.6-4.2c3.7-1.1,2.1-6.9-1.6-5.8c-6.2,1.9-12.6,3.3-19,4
				C834.6,727.6,834.6,733.6,838.4,733.2L838.4,733.2z"/>
		</g>
	</g>
	<g>
		<g>
			<path class="st32" d="M449,697.2c9.7,9,13.2,22,14,34.8c0.3,3.8,6.3,3.9,6,0c-1-14.4-4.9-28.9-15.8-39
				C450.5,690.4,446.2,694.6,449,697.2L449,697.2z"/>
		</g>
	</g>
	<g>
		<g>
			<path class="st32" d="M467,753.9c-16.5-40.2-57.2-64-99-69.3c-26-3.3-52.5-0.3-77.7,6.3c-25.4,6.6-49.6,17.1-74.5,25.3
				c-28.5,9.4-59,16-88.9,9.8c-3.8-0.8-5.4,5-1.6,5.8c50.7,10.6,98.3-13,145.2-28.6c46.2-15.4,99.3-22,143.8,2.2
				c20.5,11.2,38.1,28.4,47.1,50.2C462.6,759.1,468.4,757.5,467,753.9L467,753.9z"/>
		</g>
	</g>
	<g>
		<g>
			<path class="st32" d="M99.6,726.2c-6.4-0.7-12.6-2-18.8-4c-3.7-1.2-5.3,4.6-1.6,5.8c6.7,2.1,13.4,3.5,20.4,4.2
				C103.4,732.6,103.4,726.6,99.6,726.2L99.6,726.2z"/>
		</g>
	</g>
	<g>
		<g>
			<path class="st32" d="M322.6,672.4c37.9-11.8,80.9-6.7,114.2,15.1c3.2,2.1,6.2-3.1,3-5.2c-34.6-22.6-79.5-27.9-118.8-15.7
				C317.4,667.7,318.9,673.5,322.6,672.4L322.6,672.4z"/>
		</g>
	</g>
</g>
<g id="Layer_10">
	<path class="st33" d="M427,751c0,0,36.9-29.5,81,0"/>
	<polyline class="st33" points="50,751 427,750 439,757 494,757 508,750 885,749 	"/>
</g>
</svg>
