<?xml version="1.0" encoding="utf-8"?>
<!-- Generator: Adobe Illustrator 21.0.0, SVG Export Plug-In . SVG Version: 6.00 Build 0)  -->
<svg version="1.1" xmlns="http://www.w3.org/2000/svg" xmlns:xlink="http://www.w3.org/1999/xlink" x="0px" y="0px"
	 viewBox="0 0 540 730" style="enable-background:new 0 0 540 730;" xml:space="preserve">
<style type="text/css">
	.st0{fill:none;stroke:#000000;stroke-miterlimit:10;}
	.st1{fill:none;stroke:#000000;stroke-width:0.75;stroke-miterlimit:10;}
	.st2{fill:#FDE7CC;}
	.st3{fill:none;stroke:#000000;stroke-width:0.5;stroke-miterlimit:10;}
	.st4{fill:#231F20;}
	.st5{fill:#A4DDED;}
	.st6{fill:#F8A080;}
	.st7{fill:#231F20;stroke:#000000;stroke-miterlimit:10;}
	.st8{fill:#FFFFFF;}
	.st9{fill:#BB6D29;}
	.st10{stroke:#000000;stroke-miterlimit:10;}
	.st11{fill:none;stroke:#000000;stroke-width:2;stroke-miterlimit:10;}
	.st12{fill:#A1B3AF;}
	.st13{fill:#F4CABC;}
	.st14{fill:#E2B890;}
	.st15{fill:#694227;}
</style>
<g id="Layer_3_copy_2">
	<g>
		<g>
			<path d="M93.5,290.7c-5.5,5.4-9.6,12.1-11.4,19.7c-1.4,5.7-2.1,13,1.6,18c3.5,4.8,9.5,4.8,14.8,3.7c8.2-1.6,15.8-5.2,22.6-10
				c1.6-1.1,0.1-3.7-1.5-2.6c-6.7,4.8-27.8,17-34,6.2c-2.8-4.9-1.5-11.8,0-16.9c1.9-6.2,5.4-11.6,10-16.1
				C97,291.5,94.9,289.4,93.5,290.7L93.5,290.7z"/>
		</g>
	</g>
	<g>
		<g>
			<path d="M240.6,312.9c-3.7,3.3-4.6,8.8-5.9,13.3c-1.3,4.9-2.7,9.8-3.4,14.9c-1.1,8,0.5,15.8,7.6,20.5
				c19.2,12.7,36.2-8.4,42.5-24.6c0.7-1.8-2.2-2.6-2.9-0.8c-5.6,14.4-21.2,35.1-38.6,22.5c-6.7-4.8-6.7-12.5-5.2-19.9
				c0.7-3.7,1.6-7.3,2.6-10.9c1.1-4.2,1.9-9.9,5.4-12.9C244.1,313.7,242,311.6,240.6,312.9L240.6,312.9z"/>
		</g>
	</g>
	<g>
		<g>
			<path d="M109.5,507.2c0,0.3,0,0.5,0,0.8c0,1.2,0.5,2.4,1.3,3.2c0.8,0.8,2.1,1.4,3.2,1.3c1.2-0.1,2.4-0.4,3.2-1.3
				c0.8-0.9,1.3-2,1.3-3.2c0-0.3,0-0.5,0-0.8c0-1.2-0.5-2.4-1.3-3.2c-0.8-0.8-2.1-1.4-3.2-1.3c-1.2,0.1-2.4,0.4-3.2,1.3
				C110,504.9,109.5,506,109.5,507.2L109.5,507.2z"/>
		</g>
	</g>
	<g>
		<g>
			<path d="M87.6,177.7c7.6-3.4,15.1-6.7,22.7-10.1c1.8-0.8,0.2-3.4-1.5-2.6c-7.6,3.4-15.1,6.7-22.7,10.1
				C84.3,175.9,85.8,178.5,87.6,177.7L87.6,177.7z"/>
		</g>
	</g>
	<g>
		<g>
			<path d="M91.1,193.2c7-4,14.2-7.5,21.7-10.5c1.8-0.7,1-3.6-0.8-2.9c-7.7,3-15.2,6.6-22.4,10.8C87.9,191.6,89.4,194.2,91.1,193.2
				L91.1,193.2z"/>
		</g>
	</g>
	<g>
		<g>
			<path d="M317.5,166.1c12.8-1.3,25.5-0.4,38,3c1.9,0.5,2.7-2.4,0.8-2.9c-12.7-3.4-25.7-4.5-38.8-3.1
				C315.6,163.3,315.6,166.3,317.5,166.1L317.5,166.1z"/>
		</g>
	</g>
	<g>
		<g>
			<path d="M317.7,176c11.9,2.4,23.4,5.9,34.5,10.8c1.8,0.8,3.3-1.8,1.5-2.6c-11.4-5-23.1-8.7-35.3-11.1
				C316.6,172.7,315.8,175.6,317.7,176L317.7,176z"/>
		</g>
	</g>
	<g>
		<g>
			<path d="M245.1,70.7c-0.2,8.2,2.4,18,10.9,21.3c3,1.2,6.9,1,9.6-1c3.2-2.4,2.6-7.3,1.4-10.6c-2.2-6.5-10.5-18.3-18.7-14
				c-6.1,3.2-4.9,13.3-0.7,17.7c1.3,1.4,3.5-0.7,2.1-2.1c-2.7-2.8-4.4-12.2,0.9-13.3c6.4-1.3,12.7,8.9,14,14c1,4.2-2.1,7.8-6.5,6.9
				c-2.4-0.5-4.5-2.2-6-4c-3.4-4.1-4.2-9.6-4.1-14.8C248.2,68.8,245.2,68.8,245.1,70.7L245.1,70.7z"/>
		</g>
	</g>
	<g>
		<g>
			<path d="M165,82.7c-2.4,5.7,0.9,12.8,7.6,12.2c8.8-0.8,15.2-11.6,17.8-19.1c2.5-7.2-1.4-12.5-9.2-10.2
				c-8.1,2.4-15.8,8.5-16.3,17.5c-0.1,1.9,2.9,1.9,3,0c0.3-5.6,4.2-9.8,8.9-12.4c2.2-1.2,10.4-5.3,11.5,0.1c0.4,1.8-1,4.6-1.7,6.1
				c-2,4.8-5.2,9.9-9.5,12.9c-2.7,1.9-7.1,3.5-9.3-0.1c-1.1-1.9-0.8-4.3,0-6.3C168.6,81.7,165.7,80.9,165,82.7L165,82.7z"/>
		</g>
	</g>
	<g>
		<g>
			<path d="M139.1,168.9c-5.9,7-9.5,15.7-11.1,24.7c-0.9,5.2-3,17.8,4.9,18.9c8,1.1,9.6-11.3,10.2-16.5c0.6-5.8,0.3-11.6-0.2-17.4
				c-0.3-2.8,0.2-8.3-1.8-10.6c-0.2-0.2-0.5-0.3-0.7-0.2c-0.1,0-0.3,0.1-0.4,0.1c-0.3,0.1-0.6,0.4-0.6,0.7c0,0.1,0,0.3,0,0.4
				c0,1,1.5,1,1.5,0c0.1,3.2,0.2,6.3,0.5,9.5c0.3,3.4,0.6,6.7,0.6,10.1c0,3.6-0.2,7.1-0.8,10.7c-0.3,1.5-0.5,3-1,4.4
				c-1.2,3.6-5,12.1-10.8,3.4c-2.9-4.4,0.2-14.7,1.6-19.4c1.9-6.5,4.9-12.6,9.2-17.8C140.8,169.3,139.8,168.2,139.1,168.9
				L139.1,168.9z"/>
		</g>
	</g>
	<g>
		<g>
			<path d="M144.4,58.1c-2.4,5.9-7.2,10-13.3,11.7c-2.1,0.6-6,1.4-8.2,0.6c-1.5-0.5-1.5-1.4-2-3c-0.3-0.9-1.6-0.5-1.4,0.4
				c0.2,0.8,0.3,1.6,0.5,2.4c0.5-0.1,1-0.3,1.4-0.4c-2-6.2-3.2-12.6-3.3-19.1c-0.1-3.6,0.4-6.9,0.7-10.5c0.1-0.9,0.2-2.6,0.5-2.7
				c0.5-0.2,3.1,1.3,3.4,1.5c4.9,2.3,9.5,5.3,13.6,8.8c2,1.7,9.7,7.7,8.1,10.2c-0.5,0.8,0.8,1.6,1.3,0.8c0.3-0.5,0.6-0.9,0.9-1.4
				c0.2-0.3,0.1-0.7-0.1-0.9c-7.3-9.4-16.7-16.2-27.7-20.7c-0.4-0.1-0.9,0.2-0.9,0.5c-2.3,11.4-1.6,22.8,1.9,33.9
				c0.3,0.9,1.6,0.5,1.4-0.4c-0.2-0.8-0.3-1.6-0.5-2.4c-0.5,0.1-1,0.3-1.4,0.4c0.4,1.1,0.7,2.2,1.1,3.2c0.1,0.2,0.3,0.5,0.5,0.5
				c10.5,1.8,20.8-2.9,24.8-13C146.2,57.6,144.7,57.2,144.4,58.1z"/>
		</g>
	</g>
	<g>
		<g>
			<path d="M311.9,61c5.3,6.5,20.9,6.9,26.8,1.1c1.8-1.8,1.2-3.7,1.3-6.2c0.1-3,0.3-6,0.5-8.9c0.1-1-1.4-1-1.5,0
				c-0.2,3.7-0.5,7.3-0.5,11c-0.1,9.5-21.2,7.2-25.5,2C312.4,59.2,311.3,60.2,311.9,61L311.9,61z"/>
		</g>
	</g>
	<g>
		<g>
			<path d="M338.5,54.5c0.3,1.8-0.3,3.6-0.5,5.4c-0.1,1,1.4,0.9,1.5,0c0.3-2,0.8-3.8,0.5-5.8C339.7,53.1,338.3,53.5,338.5,54.5
				L338.5,54.5z"/>
		</g>
	</g>
	<g>
		<g>
			<path d="M265.7,152.6c13,8.7,30,4.7,37.8-8.8c0.5-0.8-0.8-1.6-1.3-0.8c-7.4,12.8-23.4,16.4-35.7,8.2
				C265.6,150.7,264.9,152,265.7,152.6L265.7,152.6z"/>
		</g>
	</g>
	<g>
		<g>
			<path d="M131.8,146.6c6.6,13.8,22.1,17.5,36.1,15c0.9-0.2,0.5-1.6-0.4-1.4c-13.4,2.4-28.2-1.1-34.4-14.3
				C132.6,145,131.3,145.8,131.8,146.6L131.8,146.6z"/>
		</g>
	</g>
	<g>
		<g>
			<path d="M377.1,140.5c1,0,1-1.5,0-1.5C376.1,139,376.1,140.5,377.1,140.5L377.1,140.5z"/>
		</g>
	</g>
	<circle class="st0" cx="280.6" cy="123.2" r="25.7"/>
	<circle class="st0" cx="159.2" cy="125.2" r="25.7"/>
	<circle class="st1" cx="146.9" cy="121.1" r="9.3"/>
	<circle class="st1" cx="268.2" cy="119.1" r="9.3"/>
	
		<ellipse transform="matrix(3.659208e-02 -0.9993 0.9993 3.659208e-02 20.0042 287.6825)" class="st1" cx="159.2" cy="133.5" rx="5.1" ry="5.1"/>
	
		<ellipse transform="matrix(3.659208e-02 -0.9993 0.9993 3.659208e-02 138.9716 406.9722)" class="st1" cx="280.6" cy="131.4" rx="5.1" ry="5.1"/>
	
		<ellipse transform="matrix(0.1028 -0.9947 0.9947 0.1028 -349.6067 560.0071)" class="st0" cx="135.6" cy="473.8" rx="109.8" ry="78.7"/>
	<g>
		<path class="st2" d="M456.5,591.1c-10.7,8-20.2,17.1-30,26c-1.7,1.5-3.6,2.3-5.5,3.5c-2.4,1.7-4.4,4.4-6.4,6.6
			c-3.9,4.7-7.4,9.7-10.1,15.2c-0.6,1.1-1.1,2.2-1.6,3.3c-3.9,8.8-5.9,18.3-7.2,27.9c-1.5,11.8,0.2,25,9.3,32.6l-0.9-0.3
			c11.5,13.4,30.9,18,48.4,15.9c17.6-2.1,32.6-9.5,45-21.8l-6.9,6.2l5-3.9l1.9-2.3c16.6-19.7,25.1-42.8,30.9-67.9l-1.2,5.2l1.5-5.4
			c8.9-41.6,9.2-85.9-14.7-121.1v-2.1l4.1-16.5c6.2-42.1,7.5-88.3,0.4-130.2c-7.2-42-23.5-82.9-50.5-115.8
			c-10.6-12.9-22.7-24.5-35.6-35.1c-10.1-8.4-21.5-16.5-34.6-17.8l14.7,1.5c-0.9,0.3-1.9,0.6-2.8,0.9c4.7-0.4,9-3.2,11.3-7.3
			c0.8-1.4,1.4-3.1,1.2-4.7c-0.2-1.5-1-2.8-1.8-4c-2.9-4.6-5.9-9.2-10-12.7c-4.1-3.5-9.7-5.7-15-4.6c2.1-3.2,4.6-6.2,7.3-8.9
			c-2.5-2-6.1-2.4-9.3-1.7c-3.2,0.7-6.1,2.3-8.9,3.9c2.3-9.4,12-14.7,20.8-18.8c-2.5-3-7.1-3-10.9-2.6c-6.2,0.7-12.3,2.2-18.3,4.1
			c-0.6,0.2-1.8,1.5-2.1,2.1c-0.2,0.6-2.6,2.4-2.1,2.1l8.2-6.2c1.8-5.1,4.6-13.1,5.3-18.4c1.6-11.8-2.6-23.8-9.4-33.7
			S360.4,66.7,351,59.4l0.5,1.1c1.6-11.4,3.1-22,2.3-32.4c-0.5-6.3-1.8-12.5-4.3-19c-30.9-1.7-63.1,9-87.9,27.6V32l2.3,2.7
			c-9.7-12.5-25.1-16.8-39.9-11.3c-1.1,0.4-4.6,1.5-3.5,1.5l0.7-2.4c-0.3,0.6-0.6,1.3-1,1.9c0.6-3.8,0.9-8.2-1.9-10.8
			c-2.6-2.4-6.7-2-10.2-1.2c-1,0.2-2.2,0.5-2.8,1.4c-0.6,0.8-0.7,1.9-0.7,2.9c0,2.9,0.4,5.8,1,8.6c-0.1-2.5-0.4-5.1-1.7-7.2
			c-1.3-2.1-3.9-3.6-6.3-2.9c-1.7,0.5-3,2.1-3.8,3.7c-2.1,4.3-1.6,6.8,1.4,10.5l-0.2,0.6c-10.9-1.9-22.7,3-29.1,12l1.4-3.8
			c-16.4-16.2-38-26.9-60.7-30.2l0.3,0.8c-18.3,27.8-18.8,56.1-9.3,83.6l9-0.6c-16.3,5.1-27.6,19.8-36,34.7
			c-5.7,10.2-10.7,21.4-10.8,33.1c-0.1,11.7,5.5,24.2,16.1,29.1l-0.5,1.2c-0.4-0.1,0.2-0.6,0.4-0.3c0.2,0.3-0.1,0.7-0.4,0.9
			c-6.1,5.8-10.3,13.5-12,21.7c-0.5,2.5-0.8,5.3,3.9,7.2c0.2,0.1,0.4,0.1,0.6,0.1c4.8,0.4,8.1-2.9,11-6c-5.4,2.2-9.6,6.9-11.3,12.5
			c-0.6,2.1-0.9,4.4,0.2,6.3c1.4,2.4,4.6,3.2,7.3,2.7c2.7-0.6,0.9,1.4,3.1-0.2l-4.3,7.6l2.5-7.4C63.6,272.6,51,309.6,38.4,346.7
			c-10.1,29.9-20.4,60.1-23.2,91.5s2.5,64.7,21,90.2l-1.5-2.1l4.4,3.6c-6.2,1.5-12.5,3.3-17.8,6.8c-5.3,3.5-9.6,9.1-10.2,15.5
			c-0.3,3,0.3,6.2,2.3,8.4c1.5,1.7,3.6,2.8,5.7,3.6c12.2,4.6,27,1.4,36.2-7.8l0.1-2.8c12.6,21.8,33.6,38.5,57.6,46l-2.9,1.7
			c-7.2,9-10.9,20.8-10.1,32.3c0.1,1.7,0.3,3.5,1.1,5.1c2.8,5.5,10.8,5.3,16.5,3c11.3-4.5,24-24,24-24
			c14.8,13.9,31.3,24.9,50.9,30.2s39.9,7,60.2,7.7c50.8,1.7,123-7.6,166.6-33.8l4.6-3.1L456.5,591.1c26.7-22.6,38.2-41.7,53.4-72
			c4.1-8.2,4.1-10.3,8.2-26.7"/>
	</g>
	<g>
		<path class="st2" d="M313.4,55.3l-0.3,3c0.1,0.4,0.2,0.9,0.2,1.3c-0.4-7.6,2.4-15,6.5-21.2c4.1-6.2,9.4-11.4,14.8-16.6
			c0.5-0.5,2.6-1.2,2.6-1.2c2,11.7,3.4,23.8,2,35.6"/>
	</g>
	<polyline class="st2" points="312.4,60.4 313,61.2 313.7,53.4 	"/>
	<polyline class="st2" points="313.4,55.3 312.4,60.4 312.4,60.4 316.2,63.4 	"/>
	<line class="st0" x1="78" y1="235.3" x2="76.2" y2="235.5"/>
	<g>
		<path class="st2" d="M209.9,166.9c2.9-5.4,6.6-10.3,10.9-14.6c4.8,3.8,9.2,8,13.1,12.7"/>
	</g>
	<g>
		<path class="st2" d="M221.9,140.7l-1.1-0.2c0,3.8,0,7.5,0,11.3"/>
	</g>
	<g>
		<path class="st2" d="M219.9,132.4l-0.4-0.2c-2.3-0.8-4.3-2.3-6.4-3.5c-2.2-1.1-4.8-1.9-7-1c-0.7,0.3-1.3,0.7-1.7,1.3
			c-0.7,1.2-0.4,2.7,0.4,3.8c0.8,1.1,2,1.9,3.1,2.6c3.8,2.5,7.7,5,12.1,6.2l2.1-0.8c-0.2,0.1-0.4,0.1-0.5,0.2
			c3.2-2.7,7.5-4.1,10.1-7.3c0.8-1,1.4-2.1,2-3.2c0.7-1.3,1.3-2.8,0.6-4.1c-0.5-0.8-1.4-1.2-2.4-1.2c-0.9,0-1.8,0.3-2.7,0.6
			c-3.6,1.5-7,3.7-9.7,6.5"/>
	</g>
</g>
<g id="Layer_3">
	<g>
		<g>
			<path d="M93.5,290.7c-5.5,5.4-9.6,12.1-11.4,19.7c-1.4,5.7-2.1,13,1.6,18c3.5,4.8,9.5,4.8,14.8,3.7c8.2-1.6,15.8-5.2,22.6-10
				c1.6-1.1,0.1-3.7-1.5-2.6c-6.7,4.8-27.8,17-34,6.2c-2.8-4.9-1.5-11.8,0-16.9c1.9-6.2,5.4-11.6,10-16.1
				C97,291.5,94.9,289.4,93.5,290.7L93.5,290.7z"/>
		</g>
	</g>
	<g>
		<g>
			<path d="M240.6,312.9c-3.7,3.3-4.6,8.8-5.9,13.3c-1.3,4.9-2.7,9.8-3.4,14.9c-1.1,8,0.5,15.8,7.6,20.5
				c19.2,12.7,36.2-8.4,42.5-24.6c0.7-1.8-2.2-2.6-2.9-0.8c-5.6,14.4-21.2,35.1-38.6,22.5c-6.7-4.8-6.7-12.5-5.2-19.9
				c0.7-3.7,1.6-7.3,2.6-10.9c1.1-4.2,1.9-9.9,5.4-12.9C244.1,313.7,242,311.6,240.6,312.9L240.6,312.9z"/>
		</g>
	</g>
	<g>
		<g>
			<path d="M109.5,507.2c0,0.3,0,0.5,0,0.8c0,1.2,0.5,2.4,1.3,3.2c0.8,0.8,2.1,1.4,3.2,1.3c1.2-0.1,2.4-0.4,3.2-1.3
				c0.8-0.9,1.3-2,1.3-3.2c0-0.3,0-0.5,0-0.8c0-1.2-0.5-2.4-1.3-3.2c-0.8-0.8-2.1-1.4-3.2-1.3c-1.2,0.1-2.4,0.4-3.2,1.3
				C110,504.9,109.5,506,109.5,507.2L109.5,507.2z"/>
		</g>
	</g>
	<g>
		<g>
			<path d="M87.6,177.7c7.6-3.4,15.1-6.7,22.7-10.1c1.8-0.8,0.2-3.4-1.5-2.6c-7.6,3.4-15.1,6.7-22.7,10.1
				C84.3,175.9,85.8,178.5,87.6,177.7L87.6,177.7z"/>
		</g>
	</g>
	<g>
		<g>
			<path d="M317.5,166.1c12.8-1.3,25.5-0.4,38,3c1.9,0.5,2.7-2.4,0.8-2.9c-12.7-3.4-25.7-4.5-38.8-3.1
				C315.6,163.3,315.6,166.3,317.5,166.1L317.5,166.1z"/>
		</g>
	</g>
	<g>
		<g>
			<path d="M317.7,176c11.9,2.4,23.4,5.9,34.5,10.8c1.8,0.8,3.3-1.8,1.5-2.6c-11.4-5-23.1-8.7-35.3-11.1
				C316.6,172.7,315.8,175.6,317.7,176L317.7,176z"/>
		</g>
	</g>
	<g>
		<path class="st4" d="M246.6,70.7c-0.4,9.5,3.5,19,12.3,20.6c1.5,0.3,4.6-0.8,5.9-1.6c0.9-0.6,1.3-1.8,1.5-2.9
			c0.7-5.1-2.4-10-5.6-14c-2.4-2.9-5.5-6-9.2-5.7c-2.5,0.2-4.9,2-5.6,4.4s0.8,10,2.8,11.6L246.6,70.7z"/>
		<g>
			<path d="M245.1,70.7c-0.2,8.2,2.4,18,10.9,21.3c3,1.2,6.9,1,9.6-1c3.2-2.4,2.6-7.3,1.4-10.6c-2.2-6.5-10.5-18.3-18.7-14
				c-6.1,3.2-4.9,13.3-0.7,17.7c1.1,1.2,2.7-0.1,2.5-1.5c-0.7-4.1-1.4-8.2-2.1-12.3c-0.3-1.9-3.2-1.1-2.9,0.8
				c0.7,4.1,1.4,8.2,2.1,12.3c0.8-0.5,1.7-1,2.5-1.5c-2.7-2.8-4.4-12.2,0.9-13.3c6.4-1.3,12.7,8.9,14,14c1,4.2-2.1,7.8-6.5,6.9
				c-2.4-0.5-4.5-2.2-6-4c-3.4-4.1-4.2-9.6-4.1-14.8C248.2,68.8,245.2,68.8,245.1,70.7z"/>
		</g>
	</g>
	<g>
		<path class="st4" d="M166.4,83.1c0,4.6-0.1,11.1,6.2,10.3c2.6-0.3,4.8-1.5,6.7-3.3c4.5-4.2,7.9-9.6,9.9-15.4c1-3,1.5-6.9-3.1-8.2
			c-0.5-0.1-1-0.2-1.5-0.1C175.1,68.1,166.4,74.8,166.4,83.1z"/>
		<g>
			<path d="M164.9,83.1c0,5.6,0.8,12.7,8.1,11.7c8.9-1.2,15.6-12.4,17.8-20.2c2.1-7.5-3.4-11-10.3-8.7
				C172.7,68.4,165.4,74.4,164.9,83.1c-0.1,1.9,2.9,1.9,3,0c0.3-5.6,4.2-9.8,8.9-12.4c2.2-1.2,10.4-5.3,11.5,0.1
				c0.4,1.8-1,4.6-1.7,6.1c-2,4.8-5.2,9.9-9.5,12.9c-2.9,2-7.3,3.5-8.8-0.9c-0.6-1.8-0.4-4-0.4-5.8
				C167.9,81.1,164.9,81.1,164.9,83.1z"/>
		</g>
	</g>
	<g>
		<path class="st5" d="M139.7,169.5c-6.4,7.3-10.1,17.8-11.4,27.4c-0.5,3.5-0.8,7.2,0.3,10.5c0.6,1.7,1.6,3.3,3.2,4
			c2,0.9,4.5,0,6.1-1.5c1.6-1.6,2.4-3.7,3-5.9c3.2-11.2,1.7-23.1,0.2-34.6c0-0.3-0.1-0.7-0.4-0.9c-0.3-0.1-0.7,0.3-0.4,0.5
			L139.7,169.5z"/>
		<g>
			<path d="M139.1,168.9c-5.9,7-9.5,15.7-11.1,24.7c-0.9,5.2-3,17.8,4.9,18.9c8,1.1,9.6-11.3,10.2-16.5c0.6-5.8,0.3-11.6-0.2-17.4
				c-0.3-2.8,0.2-8.3-1.8-10.6c-0.2-0.2-0.5-0.3-0.7-0.2c-0.1,0-0.3,0.1-0.4,0.1c-0.3,0.1-0.6,0.4-0.6,0.7c0.2-0.1,0.1-0.1-0.2,0.1
				c-0.8,0.5,0,1.8,0.8,1.3c0,0,1.2-0.8,0.9-1c-0.5-0.4,0.1,5.7,0.1,5.8c0.2,1.8,0.4,3.7,0.6,5.5c0.7,7.7,0.9,15.9-1.4,23.4
				c-1.2,3.7-5,12.1-10.8,3.4c-1.2-1.8-0.7-4.8-0.7-6.8c0.1-3.7,0.9-7.5,1.8-11c1.9-7.1,5-13.7,9.7-19.4
				C140.8,169.3,139.8,168.2,139.1,168.9z"/>
		</g>
	</g>
	<g>
		<path class="st6" d="M145.1,58.3c-3.5,9.5-14,14.5-23.9,12.5l-1.1-3.2c0.2,0.8,0.3,1.6,0.5,2.4c-3.6-10.7-4.3-22.4-1.9-33.5
			l1.5,0.6c10.2,4.2,19.2,11.1,25.8,19.9L145.1,58.3z"/>
		<g>
			<path d="M144.4,58.1c-2.4,5.9-7.2,10-13.3,11.7c-2.1,0.6-6,1.4-8.2,0.6c-1.5-0.5-1.5-1.4-2-3c-0.3-0.9-1.6-0.5-1.4,0.4
				c0.2,0.8,0.3,1.6,0.5,2.4c0.5-0.1,1-0.3,1.4-0.4c-2-6.2-3.2-12.6-3.3-19.1c-0.1-3.6,0.4-6.9,0.7-10.5c0.1-0.9,0.2-2.6,0.5-2.7
				c0.5-0.2,3.1,1.3,3.4,1.5c4.9,2.3,9.5,5.3,13.6,8.8c2,1.7,9.7,7.7,8.1,10.2c-0.5,0.8,0.8,1.6,1.3,0.8c0.3-0.5,0.6-0.9,0.9-1.4
				c0.2-0.3,0.1-0.7-0.1-0.9c-7.3-9.4-16.7-16.2-27.7-20.7c-0.4-0.1-0.9,0.2-0.9,0.5c-2.3,11.4-1.6,22.8,1.9,33.9
				c0.3,0.9,1.6,0.5,1.4-0.4c-0.2-0.8-0.3-1.6-0.5-2.4c-0.5,0.1-1,0.3-1.4,0.4c0.4,1.1,0.7,2.2,1.1,3.2c0.1,0.2,0.3,0.5,0.5,0.5
				c10.5,1.8,20.8-2.9,24.8-13C146.2,57.6,144.7,57.2,144.4,58.1z"/>
		</g>
	</g>
	<g>
		<g>
			<path d="M338.5,54.5c0.3,1.8-0.3,3.6-0.5,5.4c-0.1,1,1.4,0.9,1.5,0c0.3-2,0.8-3.8,0.5-5.8C339.7,53.1,338.3,53.5,338.5,54.5
				L338.5,54.5z"/>
		</g>
	</g>
	<g>
		<g>
			<path d="M265.5,157c13.2,8.8,30.4,4.8,38.3-8.9c0.7-1.3-1.2-2.4-1.9-1.1c-7.3,12.7-23.1,16.2-35.2,8.1
				C265.4,154.3,264.3,156.2,265.5,157L265.5,157z"/>
		</g>
	</g>
	<g>
		<g>
			<path d="M131.4,146.8c6.6,14,22.4,17.7,36.6,15.2c1.4-0.3,0.8-2.4-0.6-2.2c-13.2,2.3-27.8-1.1-34-14.2
				C132.8,144.4,130.8,145.5,131.4,146.8L131.4,146.8z"/>
		</g>
	</g>
	<g>
		<g>
			<path d="M377.1,140.5c1,0,1-1.5,0-1.5C376.1,139,376.1,140.5,377.1,140.5L377.1,140.5z"/>
		</g>
	</g>
	<circle class="st7" cx="280.6" cy="123.2" r="25.7"/>
	<circle class="st7" cx="159.2" cy="125.2" r="25.7"/>
	<circle class="st8" cx="146.9" cy="121.1" r="9.3"/>
	<circle class="st8" cx="268.2" cy="119.1" r="9.3"/>
	
		<ellipse transform="matrix(3.659208e-02 -0.9993 0.9993 3.659208e-02 20.0042 287.6825)" class="st8" cx="159.2" cy="133.5" rx="5.1" ry="5.1"/>
	
		<ellipse transform="matrix(3.659208e-02 -0.9993 0.9993 3.659208e-02 138.9716 406.9722)" class="st8" cx="280.6" cy="131.4" rx="5.1" ry="5.1"/>
	
		<ellipse transform="matrix(0.1028 -0.9947 0.9947 0.1028 -349.6067 560.0071)" class="st6" cx="135.6" cy="473.8" rx="109.8" ry="78.7"/>
	<g>
		<path class="st6" d="M339.2,56.3c1.3-11.8,0-23.9-2-35.6c0,0-2.1,0.7-2.6,1.2c-5.3,5.1-10.6,10.3-14.8,16.6
			c-4.1,6.2-6.9,13.7-6.5,21.2c-0.1-0.4-0.2-0.9-0.2-1.3l0.3-3l-1,5.2c2.8,4.1,8.4,4.3,13.3,4.5c4.9,0.2,10.3-0.7,13.4-4.5V56.3
			l0.5-9.4"/>
		<g>
			<path d="M339.9,56.3c1.2-12,0-24-2-35.8c-0.1-0.4-0.6-0.6-0.9-0.5c-2.6,0.9-4,2.4-6,4.3c-3.3,3.2-6.5,6.6-9.3,10.3
				c-5.6,7.3-9.3,15.8-9.1,25.1c0.5-0.1,1-0.1,1.5-0.2c-0.2-1.4,0-2.8,0.1-4.2c0.1-0.8-1.3-1-1.5-0.2c-0.8,4.1-2,6.2,2.2,8.6
				c4.9,2.8,13.2,2.8,18.4,1.3c1.9-0.6,5.7-2,6.5-4.1c0.5-1.2,0.1-3,0.1-4.3c0.1-3.2,0.4-6.4,0.5-9.6c0.1-1-1.4-1-1.5,0
				c-0.1,2.6-0.3,5.2-0.4,7.7c-0.1,1.8,0.4,4.5-0.5,5.9c-2.9,5-14.1,4-18.9,3c-2.2-0.5-5.3-1.6-5.8-3.7c-0.3-1.1,0.6-3.2,0.8-4.4
				c-0.5-0.1-1-0.1-1.5-0.2c-0.2,1.7-0.4,2.9-0.1,4.6c0.1,0.8,1.5,0.6,1.5-0.2c-0.3-14.3,8.8-25.5,18.6-34.9
				c0.9-0.9,2.4-3.1,3.7-2.9c0.9-0.6,1.1-0.3,0.5,0.9c0.1,0.6,0.2,1.2,0.3,1.9c0.2,3.7,1.1,7.4,1.4,11c0.6,6.9,0.7,13.8,0,20.7
				C338.3,57.3,339.8,57.3,339.9,56.3L339.9,56.3z"/>
		</g>
	</g>
	<polyline class="st3" points="312.4,60.4 313,61.2 313.7,53.4 	"/>
	<polyline class="st3" points="313.4,55.3 312.4,60.4 312.4,60.4 316.2,63.4 	"/>
	<line class="st0" x1="78" y1="235.3" x2="76.2" y2="235.5"/>
	<g>
		<g>
			<path d="M210.9,165.4c2.9-5.3,6.5-10,10.7-14.4c-0.5,0-1.1,0-1.6,0c4.8,3.8,9.1,8,13.1,12.7c0.9,1.1,2.5-0.5,1.6-1.6
				c-4-4.6-8.3-8.8-13.1-12.7c-0.5-0.4-1.1-0.5-1.6,0c-4.4,4.5-8,9.4-11.1,14.8C208.2,165.6,210.2,166.7,210.9,165.4L210.9,165.4z"
				/>
		</g>
	</g>
	<g>
		<g>
			<path d="M222.2,139.6c-0.4-0.1-0.8-0.2-1.1-0.2c-0.7-0.1-1.4,0.3-1.4,1.1c0,3.8,0,7.5,0,11.3c0,1.4,2.3,1.5,2.3,0
				c0-3.8,0-7.5,0-11.3c-0.5,0.4-0.9,0.7-1.4,1.1c0.4,0.1,0.8,0.2,1.1,0.2C223.1,142,223.7,139.9,222.2,139.6L222.2,139.6z"/>
		</g>
	</g>
	<g>
		<path class="st4" d="M219.9,132.4l-0.4-0.2c-2.3-0.8-4.3-2.3-6.4-3.5c-2.2-1.1-4.8-1.9-7-1c-0.7,0.3-1.3,0.7-1.7,1.3
			c-0.7,1.2-0.4,2.7,0.4,3.8c0.8,1.1,2,1.9,3.1,2.6c3.8,2.5,7.7,5,12.1,6.2l2.1-0.8c-0.2,0.1-0.4,0.1-0.5,0.2
			c3.2-2.7,7.5-4.1,10.1-7.3c0.8-1,1.4-2.1,2-3.2c0.7-1.3,1.3-2.8,0.6-4.1c-0.5-0.8-1.4-1.2-2.4-1.2c-0.9,0-1.8,0.3-2.7,0.6
			c-3.6,1.5-7,3.7-9.7,6.5L219.9,132.4z"/>
		<g>
			<path d="M220.6,131.1c-3.4-1.9-18.8-10.4-18.2,0c0.3,4.3,5.7,6.7,8.9,8.5c3.5,2.1,7,4.3,11,2.9c1.8-0.7,1-3.5-0.8-2.9
				c-0.2,0.1-0.4,0.1-0.5,0.2c0.4,0.9,0.8,1.8,1.2,2.7c3.4-2.6,7.7-4.3,10.5-7.7c1.7-2,4.2-5.7,2.9-8.5c-3.3-6.8-14.4,2.6-17.2,5.3
				c-1.3,1.3,0.3,3,1.8,2.4c0.2-0.1,0.3-0.2,0.5-0.2c1.8-0.8,0.2-3.4-1.5-2.6c-0.2,0.1-0.3,0.2-0.5,0.2c0.6,0.8,1.2,1.6,1.8,2.4
				c1.7-1.7,3.9-4,6.3-4.9c1.8-1.4,3.6-1,5.5,1.1c-0.3,0.6-0.6,1.1-0.9,1.6c-1.7,3.9-7.5,5.9-10.7,8.3c-1.2,0.9-0.6,3.4,1.2,2.7
				c0.2-0.1,0.4-0.1,0.5-0.2c-0.3-1-0.5-1.9-0.8-2.9c-4.1,1.5-9.6-2.9-13-5.3c-0.6-0.5-1.3-0.9-1.9-1.4c1.1-1.3,2.2-2.6,3.3-3.8
				c0.9-0.2,3.3,1.5,4.3,2c1.6,0.9,3.3,1.7,4.9,2.6C220.8,134.7,222.3,132.1,220.6,131.1z"/>
		</g>
	</g>
	<g>
		<path class="st2" d="M397.3,696.2c-18-46.4,27.2-79.4,59.2-105.1"/>
	</g>
	<g>
		<path class="st2" d="M521.2,466.9c-4.1,16.2-8.2,32.6-4.1,49.1c6.2,16.5,14.4,30.9,16.5,47.3c2.1,24.7,0,49.4-6.4,74.1
			c0.4-1.7,0.8-3.4,1.2-5.2c-6.2,26.9-15.1,56.4-37.8,74c2.3-2.1,4.6-4.1,6.9-6.2c-21.6,21.5-65.6,34.3-89.6,9.6"/>
	</g>
	<g>
		<g>
			<path d="M401.1,196.2c77.7,32.9,116,118.2,121.9,198.3c1.6,22.4,0.9,44.9-2.6,67.1c-0.3,1.9,2.6,2.7,2.9,0.8
				c12.6-79.3-6.7-171.5-64.3-230.2c-16.1-16.4-35.2-29.6-56.4-38.6C400.9,192.9,399.3,195.5,401.1,196.2L401.1,196.2z"/>
		</g>
	</g>
	<g>
		<g>
			<path d="M377.4,141c-0.4-2.1-0.4-4.1-0.3-6.2c-0.9,0.3-1.9,0.5-2.8,0.8c0.5,1.1,1,2.3,1.4,3.4c0.6,1.8,3.5,1,2.9-0.8
				c-0.5-1.4-1.1-2.8-1.7-4.1c-0.6-1.4-2.8-0.6-2.8,0.8c0,2.4,0,4.7,0.4,7C374.9,143.6,377.8,142.8,377.4,141L377.4,141z"/>
		</g>
	</g>
	<g>
		<g>
			<path d="M217.7,21.2c4.7,6.5,15.9,1.2,22.2,1.1c1.9,0,1.9-3,0-3c-3.1,0-6,0.6-9,1.2c-2.9,0.5-8.5,2.1-10.6-0.8
				C219.2,18.1,216.6,19.6,217.7,21.2L217.7,21.2z"/>
		</g>
	</g>
	<g>
		<g>
			<path d="M221.9,22.6c-1-4.5-3-10.8-8-12.3c-4.3-1.3-7.4,2.3-9,5.8c-0.8,1.7,1.8,3.3,2.6,1.5c1-2.3,3.1-5.6,6.1-4.2
				c3.5,1.6,4.7,6.7,5.5,10.1C219.4,25.3,222.3,24.5,221.9,22.6L221.9,22.6z"/>
		</g>
	</g>
	<g>
		<g>
			<path d="M401.1,191.6c3.6,1.8,7.2,3.4,11,4.8c0-1,0-1.9,0-2.9c-0.9,0.4-1.8,0.6-2.8,0.9c0.3,1,0.5,1.9,0.8,2.9
				c24-7.4,2-35.4-14.6-36.3c0.4,0.8,0.9,1.5,1.3,2.3c2.1-3.1,4.5-5.9,7.1-8.5c0.7-0.7,0.5-1.9-0.3-2.4c-6.6-3.9-13.6-1.4-19.7,2.2
				c0.7,0.6,1.5,1.1,2.2,1.7c2.8-9.4,11.7-14.2,20.1-17.9c0.9-0.4,0.9-1.7,0.3-2.4c-10.4-10.2-26.9-3.6-35.5,5.7
				c-1.1,1.2,0.4,3.4,1.8,2.4c0.6-0.4,1.2-0.9,1.8-1.3c1.5-1.1,0-3.7-1.5-2.6c-0.6,0.4-1.2,0.9-1.8,1.3c-1.5,1.1-0.2,3.6,1.5,2.6
				c14.5-8.1,16.4-26.4,13.2-41.2c-4.2-19.2-18.6-33.8-34.2-44.8c-1.4-1-3,1.2-1.8,2.4c2.2,2.2,4.6,4,7.4,5.5
				c0.1-0.9,0.2-1.8,0.4-2.7c-5.6,1.8-4-15.4-4-17.8c0.1-5.4,0.1-10.8-0.6-16.2c-1.4-10.2-6.6-18.9-16.8-22.1
				c-2.8-0.9-5.2-0.1-8.1,0.3c-3.5,0.5-7,1.1-10.4,1.6c-7.1,1.2-14.2,2.5-21.1,4.5c-13.9,4-26.6,10.9-36.1,22
				c0.9,0.4,1.7,0.7,2.6,1.1c0-1.5,0-3,0-4.6c-0.9,0.4-1.7,0.7-2.6,1.1c0.7,0.7,1.4,1.5,2.1,2.4c0.8-0.6,1.6-1.2,2.4-1.8
				c-10.6-12.9-28.8-17-44.1-10.6c-1.8,0.7-1,3.6,0.8,2.9c14.4-6.1,31.2-2.3,41.2,9.9c1.1,1.3,3.4-0.4,2.4-1.8c-0.8-1.1-1.6-2-2.5-3
				c-0.9-1-2.6-0.2-2.6,1.1c0,1.5,0,3,0,4.6c0,1.2,1.7,2.1,2.6,1.1c10.5-12,24.4-18.8,39.7-22.5c6.5-1.6,13.1-2.7,19.7-3.8
				c7.3-1.1,13.4-3,19.8,1.7c9.4,7,9.1,20.6,8.9,31c-0.1,5-3,25.3,7.7,21.9c1.2-0.4,1.5-2.1,0.4-2.7c-2.5-1.4-4.7-3-6.8-5
				c-0.6,0.8-1.2,1.6-1.8,2.4c14.1,10,27.4,23.1,32.1,40.3c3.8,14,3,32.6-11.1,40.5c0.5,0.9,1,1.7,1.5,2.6c0.6-0.5,1.2-0.9,1.8-1.3
				c-0.5-0.9-1-1.7-1.5-2.6c-0.6,0.5-1.2,0.9-1.8,1.3c0.6,0.8,1.2,1.6,1.8,2.4c7.4-8,22.1-14.7,31.2-5.7c0.1-0.8,0.2-1.6,0.3-2.4
				c-9.2,4.1-18.4,9.5-21.5,19.7c-0.4,1.3,1.1,2.3,2.2,1.7c5.2-3,11-5.5,16.7-2.2c-0.1-0.8-0.2-1.6-0.3-2.4
				c-2.8,2.9-5.3,5.9-7.5,9.2c-0.7,1,0.3,2.2,1.3,2.3c13.1,0.7,34.2,24.1,13.8,30.4c-1.8,0.6-1.1,3.4,0.8,2.9c1-0.2,1.9-0.5,2.8-0.9
				c1.4-0.5,1.4-2.4,0-2.9c-3.5-1.3-6.9-2.8-10.3-4.5C400.9,188.2,399.4,190.8,401.1,191.6L401.1,191.6z"/>
		</g>
	</g>
</g>
<g id="Layer_3_copy_3">
	<g>
		<g>
			<path d="M93.5,290.7c-5.5,5.4-9.6,12.1-11.4,19.7c-1.4,5.7-2.1,13,1.6,18c3.5,4.8,9.5,4.8,14.8,3.7c8.2-1.6,15.8-5.2,22.6-10
				c1.6-1.1,0.1-3.7-1.5-2.6c-6.7,4.8-27.8,17-34,6.2c-2.8-4.9-1.5-11.8,0-16.9c1.9-6.2,5.4-11.6,10-16.1
				C97,291.5,94.9,289.4,93.5,290.7L93.5,290.7z"/>
		</g>
	</g>
	<g>
		<g>
			<path d="M240.6,312.9c-3.7,3.3-4.6,8.8-5.9,13.3c-1.3,4.9-2.7,9.8-3.4,14.9c-1.1,8,0.5,15.8,7.6,20.5
				c19.2,12.7,36.2-8.4,42.5-24.6c0.7-1.8-2.2-2.6-2.9-0.8c-5.6,14.4-21.2,35.1-38.6,22.5c-6.7-4.8-6.7-12.5-5.2-19.9
				c0.7-3.7,1.6-7.3,2.6-10.9c1.1-4.2,1.9-9.9,5.4-12.9C244.1,313.7,242,311.6,240.6,312.9L240.6,312.9z"/>
		</g>
	</g>
	<g>
		<g>
			<path d="M87.6,177.7c7.6-3.4,15.1-6.7,22.7-10.1c1.8-0.8,0.2-3.4-1.5-2.6c-7.6,3.4-15.1,6.7-22.7,10.1
				C84.3,175.9,85.8,178.5,87.6,177.7L87.6,177.7z"/>
		</g>
	</g>
	<g>
		<g>
			<path d="M317.5,166.1c12.8-1.3,25.5-0.4,38,3c1.9,0.5,2.7-2.4,0.8-2.9c-12.7-3.4-25.7-4.5-38.8-3.1
				C315.6,163.3,315.6,166.3,317.5,166.1L317.5,166.1z"/>
		</g>
	</g>
	<g>
		<g>
			<path d="M317.7,176c11.9,2.4,23.4,5.9,34.5,10.8c1.8,0.8,3.3-1.8,1.5-2.6c-11.4-5-23.1-8.7-35.3-11.1
				C316.6,172.7,315.8,175.6,317.7,176L317.7,176z"/>
		</g>
	</g>
	<g>
		<path class="st5" d="M139.7,169.5c-6.4,7.3-10.1,17.8-11.4,27.4c-0.5,3.5-0.8,7.2,0.3,10.5c0.6,1.7,1.6,3.3,3.2,4
			c2,0.9,4.5,0,6.1-1.5c1.6-1.6,2.4-3.7,3-5.9c3.2-11.2,1.7-23.1,0.2-34.6c0-0.3-0.1-0.7-0.4-0.9c-0.3-0.1-0.7,0.3-0.4,0.5
			L139.7,169.5z"/>
		<g>
			<path d="M139.1,168.9c-5.9,7-9.5,15.7-11.1,24.7c-0.9,5.2-3,17.8,4.9,18.9c8,1.1,9.6-11.3,10.2-16.5c0.6-5.8,0.3-11.6-0.2-17.4
				c-0.3-2.8,0.2-8.3-1.8-10.6c-0.2-0.2-0.5-0.3-0.7-0.2c-0.1,0-0.3,0.1-0.4,0.1c-0.3,0.1-0.6,0.4-0.6,0.7c0.2-0.1,0.1-0.1-0.2,0.1
				c-0.8,0.5,0,1.8,0.8,1.3c0,0,1.2-0.8,0.9-1c-0.5-0.4,0.1,5.7,0.1,5.8c0.2,1.8,0.4,3.7,0.6,5.5c0.7,7.7,0.9,15.9-1.4,23.4
				c-1.2,3.7-5,12.1-10.8,3.4c-1.2-1.8-0.7-4.8-0.7-6.8c0.1-3.7,0.9-7.5,1.8-11c1.9-7.1,5-13.7,9.7-19.4
				C140.8,169.3,139.8,168.2,139.1,168.9z"/>
		</g>
	</g>
	<g>
		<g>
			<path d="M338.5,54.5c0.3,1.8-0.3,3.6-0.5,5.4c-0.1,1,1.4,0.9,1.5,0c0.3-2,0.8-3.8,0.5-5.8C339.7,53.1,338.3,53.5,338.5,54.5
				L338.5,54.5z"/>
		</g>
	</g>
	<polyline class="st3" points="312.4,60.4 313,61.2 313.7,53.4 	"/>
	<polyline class="st3" points="313.4,55.3 312.4,60.4 312.4,60.4 316.2,63.4 	"/>
	<line class="st0" x1="78" y1="235.3" x2="76.2" y2="235.5"/>
	<g>
		<g>
			<path d="M210.9,165.4c2.9-5.3,6.5-10,10.7-14.4c-0.5,0-1.1,0-1.6,0c4.8,3.8,9.1,8,13.1,12.7c0.9,1.1,2.5-0.5,1.6-1.6
				c-4-4.6-8.3-8.8-13.1-12.7c-0.5-0.4-1.1-0.5-1.6,0c-4.4,4.5-8,9.4-11.1,14.8C208.2,165.6,210.2,166.7,210.9,165.4L210.9,165.4z"
				/>
		</g>
	</g>
	<g>
		<g>
			<path d="M222.2,139.6c-0.4-0.1-0.8-0.2-1.1-0.2c-0.7-0.1-1.4,0.3-1.4,1.1c0,3.8,0,7.5,0,11.3c0,1.4,2.3,1.5,2.3,0
				c0-3.8,0-7.5,0-11.3c-0.5,0.4-0.9,0.7-1.4,1.1c0.4,0.1,0.8,0.2,1.1,0.2C223.1,142,223.7,139.9,222.2,139.6L222.2,139.6z"/>
		</g>
	</g>
	<g>
		<path d="M219.9,132.4l-0.4-0.2c-2.3-0.8-4.3-2.3-6.4-3.5c-2.2-1.1-4.8-1.9-7-1c-0.7,0.3-1.3,0.7-1.7,1.3c-0.7,1.2-0.4,2.7,0.4,3.8
			c0.8,1.1,2,1.9,3.1,2.6c3.8,2.5,7.7,5,12.1,6.2l2.1-0.8c-0.2,0.1-0.4,0.1-0.5,0.2c3.2-2.7,7.5-4.1,10.1-7.3c0.8-1,1.4-2.1,2-3.2
			c0.7-1.3,1.3-2.8,0.6-4.1c-0.5-0.8-1.4-1.2-2.4-1.2c-0.9,0-1.8,0.3-2.7,0.6c-3.6,1.5-7,3.7-9.7,6.5L219.9,132.4z"/>
		<g>
			<path d="M220.6,131.1c-3.4-1.9-18.8-10.4-18.2,0c0.3,4.3,5.7,6.7,8.9,8.5c3.5,2.1,7,4.3,11,2.9c1.8-0.7,1-3.5-0.8-2.9
				c-0.2,0.1-0.4,0.1-0.5,0.2c0.4,0.9,0.8,1.8,1.2,2.7c3.4-2.6,7.7-4.3,10.5-7.7c1.7-2,4.2-5.7,2.9-8.5c-3.3-6.8-14.4,2.6-17.2,5.3
				c-1.3,1.3,0.3,3,1.8,2.4c0.2-0.1,0.3-0.2,0.5-0.2c1.8-0.8,0.2-3.4-1.5-2.6c-0.2,0.1-0.3,0.2-0.5,0.2c0.6,0.8,1.2,1.6,1.8,2.4
				c1.7-1.7,3.9-4,6.3-4.9c1.8-1.4,3.6-1,5.5,1.1c-0.3,0.6-0.6,1.1-0.9,1.6c-1.7,3.9-7.5,5.9-10.7,8.3c-1.2,0.9-0.6,3.4,1.2,2.7
				c0.2-0.1,0.4-0.1,0.5-0.2c-0.3-1-0.5-1.9-0.8-2.9c-4.1,1.5-9.6-2.9-13-5.3c-0.6-0.5-1.3-0.9-1.9-1.4c1.1-1.3,2.2-2.6,3.3-3.8
				c0.9-0.2,3.3,1.5,4.3,2c1.6,0.9,3.3,1.7,4.9,2.6C220.8,134.7,222.3,132.1,220.6,131.1z"/>
		</g>
	</g>
	<g>
		<path class="st9" d="M533.5,568.3c-1-21.2-13.4-39.4-17.2-59.9l-1.3-2.5c-3.4,17.9-12.2,33.5-22.8,48c-0.6,1.2-1.4,2.3-2.1,3.4
			c-3,7.9-7.1,15.1-12.8,19.5c-4.8,7.3-11.8,14.2-19.7,19.5c-4.8,5.7-10.3,10.7-16.2,13c-7.8,6.8-15.6,13.5-24.1,19.5
			c-2.3,1.6-4.6,3.2-6.9,4.7c-14.4,19.7-25.1,48.9-9.8,68.2c0,0,0,0,0,0c1.3,1.6,2.7,3.1,4.3,4.5c-0.5-0.3-1.1-0.6-1.6-0.9
			c0.1,0.1,0.1,0.1,0.2,0.2c10.3,8.7,21.4,16.4,35.4,18.2c22.5,2,41-10.2,58.4-23.5c16.8-16.8,24.5-40.7,30-63.6
			C533.4,614.8,534.6,590.9,533.5,568.3z"/>
		<g>
			<path d="M535,568.3c-0.7-12.1-4.8-23.3-9.1-34.6c-2.2-5.8-4.5-11.6-6.2-17.5c-1.1-3.8-1.6-7.6-3.4-11.1c-0.6-1.1-2.5-0.9-2.7,0.4
				c-1.8,9.2-5,18-9.3,26.4c-4,7.7-9.1,14.6-13.7,21.8c-2.1,3.3-3.3,6.9-5.2,10.4c-2.2,4.1-4.9,7.4-8.1,10.7
				c-2.8,2.8-4.9,6.2-7.6,9.1c-3.5,3.8-7.4,7.2-11.6,10.2c-2.8,2.1-4.9,5-7.5,7.3c-3.4,3.1-7.4,4.8-11,7.4
				c-7.9,5.9-15,12.9-23.1,18.7c-2.6,1.9-5.8,3.4-7.8,5.9c-2.7,3.2-4.9,7.2-6.9,10.9c-3.6,6.6-6.6,13.7-8.4,21
				c-3.8,15.3-1.5,31.1,10.5,42.1c0.6-0.8,1.2-1.6,1.8-2.4c-0.5-0.3-1.1-0.6-1.6-0.9c-1.2-0.7-3,0.8-2.1,2.1
				c1.5,2.1,4.3,3.7,6.4,5.3c3.4,2.6,6.9,5,10.6,7.1c6.4,3.5,13.4,6.1,20.7,6.8c15.7,1.3,30.7-5,43.7-13.3
				c6.7-4.3,13.6-8.8,18.8-14.9c5.2-6,9.4-12.7,12.9-19.8c7.1-14.4,11.3-30.1,15-45.6C535.1,611,536,589.5,535,568.3
				c-0.1-1.9-3.1-1.9-3,0c1.4,32.5-2.7,64.7-14.1,95.2c-5.3,14.1-12.9,29.2-25.2,38.4c-11.6,8.6-24.3,16.8-38.7,19.6
				c-9.2,1.8-18.4,1-27-2.5c-3.9-1.6-7.6-3.6-11.1-5.9c-3.5-2.3-8.8-5-11.1-8.4c-0.7,0.7-1.4,1.4-2.1,2.1c0.5,0.3,1.1,0.6,1.6,0.9
				c1.4,0.8,3.1-1.2,1.8-2.4c-12.3-11.3-13.4-27.6-8.7-42.8c2.3-7.7,5.9-15.1,10.2-21.9c2.2-3.5,4.3-6.1,7.8-8.5
				c3.5-2.4,7-5,10.3-7.6c3.4-2.6,6.6-5.3,9.9-8.1c3.8-3.3,7.7-5.8,11.9-8.6c2.8-1.9,5.4-4.2,7.7-6.6c3.2-3.3,6.6-5.9,10.1-8.9
				c6.1-5.2,10.8-11.6,16.3-17.4c5.3-5.6,7.4-12.7,11.3-19.1c4.9-8,10.5-15.4,14.8-23.9c4.1-8.1,7.1-16.7,8.9-25.6
				c-0.9,0.1-1.8,0.2-2.7,0.4c1.9,3.7,2.4,8,3.6,12c1.6,5.4,3.7,10.7,5.7,15.9c4.2,10.9,8.3,21.9,9,33.8
				C532.1,570.2,535.1,570.2,535,568.3z"/>
		</g>
	</g>
	<g>
		<path class="st9" d="M497.1,700.5c-2.2,1.9-4.3,3.8-6.5,5.8C492.9,704.5,495.1,702.5,497.1,700.5z"/>
		<g>
			<path d="M496,699.5c-2.2,1.9-4.3,3.8-6.5,5.8c-1.5,1.3,0.6,3.3,2.1,2.1c2.3-1.8,4.4-3.7,6.5-5.8
				C499.5,700.2,497.4,698.1,496,699.5c-2.1,2-4.2,4-6.5,5.8c0.7,0.7,1.4,1.4,2.1,2.1c2.2-1.9,4.3-3.8,6.5-5.8
				C499.6,700.3,497.5,698.2,496,699.5z"/>
		</g>
	</g>
	<g>
		<g>
			<path d="M401.1,196.2c77.7,32.9,116,118.2,121.9,198.3c1.6,22.4,0.9,44.9-2.6,67.1c-0.3,1.9,2.6,2.7,2.9,0.8
				c12.6-79.3-6.7-171.5-64.3-230.2c-16.1-16.4-35.2-29.6-56.4-38.6C400.9,192.9,399.3,195.5,401.1,196.2L401.1,196.2z"/>
		</g>
	</g>
	<g>
		<g>
			<path d="M377.4,141c-0.4-2.1-0.4-4.1-0.3-6.2c-0.9,0.3-1.9,0.5-2.8,0.8c0.5,1.1,1,2.3,1.4,3.4c0.6,1.8,3.5,1,2.9-0.8
				c-0.5-1.4-1.1-2.8-1.7-4.1c-0.6-1.4-2.8-0.6-2.8,0.8c0,2.4,0,4.7,0.4,7C374.9,143.6,377.8,142.8,377.4,141L377.4,141z"/>
		</g>
	</g>
	<g>
		<path class="st9" d="M202.2,103.2c-13,12.7-34.6,17-50.6,24.7c-8.5,4.1-16.6,6.5-17.2,16.9c-0.6,9.4-3.4,17.8-9.7,25
			c-11.1,12.9-32,22.4-49.1,18.6l-4-2c-10.4-15.9-12.6-40.9-4.9-58.1c7.5-16.8,21.9-31,39.7-36.4c-3.2,0.7-6.4,1.7-9.5,2.9
			c3.2-0.9,6.4-1.8,9.5-2.9c-11.5,3-15.8-10.9-16.7-19.6C88.5,60.4,88.9,0,112.3,9.9c-2.2,0.8-4.4,0.1-5.8-1.7
			c10.8,2.1,71.9,15.4,59.3,34c6-8.9,16.7-14.1,27.4-12.2c8.8,1.5,13.7,10.3,16.9,18C217.4,65.3,216.3,89.4,202.2,103.2z"/>
	</g>
	<g>
		<g>
			<path d="M217.7,21.2c4.7,6.5,15.9,1.2,22.2,1.1c1.9,0,1.9-3,0-3c-3.1,0-6,0.6-9,1.2c-2.9,0.5-8.5,2.1-10.6-0.8
				C219.2,18.1,216.6,19.6,217.7,21.2L217.7,21.2z"/>
		</g>
	</g>
	<g>
		<g>
			<path d="M221.9,22.6c-1-4.5-3-10.8-8-12.3c-4.3-1.3-7.4,2.3-9,5.8c-0.8,1.7,1.8,3.3,2.6,1.5c1-2.3,3.1-5.6,6.1-4.2
				c3.5,1.6,4.7,6.7,5.5,10.1C219.4,25.3,222.3,24.5,221.9,22.6L221.9,22.6z"/>
		</g>
	</g>
	<g>
		<path class="st9" d="M246.4,22.3c6.8,2,13,5.8,17.4,11.1c-0.6-1-1.5-1.7-2.3-2.5c0,1.4,0,2.9,0,4.3c7.3-10.5,20.3-15.7,32.3-20.1
			c15.5-5.6,41.5-13.6,53.4,2.4c6.1,8.3,5,19.5,4.6,29.1c-0.2,3.6-1.2,17.4,6.3,15.1c-2.6-1.3-5-3-7.1-5
			c14.9,9.9,28.7,23.3,33.2,40.5c3.4,13.3,2.2,31.5-12.2,38.6c0.6-0.4,1.2-0.9,1.8-1.3c-0.6,0.4-1.2,0.9-1.8,1.3
			c2.3-2.4,5-4.4,8-6.1l-2.7,3c-0.5-1.6-2.5-0.2-2.8,2c0.5-2.2-18.6,14.6-33.4,14.9c-29.9,0.7-52.9-21.4-73.3-39.2
			c-10.6-9.2-23.6-17.5-30.6-29.7c-8-13.8-6.1-30.8-0.8-45.1"/>
	</g>
	<g>
		<g>
			<path d="M377.1,140.5c1,0,1-1.5,0-1.5C376.1,139,376.1,140.5,377.1,140.5L377.1,140.5z"/>
		</g>
	</g>
	<circle class="st10" cx="280.6" cy="123.2" r="25.7"/>
	<circle class="st10" cx="159.2" cy="125.2" r="25.7"/>
	<circle class="st8" cx="146.9" cy="121.1" r="9.3"/>
	<circle class="st8" cx="268.2" cy="119.1" r="9.3"/>
	
		<ellipse transform="matrix(3.659208e-02 -0.9993 0.9993 3.659208e-02 20.0042 287.6825)" class="st8" cx="159.2" cy="133.5" rx="5.1" ry="5.1"/>
	
		<ellipse transform="matrix(3.659208e-02 -0.9993 0.9993 3.659208e-02 138.9716 406.9722)" class="st8" cx="280.6" cy="131.4" rx="5.1" ry="5.1"/>
	<g>
		<g>
			<path d="M109.5,507.2c0,0.3,0,0.5,0,0.8c0,1.2,0.5,2.4,1.3,3.2c0.8,0.8,2.1,1.4,3.2,1.3c1.2-0.1,2.4-0.4,3.2-1.3
				c0.8-0.9,1.3-2,1.3-3.2c0-0.3,0-0.5,0-0.8c0-1.2-0.5-2.4-1.3-3.2c-0.8-0.8-2.1-1.4-3.2-1.3c-1.2,0.1-2.4,0.4-3.2,1.3
				C110,504.9,109.5,506,109.5,507.2L109.5,507.2z"/>
		</g>
	</g>
	<g>
		<path class="st4" d="M246.6,70.7c-0.4,9.5,3.5,19,12.3,20.6c1.5,0.3,4.6-0.8,5.9-1.6c0.9-0.6,1.3-1.8,1.5-2.9
			c0.7-5.1-2.4-10-5.6-14c-2.4-2.9-5.5-6-9.2-5.7c-2.5,0.2-4.9,2-5.6,4.4s0.8,10,2.8,11.6L246.6,70.7z"/>
		<g>
			<path d="M245.1,70.7c-0.2,8.2,2.4,18,10.9,21.3c3,1.2,6.9,1,9.6-1c3.2-2.4,2.6-7.3,1.4-10.6c-2.2-6.5-10.5-18.3-18.7-14
				c-6.1,3.2-4.9,13.3-0.7,17.7c1.1,1.2,2.7-0.1,2.5-1.5c-0.7-4.1-1.4-8.2-2.1-12.3c-0.3-1.9-3.2-1.1-2.9,0.8
				c0.7,4.1,1.4,8.2,2.1,12.3c0.8-0.5,1.7-1,2.5-1.5c-2.7-2.8-4.4-12.2,0.9-13.3c6.4-1.3,12.7,8.9,14,14c1,4.2-2.1,7.8-6.5,6.9
				c-2.4-0.5-4.5-2.2-6-4c-3.4-4.1-4.2-9.6-4.1-14.8C248.2,68.8,245.2,68.8,245.1,70.7z"/>
		</g>
	</g>
	<g>
		<path d="M166.4,83.1c0,4.6-0.1,11.1,6.2,10.3c2.6-0.3,4.8-1.5,6.7-3.3c4.5-4.2,7.9-9.6,9.9-15.4c1-3,1.5-6.9-3.1-8.2
			c-0.5-0.1-1-0.2-1.5-0.1C175.1,68.1,166.4,74.8,166.4,83.1z"/>
		<g>
			<path d="M164.9,83.1c0,5.6,0.8,12.7,8.1,11.7c8.9-1.2,15.6-12.4,17.8-20.2c2.1-7.5-3.4-11-10.3-8.7
				C172.7,68.4,165.4,74.4,164.9,83.1c-0.1,1.9,2.9,1.9,3,0c0.3-5.6,4.2-9.8,8.9-12.4c2.2-1.2,10.4-5.3,11.5,0.1
				c0.4,1.8-1,4.6-1.7,6.1c-2,4.8-5.2,9.9-9.5,12.9c-2.9,2-7.3,3.5-8.8-0.9c-0.6-1.8-0.4-4-0.4-5.8
				C167.9,81.1,164.9,81.1,164.9,83.1z"/>
		</g>
	</g>
	<g>
		<path class="st6" d="M145.1,58.3c-3.5,9.5-14,14.5-23.9,12.5l-1.1-3.2c0.2,0.8,0.3,1.6,0.5,2.4c-3.6-10.7-4.3-22.4-1.9-33.5
			l1.5,0.6c10.2,4.2,19.2,11.1,25.8,19.9L145.1,58.3z"/>
		<g>
			<path d="M144.4,58.1c-2.4,5.9-7.2,10-13.3,11.7c-2.1,0.6-6,1.4-8.2,0.6c-1.5-0.5-1.5-1.4-2-3c-0.3-0.9-1.6-0.5-1.4,0.4
				c0.2,0.8,0.3,1.6,0.5,2.4c0.5-0.1,1-0.3,1.4-0.4c-2-6.2-3.2-12.6-3.3-19.1c-0.1-3.6,0.4-6.9,0.7-10.5c0.1-0.9,0.2-2.6,0.5-2.7
				c0.5-0.2,3.1,1.3,3.4,1.5c4.9,2.3,9.5,5.3,13.6,8.8c2,1.7,9.7,7.7,8.1,10.2c-0.5,0.8,0.8,1.6,1.3,0.8c0.3-0.5,0.6-0.9,0.9-1.4
				c0.2-0.3,0.1-0.7-0.1-0.9c-7.3-9.4-16.7-16.2-27.7-20.7c-0.4-0.1-0.9,0.2-0.9,0.5c-2.3,11.4-1.6,22.8,1.9,33.9
				c0.3,0.9,1.6,0.5,1.4-0.4c-0.2-0.8-0.3-1.6-0.5-2.4c-0.5,0.1-1,0.3-1.4,0.4c0.4,1.1,0.7,2.2,1.1,3.2c0.1,0.2,0.3,0.5,0.5,0.5
				c10.5,1.8,20.8-2.9,24.8-13C146.2,57.6,144.7,57.2,144.4,58.1z"/>
		</g>
	</g>
	<g>
		<path class="st6" d="M335.6,64.1c1.2-10.5,0-21.2-1.8-31.6c0,0-1.9,0.6-2.4,1c-4.8,4.6-9.6,9.2-13.3,14.7
			c-3.7,5.5-6.3,12.1-5.9,18.8c-0.1-0.4-0.1-0.8-0.2-1.2l0.3-2.7l-0.9,4.6c2.5,3.6,7.6,3.8,12,4c4.5,0.2,9.3-0.6,12.2-4V64.1
			l0.5-8.3"/>
		<g>
			<path d="M337.1,64.1c1.1-10.7-0.1-21.4-1.9-32c-0.1-0.8-1.1-1.3-1.8-1c-5.9,1.9-11,9-14.7,13.7c-5,6.5-8.2,14-8,22.3
				c1-0.1,2-0.3,2.9-0.4c-0.2-1.2,0-2.3,0.2-3.5c0.2-1.7-2.6-2.1-2.9-0.4c-0.7,3.7-1.9,5.6,1.6,8.1c4.3,3,11.8,3,16.6,2
				c2.3-0.5,6.4-1.7,7.6-4c0.6-1.2,0.4-2.4,0.4-3.8c0.1-3.1,0.3-6.2,0.5-9.3c0.1-1.9-2.9-1.9-3,0c-0.1,2.3-0.3,4.5-0.4,6.8
				c-0.1,2.4,0.5,4.3-1.5,5.7c-3.7,2.7-11.3,2.5-15.6,1.2c-0.7-0.2-3.8-1.4-4-1.8c-0.1-0.2,0.1-0.3,0-1.1c-0.1-1,0.4-2.2,0.6-3.1
				c-1-0.1-2-0.3-2.9-0.4c-0.2,1.6-0.3,2.7,0,4.3c0.3,1.7,3,1.3,2.9-0.4c-0.1-7.2,2.5-13.7,6.6-19.4c1.9-2.6,4-5,6.2-7.2
				c2.1-2.2,4.7-5.5,7.7-6.4c-0.6-0.3-1.2-0.7-1.8-1c1.8,10.3,2.8,20.7,1.8,31.2C333.9,66,336.9,66,337.1,64.1L337.1,64.1z"/>
		</g>
	</g>
	<g>
		<g>
			<path d="M243.9,26.1c1.9,0,1.9-3,0-3C241.9,23.1,241.9,26.1,243.9,26.1L243.9,26.1z"/>
		</g>
	</g>
	<g>
		<g>
			<path d="M240.9,22.6c2.4,0.4,4.7,1.3,6.6,2.8c1.5,1.2,3.6-0.9,2.1-2.1c-2.3-1.9-4.9-3.2-7.9-3.6C239.8,19.5,239,22.3,240.9,22.6
				L240.9,22.6z"/>
		</g>
	</g>
</g>
<g id="Layer_14">
	<g>
		<g>
			<path d="M75,190c1.9,0,1.9-3,0-3C73.1,187,73.1,190,75,190L75,190z"/>
		</g>
	</g>
	<g>
		<g>
			<path d="M75.8,187.2c-3.2-1.6-4.3-2.4-5.9-5.7c-2.3-4.5-4-9.3-5.1-14.2c-2.3-10.2-2.4-21.1,0.3-31.2
				c5.3-19.7,21.9-36.5,41.2-42.6c1.8-0.6,1.1-3.3-0.8-2.9c-3.2,0.7-6.4,1.7-9.5,2.9c-1.8,0.7-1.1,3.4,0.8,2.9
				c3.2-0.9,6.4-1.9,9.5-2.9c1.8-0.6,1.1-3.3-0.8-2.9C86.4,94.6,90,56.6,91,46c0.9-10,3.6-41.3,20.4-34.6c0-1,0-1.9,0-2.9
				c-1.5-0.4-2.9-0.9-4.4-1.3c-0.5,0.8-1,1.7-1.5,2.5c10.4,2,69.7,14.2,58.4,31.8c-1.1,1.7,1.5,3.1,2.6,1.5
				c5.9-8.3,15.5-13,25.7-11.5c1.9,0.3,2.7-2.6,0.8-2.9c-11.7-1.6-22.3,3.4-29.1,12.9c0.9,0.5,1.7,1,2.6,1.5
				c7.7-12.1-10.2-20.6-18.8-24.2c-13.2-5.6-27.4-9.3-41.4-12c-1.4-0.3-2.6,1.4-1.5,2.5c2.1,2.1,4.4,2.7,7.3,2.1
				c1.6-0.4,1.3-2.4,0-2.9C85.6-2.1,85.8,60.9,88,74.9c1.5,9.6,6.7,21.1,18.3,18.6c-0.3-1-0.5-1.9-0.8-2.9c-3.1,1-6.3,2-9.5,2.9
				c0.3,1,0.5,1.9,0.8,2.9c3.1-1.2,6.3-2.1,9.5-2.9c-0.3-1-0.5-1.9-0.8-2.9C84.9,97.2,67.3,115,62,136.1
				c-2.7,10.4-2.5,21.6-0.1,32.1c1.2,5.4,3.1,10.7,5.7,15.5c2,3.7,3.1,4.4,6.7,6.1C76,190.6,77.5,188.1,75.8,187.2L75.8,187.2z"/>
		</g>
	</g>
	<g>
		<g>
			<path d="M245.5,23.8c6.6,2.1,12.2,5.5,16.8,10.7c1.3,1.5,3.3-0.7,2.1-2.1c-0.7-0.9-1.4-1.8-2.3-2.5c-0.9-0.9-2.6-0.2-2.6,1.1
				c0,1.4,0,2.9,0,4.3c0,1.6,2,1.9,2.8,0.8c8.6-11.7,23.5-16.8,36.8-21.2c11.5-3.8,25.7-7.8,37.5-3.1c15.1,6.1,13.6,23,13.1,36.4
				c-0.2,5.6-0.3,17.1,8.3,15.1c1.2-0.3,1.5-2.2,0.4-2.7c-2.5-1.3-4.7-2.8-6.8-4.7c-0.6,0.8-1.2,1.6-1.8,2.4
				c13.9,9.3,27.2,21.6,32.1,38.2c4,13.6,2.7,31.1-11.1,38.4c0.5,0.9,1,1.7,1.5,2.6c0.6-0.4,1.2-0.9,1.8-1.3c-0.5-0.9-1-1.7-1.5-2.6
				c-0.6,0.4-1.2,0.9-1.8,1.3c0.6,0.8,1.2,1.6,1.8,2.4c2.3-2.3,4.9-4.2,7.7-5.8c-0.6-0.8-1.2-1.6-1.8-2.4c-0.9,1-1.8,2-2.7,3
				c0.8,0.1,1.6,0.2,2.4,0.3c-2.2-2.9-4.7-0.3-5.5,2.4c-0.5,1.9,2.3,2.6,2.9,0.8c0-0.6,0-1.1,0-1.7c0.5,0.7,1.6,1.1,2.4,0.3
				c0.9-1,1.8-2,2.7-3c1.1-1.2-0.3-3.2-1.8-2.4c-3.1,1.8-5.7,3.8-8.3,6.3c-1.2,1.2,0.4,3.4,1.8,2.4c0.6-0.4,1.2-0.8,1.8-1.3
				c1.5-1.1,0.1-3.7-1.5-2.6c-0.6,0.4-1.2,0.8-1.8,1.3c-1.5,1.1-0.2,3.5,1.5,2.6c14.1-7.5,16.5-24.8,13.2-39.2
				c-4.3-18.6-18.9-32.3-34.2-42.6c-1.4-1-3.1,1.2-1.8,2.4c2.3,2.1,4.6,3.8,7.4,5.2c0.1-0.9,0.2-1.8,0.4-2.7
				c-5.5,1.2-4.6-9.2-4.5-12.6c0.3-6.5,0.9-13.1-0.2-19.5c-2-12.1-10.9-19.9-22.9-21.3c-12.1-1.4-24.4,2.4-35.7,6.4
				c-12.8,4.5-25.9,9.8-34.2,21.1c0.9,0.3,1.9,0.5,2.8,0.8c0-1.4,0-2.9,0-4.3c-0.9,0.4-1.7,0.7-2.6,1.1c0.8,0.8,1.6,1.6,2.3,2.5
				c0.7-0.7,1.4-1.4,2.1-2.1c-4.9-5.6-11-9.2-18.1-11.4C244.4,20.3,243.6,23.2,245.5,23.8L245.5,23.8z"/>
		</g>
	</g>
</g>
<g id="Layer_3_copy">
	<g>
		<g>
			<path d="M93.5,290.7c-5.5,5.4-9.6,12.1-11.4,19.7c-1.4,5.7-2.1,13,1.6,18c3.5,4.8,9.5,4.8,14.8,3.7c8.2-1.6,15.8-5.2,22.6-10
				c1.6-1.1,0.1-3.7-1.5-2.6c-6.7,4.8-27.8,17-34,6.2c-2.8-4.9-1.5-11.8,0-16.9c1.9-6.2,5.4-11.6,10-16.1
				C97,291.5,94.9,289.4,93.5,290.7L93.5,290.7z"/>
		</g>
	</g>
	<g>
		<g>
			<path d="M240.6,312.9c-3.7,3.3-4.6,8.8-5.9,13.3c-1.3,4.9-2.7,9.8-3.4,14.9c-1.1,8,0.5,15.8,7.6,20.5
				c19.2,12.7,36.2-8.4,42.5-24.6c0.7-1.8-2.2-2.6-2.9-0.8c-5.6,14.4-21.2,35.1-38.6,22.5c-6.7-4.8-6.7-12.5-5.2-19.9
				c0.7-3.7,1.6-7.3,2.6-10.9c1.1-4.2,1.9-9.9,5.4-12.9C244.1,313.7,242,311.6,240.6,312.9L240.6,312.9z"/>
		</g>
	</g>
	<g>
		<g>
			<path d="M109.5,507.2c0,0.3,0,0.5,0,0.8c0,1.2,0.5,2.4,1.3,3.2c0.8,0.8,2.1,1.4,3.2,1.3c1.2-0.1,2.4-0.4,3.2-1.3
				c0.8-0.9,1.3-2,1.3-3.2c0-0.3,0-0.5,0-0.8c0-1.2-0.5-2.4-1.3-3.2c-0.8-0.8-2.1-1.4-3.2-1.3c-1.2,0.1-2.4,0.4-3.2,1.3
				C110,504.9,109.5,506,109.5,507.2L109.5,507.2z"/>
		</g>
	</g>
	<g>
		<g>
			<path d="M82.3,179.5c10.9-2.3,21.7-4.5,32.6-6.8c1.9-0.4,1.1-3.3-0.8-2.9c-10.9,2.3-21.7,4.5-32.6,6.8
				C79.6,177,80.4,179.9,82.3,179.5L82.3,179.5z"/>
		</g>
	</g>
	<g>
		<g>
			<path d="M87,203c9.5-5.5,19.3-10.2,29.5-14.2c1.8-0.7,1-3.6-0.8-2.9c-10.4,4.1-20.5,8.9-30.2,14.5C83.8,201.4,85.3,204,87,203
				L87,203z"/>
		</g>
	</g>
	<g>
		<g>
			<path d="M317.5,166.1c12.8-1.3,25.5-0.4,38,3c1.9,0.5,2.7-2.4,0.8-2.9c-12.7-3.4-25.7-4.5-38.8-3.1
				C315.6,163.3,315.6,166.3,317.5,166.1L317.5,166.1z"/>
		</g>
	</g>
	<g>
		<g>
			<path d="M317.7,176c11.9,2.4,23.4,5.9,34.5,10.8c1.8,0.8,3.3-1.8,1.5-2.6c-11.4-5-23.1-8.7-35.3-11.1
				C316.6,172.7,315.8,175.6,317.7,176L317.7,176z"/>
		</g>
	</g>
	<g>
		<path d="M246.6,70.7c-0.4,9.5,3.5,19,12.3,20.6c1.5,0.3,4.6-0.8,5.9-1.6c0.9-0.6,1.3-1.8,1.5-2.9c0.7-5.1-2.4-10-5.6-14
			c-2.4-2.9-5.5-6-9.2-5.7c-2.5,0.2-4.9,2-5.6,4.4s0.8,10,2.8,11.6"/>
		<g>
			<path d="M245.1,70.7c-0.2,8.2,2.4,18,10.9,21.3c3,1.2,6.9,1,9.6-1c3.2-2.4,2.6-7.3,1.4-10.6c-2.2-6.5-10.5-18.3-18.7-14
				c-6.1,3.2-4.9,13.3-0.7,17.7c1.3,1.4,3.5-0.7,2.1-2.1c-2.7-2.8-4.4-12.2,0.9-13.3c6.4-1.3,12.7,8.9,14,14c1,4.2-2.1,7.8-6.5,6.9
				c-2.4-0.5-4.5-2.2-6-4c-3.4-4.1-4.2-9.6-4.1-14.8C248.2,68.8,245.2,68.8,245.1,70.7L245.1,70.7z"/>
		</g>
	</g>
	<g>
		<g>
			<path d="M165,82.7c-2.4,5.7,0.9,12.8,7.6,12.2c8.8-0.8,15.2-11.6,17.8-19.1c2.5-7.2-1.4-12.5-9.2-10.2
				c-8.1,2.4-15.8,8.5-16.3,17.5c-0.1,1.9,2.9,1.9,3,0c0.3-5.6,4.2-9.8,8.9-12.4c2.2-1.2,10.4-5.3,11.5,0.1c0.4,1.8-1,4.6-1.7,6.1
				c-2,4.8-5.2,9.9-9.5,12.9c-2.7,1.9-7.1,3.5-9.3-0.1c-1.1-1.9-0.8-4.3,0-6.3C168.6,81.7,165.7,80.9,165,82.7L165,82.7z"/>
		</g>
	</g>
	<g>
		<g>
			<path d="M138.9,168.7c-5.9,7.1-9.5,15.8-11.2,24.8c-1,5.5-3,18.2,5.3,19.3c8.3,1.1,10-11.4,10.6-16.9c0.6-5.8,0.3-11.6-0.2-17.4
				c-0.3-2.9,0.2-8.5-1.9-10.8c-0.3-0.3-0.7-0.4-1.1-0.3c-0.1,0-0.3,0.1-0.4,0.1c-0.5,0.1-0.8,0.6-0.8,1.1c0,0.1,0,0.3,0,0.4
				c0.1,1.4,2.3,1.5,2.3,0c-1,0.9-1.3,1.9-1,3.1c0.1,0.9,0.2,1.8,0.3,2.7c0.1,1.2,0.3,2.4,0.4,3.7c0.3,3.4,0.6,6.7,0.6,10.1
				c0,3.5-0.2,7.1-0.8,10.6c-0.3,1.5-0.5,3-1,4.4c-1.2,3.4-4.5,11.4-10.1,3.4c-2.9-4.2,0.3-14.6,1.6-19.2c1.9-6.5,4.8-12.5,9.2-17.7
				C141.4,169.2,139.8,167.6,138.9,168.7L138.9,168.7z"/>
		</g>
	</g>
	<g>
		<g>
			<path d="M143.6,57.9c-2.3,5.7-6.9,9.6-12.8,11.1c-1.9,0.5-5.8,1.4-7.6,0.8c-1.1-0.3-1.2-1.3-1.7-2.8c-0.6-1.8-3.3-1.1-2.9,0.8
				c0.2,0.8,0.3,1.6,0.5,2.4c1-0.3,1.9-0.5,2.9-0.8c-3.4-10.7-4.1-21.7-1.9-32.7c-0.6,0.3-1.2,0.7-1.8,1c10.6,4.3,19.6,11,26.7,20.1
				c-0.1-0.6-0.2-1.2-0.2-1.8c-0.3,0.5-0.6,0.9-0.9,1.4c-1.1,1.6,1.5,3.1,2.6,1.5c0.3-0.5,0.6-0.9,0.9-1.4c0.4-0.6,0.2-1.3-0.2-1.8
				c-7.4-9.5-16.9-16.3-28-20.9c-0.7-0.3-1.7,0.3-1.8,1c-2.3,11.5-1.7,23.1,1.9,34.3c0.6,1.8,3.3,1.1,2.9-0.8
				c-0.2-0.8-0.3-1.6-0.5-2.4c-1,0.3-1.9,0.5-2.9,0.8c0.4,1.1,0.7,2.2,1.1,3.2c0.2,0.5,0.5,1,1,1c10.9,1.9,21.5-3,25.8-13.5
				C147.2,56.9,144.3,56.1,143.6,57.9z"/>
		</g>
	</g>
	<g>
		<g>
			<path d="M338.5,54.5c0.3,1.8-0.3,3.6-0.5,5.4c-0.1,1,1.4,0.9,1.5,0c0.3-2,0.8-3.8,0.5-5.8C339.7,53.1,338.3,53.5,338.5,54.5
				L338.5,54.5z"/>
		</g>
	</g>
	<g>
		<g>
			<path d="M131.4,146.8c6.6,14,22.4,17.7,36.6,15.2c1.4-0.3,0.8-2.4-0.6-2.2c-13.2,2.3-27.8-1.1-34-14.2
				C132.8,144.4,130.8,145.5,131.4,146.8L131.4,146.8z"/>
		</g>
	</g>
	<g>
		<g>
			<path d="M377.1,140.5c1,0,1-1.5,0-1.5C376.1,139,376.1,140.5,377.1,140.5L377.1,140.5z"/>
		</g>
	</g>
	<circle class="st11" cx="280.6" cy="123.2" r="25.7"/>
	<circle class="st11" cx="159.2" cy="125.2" r="25.7"/>
	<circle class="st3" cx="146.9" cy="121.1" r="9.3"/>
	<circle class="st3" cx="268.2" cy="119.1" r="9.3"/>
	
		<ellipse transform="matrix(3.659208e-02 -0.9993 0.9993 3.659208e-02 20.0042 287.6825)" class="st3" cx="159.2" cy="133.5" rx="5.1" ry="5.1"/>
	
		<ellipse transform="matrix(3.659208e-02 -0.9993 0.9993 3.659208e-02 138.9716 406.9722)" class="st3" cx="280.6" cy="131.4" rx="5.1" ry="5.1"/>
	<g>
		<g>
			<path d="M71.6,189c0.9,1,1.9,1.8,3,2.5c0.5,0.4,1.4,0.2,1.8-0.2c0.3-0.4,0.6-0.8,0.7-1.3c0.4-1.7-1.8-2.5-2.7-1.2
				c-5,7-17.3,19.3-11.8,29c3.8,6.7,13.4,0.9,17.1-2.8c1.3-1.3-0.3-3.1-1.8-2.4c-6.2,2.9-13.2,9.1-12.6,16.7c0.6,6.7,7.3,8.9,13,7.3
				c-0.6-0.7-1.1-1.5-1.7-2.2c-1.4,2.5-2.9,5.1-4.3,7.6c0.9,0.4,1.8,0.8,2.7,1.2c0.8-2.5,1.7-4.9,2.5-7.4c0.6-1.8-2.2-2.6-2.9-0.8
				c-14.4,39.7-28.6,79.5-41.2,119.8c-6.4,20.5-12.4,41.2-17.7,62c-4.5,17.8-6.1,36.1-3.7,54.4c2.8,20.9,10.8,40.6,22.7,58
				c0.9-0.5,1.7-1,2.6-1.5c-0.5-0.7-1-1.4-1.5-2.1c-0.8,0.6-1.6,1.2-2.4,1.8c1.5,1.2,2.9,2.4,4.4,3.6c0.2-0.8,0.4-1.7,0.7-2.5
				c-13.5,3.1-40.8,18.9-24.6,34.8c10.9,10.7,38.1,5.9,42.8-9.2c-0.9,0.1-1.8,0.2-2.7,0.4c13.1,22.2,34,38.8,58.5,46.7
				c-0.1-0.9-0.2-1.8-0.4-2.7c-12.8,6-17.7,26.7-11.9,38.9c2.8,5.8,8.3,8.5,14.6,7c12.8-3,21.2-15.6,27.9-25.8
				c-0.8,0.1-1.6,0.2-2.4,0.3c10.6,9.9,23,19.9,36.7,25.3c14.4,5.6,30.7,8.3,45.9,10.5c31.1,4.5,62.7,4.2,93.8-0.2
				c31.7-4.4,63.3-12.7,92.8-25.2c13.5-5.7,25.5-14.3,36.5-23.8c11.9-10.3,23.4-21.7,33.3-33.9c9.8-12.2,20-24.4,26.9-38.5
				c3.3-6.8,5.9-14,7.3-21.4c0.5-2.7,1-4,2.7-6.2c0.6-0.8,1.4-1.4,1.8-2.4c1.2-3.1,0.3-6.9,1.3-10.1c0.6-1.9-2.3-2.6-2.9-0.8
				c-0.7,2.2-0.8,4.3-1.1,6.6c-0.3,2.5-1,4-2.5,6c-0.5,0.7-1,1.2-1.4,2c-1.1,2.6-1.2,6.2-1.9,9c-0.9,3.6-2.1,7.1-3.5,10.6
				c-5.4,13.1-14,24.7-22.8,35.7c-18.1,22.7-39.4,45.6-65,59.8c-13.1,7.3-28,12.1-42.3,16.5c-14.8,4.6-29.8,8.3-45.1,11.1
				c-30.5,5.5-61.8,7.2-92.6,4.3c-17.2-1.6-34.2-4.7-50.9-9.4c-17.3-4.8-31.8-15.2-44.9-27.3c-0.7-0.7-1.8-0.5-2.4,0.3
				c-6.2,9.4-13.5,20.5-24.9,24.1c-6.2,1.9-11-0.9-13.1-6.9c-3.7-10.9,0.3-28.1,11.4-33.2c1.2-0.6,0.8-2.4-0.4-2.7
				c-23.8-7.6-44-23.8-56.7-45.3c-0.7-1.1-2.4-0.9-2.7,0.4c-4.1,13-28.5,16.8-37.8,7.8C1.9,547.5,28.6,534,39.5,531.4
				c1-0.2,1.5-1.8,0.7-2.5c-1.5-1.2-2.9-2.4-4.4-3.6c-1.2-1-3.4,0.3-2.4,1.8c0.5,0.7,1,1.4,1.5,2.1c1.1,1.5,3.7,0.1,2.6-1.5
				c-22.2-32.2-28.6-71.4-19-109.2c10.1-39.7,22.6-78.8,36-117.6c7.5-21.8,15.3-43.5,23.2-65.1c-1-0.3-1.9-0.5-2.9-0.8
				c-0.8,2.5-1.7,4.9-2.5,7.4c-0.6,1.6,1.9,2.6,2.7,1.2c1.4-2.5,2.9-5.1,4.3-7.6c0.6-1.1-0.4-2.6-1.7-2.2c-6.3,1.8-11.2-2.7-8.3-9.2
				c2-4.3,6-7.4,10.2-9.4c-0.6-0.8-1.2-1.6-1.8-2.4c-2,2-4.7,3.9-7.5,4.6c-5.1,1.3-6-3.3-5.2-7.5c1.5-7.6,7.7-13.6,12.1-19.7
				c-0.9-0.4-1.8-0.8-2.7-1.2c0,0,0,0,0,0c0.6-0.1,1.2-0.2,1.8-0.2c-0.9-0.6-1.7-1.3-2.4-2.1C72.4,185.5,70.3,187.6,71.6,189
				L71.6,189z"/>
		</g>
	</g>
	<g>
		<g>
			<path d="M527,631.8c-0.4,1.7-0.8,3.4-1.2,5.2c-0.4,1.9,2.4,2.7,2.9,0.8c7.2-27.3,10.5-56.3,4.3-84.1c-1.6-7.1-3.8-14-6.6-20.7
				c-3.1-7.4-9.1-14.8-9.8-22.9c-0.6-7.8,2.1-16.2,3.3-23.9c1.1-7,2-14,2.8-21c6.5-58.7,0.4-118.7-25.5-172.3
				c-7.4-15.4-16.2-30.6-26.6-44.3c-9.8-12.9-21.3-24.1-33.2-35c-1.4-1.3-3.5,0.8-2.1,2.1c10.3,9.5,20.5,19.3,29.4,30.2
				c9.8,12,18,25.5,25.2,39.2c13.8,25.9,23.1,54,28,82.9c4.9,29,5.3,58.6,2.7,87.9c-1.3,15.2-3.5,30.3-6.3,45.2
				c-1.2,6.4-1.3,12.7,1.8,18.6c3.6,6.7,7.1,13.3,9.7,20.5c11.1,31.3,8.1,65.3-0.2,96.9c1,0.3,1.9,0.5,2.9,0.8
				c0.4-1.7,0.8-3.4,1.2-5.2C530.3,630.8,527.4,630,527,631.8L527,631.8z"/>
		</g>
	</g>
	<g>
		<g>
			<path d="M309.4,60.7c-0.3,1.7-0.5,3-0.3,4.7c0.3,1.7,2.9,1.2,2.9-0.4c0.1-7.9,3.9-14.7,9.2-20.4c3.7-4.1,9.8-10.8,15.3-12.2
				c-0.6-0.3-1.2-0.7-1.8-1c1.6,10.4,2.4,20.8,0.8,31.2c-0.3,1.9,2.6,2.7,2.9,0.8c1.7-11,0.8-21.9-0.8-32.8c-0.1-0.8-1.1-1.2-1.8-1
				c-2.8,0.7-4.6,2.3-6.9,4.1c-3.9,3.1-7.7,6.4-11,10.2c-5.2,6-8.8,13.1-8.9,21.2c1-0.1,2-0.3,2.9-0.4c-0.2-1.1,0.1-2.1,0.3-3.1
				C312.6,59.6,309.7,58.8,309.4,60.7L309.4,60.7z"/>
		</g>
	</g>
	<polyline class="st3" points="312.4,60.4 313,61.2 313.7,53.4 	"/>
	<polyline class="st3" points="313.4,55.3 312.4,60.4 312.4,60.4 316.2,63.4 	"/>
	<line class="st0" x1="78" y1="235.3" x2="76.2" y2="235.5"/>
	<g>
		<g>
			<path d="M516.7,496.5c-1.3,6-1.3,11.9,0.1,17.9c0.4,1.9,3.3,1.1,2.9-0.8c-1.3-5.4-1.3-10.8-0.1-16.3
				C520,495.4,517.1,494.6,516.7,496.5L516.7,496.5z"/>
		</g>
	</g>
	<g>
		<g>
			<path d="M206,16.5c-2.3-3.5-7.1-3.3-10.1-0.7c-4.5,3.9-2.4,10.5,0.1,14.8c0.9,1.7,3.5,0.2,2.6-1.5c-1.6-2.8-3.6-7.3-1.4-10.3
				c1.3-1.8,4.8-3,6.2-0.7C204.4,19.6,207,18.1,206,16.5L206,16.5z"/>
		</g>
	</g>
</g>
</svg>
