<?xml version="1.0" encoding="utf-8"?>
<!-- Generator: Adobe Illustrator 21.0.0, SVG Export Plug-In . SVG Version: 6.00 Build 0)  -->
<svg version="1.1" xmlns="http://www.w3.org/2000/svg" xmlns:xlink="http://www.w3.org/1999/xlink" x="0px" y="0px"
	 viewBox="0 0 936 660" style="enable-background:new 0 0 936 660;" xml:space="preserve">
<style type="text/css">
	.st0{fill:none;stroke:#000000;stroke-miterlimit:10;}
	.st1{fill:none;stroke:#000000;stroke-width:0.75;stroke-miterlimit:10;}
	.st2{fill:#FDE7CC;}
	.st3{fill:none;stroke:#000000;stroke-width:0.5;stroke-miterlimit:10;}
	.st4{fill:#231F20;}
	.st5{fill:#A4DDED;}
	.st6{fill:#F8A080;}
	.st7{fill:#231F20;stroke:#000000;stroke-miterlimit:10;}
	.st8{fill:#FFFFFF;}
	.st9{fill:#BB6D29;}
	.st10{stroke:#000000;stroke-miterlimit:10;}
	.st11{fill:none;stroke:#000000;stroke-width:2;stroke-miterlimit:10;}
	.st12{fill:#A1B3AF;}
	.st13{fill:#F4CABC;}
	.st14{fill:#E2B890;}
	.st15{fill:#694227;}
</style>
<g id="Layer_12">
	<g>
		<g>
			<path d="M224.2,305c15.6-14.4,32.9-29.7,55.4-29.7c1,0,1-1.5,0-1.5c-22.9,0-40.6,15.5-56.5,30.1
				C222.4,304.6,223.5,305.6,224.2,305L224.2,305z"/>
		</g>
	</g>
	<g>
		<g>
			<path d="M220.1,216.1c17.5-2.9,35.5-5.6,52.9-0.4c0.9,0.3,1.3-1.2,0.4-1.4c-17.6-5.3-35.9-2.6-53.7,0.4
				C218.7,214.8,219.1,216.2,220.1,216.1L220.1,216.1z"/>
		</g>
	</g>
	<g>
		<g>
			<path d="M420.2,483c-23.9,4.7-38.8,25-52,43.7c-0.6,0.8,0.7,1.5,1.3,0.8c13-18.4,27.6-38.4,51.1-43
				C421.6,484.2,421.2,482.8,420.2,483L420.2,483z"/>
		</g>
	</g>
	<g>
		<g>
			<path d="M421.9,483.8c-10,11.1-15.9,24.8-17.2,39.6c-0.1,1,1.4,1,1.5,0c1.3-14.4,7.1-27.8,16.8-38.5
				C423.6,484.1,422.5,483,421.9,483.8L421.9,483.8z"/>
		</g>
	</g>
	<g>
		<path class="st12" d="M301.9,592.4c-20.5,6.8-42.9,6.1-63.8,0.6s-40.2-15.7-58.3-27.5c-22.4-14.7-43.2-32.2-59.5-53.5
			C108.8,496.9,99.7,480,91,463c-17.6-34.6-33.7-70.4-41.3-108.5s-6.2-78.9,10.2-114.1l6.1,4.8c0.9-1,1.6-2.1,2.1-3.3
			c-6.7-1.6-13.7-0.2-20.5,0.9c-9.1,1.4-18.3,2.3-27.6,2.7c-4.3,0.2-9,0.1-12.4-2.7c-4.9-4-4.6-11.9-1.5-17.5
			c3.6-6.5,10.2-11.3,17.5-12.6c8.7-1.5,17.5,1.7,25.8,4.8c2.8,1.1,5.6,2.1,8.4,3.2l3.1,2c72.1-90.5,181.4-150.1,296.2-161.8l0-1
			c4.7,1.3,9.5-2.9,10.9-7.6c3.1-10.8-6-21.7-4.9-32.8c0.8-7.8,7.3-14.8,15.1-15.6c7.8-0.8,15.8,5,17,12.8c1.2,8-4,15.2-7.7,22.4
			c-2,3.9-3.6,8-4.7,12.2c-0.4,1.7-0.6,3.8,0.8,4.7c5.1-5.2,13.5-6.8,20.1-3.9c0.5,0.2,1,0.6,0.9,1.1c-0.1,0.5-1.1-0.1-0.6-0.3
			l3.3-2.4c38.3,93.4,64.4,191.8,77.6,292c8.6,65.7,11.4,134.2-11,196.6l0.6-7.9c-24.9,46-70.5,80.1-121.5,91
			c-7.1,1.5-14.4,2.6-21.5,1.4s-14.1-5-17.7-11.2l1.8-0.3c-0.1-0.6,0.8-0.9,1.3-0.4c0.4,0.4,0.4,1.1,0.4,1.7c-1,15.1-6,30.5-17,40.7
			c-3.8,3.5-10.1,6.1-13.6,2.4c-1.9-2.1-2-5.2-1.9-8c0.5-13.9,2.4-27.7,5.8-41.2c-2.9,9.5-5.9,19.2-10.9,27.8
			c-2.5,4.4-5.7,8.6-10.1,11s-10.4,2.5-14.2-0.9c-5.1-4.6-4.1-12.8-1.9-19.2c3.7-11,9.7-21.2,17.3-29.8"/>
	</g>
</g>
<g id="Layer_12_copy">
	<g>
		<g>
			<path d="M224.2,305c15.6-14.4,32.9-29.7,55.4-29.7c1,0,1-1.5,0-1.5c-22.9,0-40.6,15.5-56.5,30.1
				C222.4,304.6,223.5,305.6,224.2,305L224.2,305z"/>
		</g>
	</g>
	<g>
		<g>
			<path d="M220.1,216.1c17.5-2.9,35.5-5.6,52.9-0.4c0.9,0.3,1.3-1.2,0.4-1.4c-17.6-5.3-35.9-2.6-53.7,0.4
				C218.7,214.8,219.1,216.2,220.1,216.1L220.1,216.1z"/>
		</g>
	</g>
	<g>
		<g>
			<path d="M420.2,483c-23.9,4.7-38.8,25-52,43.7c-0.6,0.8,0.7,1.5,1.3,0.8c13-18.4,27.6-38.4,51.1-43
				C421.6,484.2,421.2,482.8,420.2,483L420.2,483z"/>
		</g>
	</g>
	<g>
		<g>
			<path d="M421.9,483.8c-10,11.1-15.9,24.8-17.2,39.6c-0.1,1,1.4,1,1.5,0c1.3-14.4,7.1-27.8,16.8-38.5
				C423.6,484.1,422.5,483,421.9,483.8L421.9,483.8z"/>
		</g>
	</g>
	<g>
		<g>
			<path d="M303.5,589c-32.3,10.3-66.5,2.7-96-12.2c-27.3-13.8-53.1-32.6-73.7-55.3c-22-24.2-36.7-54.3-50.6-83.6
				c-14.1-29.7-26.2-60.8-31.6-93.4c-5.8-35.3-3.6-72.4,11.5-105.2c-0.8,0.1-1.6,0.2-2.4,0.3c2,1.6,4.1,3.2,6.1,4.8
				c0.6,0.5,1.6,0.7,2.1,0c1-1.2,1.7-2.2,2.4-3.6c0.4-0.8,0.1-2-0.9-2.2c-11.1-2.1-22.6,1.4-33.7,2.5c-9.7,1-31.1,5.1-29.2-10.9
				c1.5-12.6,15-19.4,26.6-17.9c5.8,0.7,11.4,2.8,16.9,4.9c3.9,1.5,7.6,2.8,11.1,5c0.5,0.3,1.4,0.3,1.8-0.2
				c56-70,133.9-121.6,220-146.6c24.6-7.1,49.7-12,75.2-14.7c0.8-0.1,1.5-0.6,1.5-1.5c0-0.3,0-0.6,0-1c-0.6,0.5-1.3,1-1.9,1.4
				c9.5,1.7,14.1-8.4,13.3-16.4c-1.2-11.6-10.8-24.4-0.9-34.8c4.8-5,12.2-6.3,18.2-2.5c7.5,4.7,7.6,13.2,4.3,20.6
				c-2.4,5.3-5.7,10.2-7.8,15.6c-1.6,4-4.5,9.5-1.2,13.3c0.6,0.6,1.6,0.5,2.1,0c2.7-2.5,5.8-4.1,9.3-4.6c1.6-0.2,8.5-0.8,9.1,1.2
				c0.2-0.6,0.5-1.1,0.7-1.7c0.3,0,0.6,0,0.8,0c0.2,0.6,0.5,1.1,0.7,1.7c-0.5,0.7-0.4,0.8,0.3,0.4c-0.6-0.3-1.2-0.7-1.8-1
				c24.8,60.7,44.6,123.4,59,187.3c7.2,32.1,13.1,64.6,17.6,97.2c4.4,32,7.5,64.2,7.3,96.6c-0.3,36.2-5.1,72.4-17.3,106.7
				c1,0.1,2,0.3,2.9,0.4c0.2-2.6,0.4-5.3,0.6-7.9c0.1-1.5-2.1-2-2.8-0.8c-15.3,27.9-37.8,51.3-64.9,67.9
				c-13.3,8.1-27.6,14.6-42.5,19c-15.7,4.7-40.1,11.3-50.7-5.8c-0.3,0.7-0.6,1.5-0.9,2.2c1.6-0.2,2.1-0.2,3.1-1.5
				c-0.6,0.2-1.1,0.5-1.7,0.7c1.9,0.3-3.6,19.7-4.3,21.4c-2.8,7.5-7.6,16-14.5,20.4c-1.7,1.1-3.9,2.2-5.9,2
				c-4.4-0.4-4.7-4.4-4.6-7.6c0-4.3,0.4-8.7,0.8-13c0.9-9.6,2.7-19.1,5-28.5c0.5-1.9-2.3-2.6-2.9-0.8c-2.7,8.8-5.5,17.8-9.9,25.9
				c-3.8,7-13.8,19.2-22.8,11.3c-7-6.1-1.6-18.4,1.4-25.1c3.6-8,8.4-15.2,14.1-21.8c1.3-1.4-0.8-3.6-2.1-2.1
				c-7.4,8.5-13.4,18.2-17.2,28.9c-2.6,7.3-4.7,18.3,3.1,23.3c7.8,5.1,16.9,0,21.9-6.4c7.4-9.5,10.9-21.9,14.4-33.3
				c-1-0.3-1.9-0.5-2.9-0.8c-3.3,13.3-5.4,26.9-5.9,40.6c-0.1,3.9-0.1,8.6,3.5,11c3,1.9,6.7,1.2,9.7-0.2
				c8.7-4.1,14.4-14.6,17.7-23.2c1.9-5,3.1-10.3,3.9-15.6c0.4-2.6,2.2-8.8-1.7-9.5c-0.7-0.1-1.3,0.1-1.7,0.7c0,0.1-1.1,0.1-1.3,0.2
				c-1,0.1-1.4,1.5-0.9,2.2c7.1,11.5,20.9,13.6,33.3,11.9c13.5-1.8,26.8-6.1,39.3-11.4c24.3-10.2,46.3-25.7,64.2-45
				c10.3-11.1,19.1-23.4,26.4-36.6c-0.9-0.3-1.9-0.5-2.8-0.8c-0.2,2.6-0.4,5.3-0.6,7.9c-0.1,1.8,2.4,1.9,2.9,0.4
				c21.6-60.8,19.8-126.6,12-189.7c-8.1-65.4-21.8-130.2-40.9-193.3c-10.9-36-23.5-71.5-37.7-106.4c-0.3-0.7-1-1.3-1.8-1
				c-1.2,0.4-2,0.5-2.4,1.7c-0.2,0.6,0.1,1.4,0.7,1.7c0.8,0.4,1.4,0.5,2.2,0c0.5-0.3,0.9-1.1,0.7-1.7c-1.1-3.5-7.1-3.7-10.1-3.6
				c-5.1,0.2-9.7,2.3-13.4,5.7c0.7,0,1.4,0,2.1,0c-2.3-2.6,2.2-11.1,3.3-13.4c1.4-3,3.2-5.9,4.7-8.9c2.5-4.9,4.8-10.3,4-15.9
				c-1.2-8.8-10.2-15.3-18.9-14.2c-9.8,1.1-16.6,10.6-16.2,20.1c0.2,5.6,2.4,10.8,4,16.1c1.9,6.3,3.2,21.8-8,19.8
				c-0.9-0.2-1.9,0.4-1.9,1.4c0,0.3,0,0.6,0,1c0.5-0.5,1-1,1.5-1.5c-89.8,9.2-175.9,47.2-244,106.5c-19.4,16.9-37.3,35.6-53.3,55.7
				c0.6-0.1,1.2-0.2,1.8-0.2c-4.2-2.7-8.8-4.2-13.4-5.9c-6.7-2.5-13.8-4.9-21-4.6c-10.7,0.5-21.5,7.8-24.1,18.5
				c-1,4.2-0.8,8.9,1.8,12.5c3.2,4.4,8.7,5.1,13.8,5.1c7.8-0.1,15.8-0.9,23.5-1.9c8.5-1.1,17-3.4,25.5-1.7c-0.3-0.7-0.6-1.5-0.9-2.2
				c-0.4,1.1-1.1,2.1-1.9,3c0.7,0,1.4,0,2.1,0c-2-1.6-4.1-3.2-6.1-4.8c-0.7-0.5-1.9-0.7-2.4,0.3c-28.1,61.3-12,130.2,14.2,189
				c13.6,30.5,28.5,62.3,49.6,88.4c20.1,24.9,46.5,45,74.3,60.4c31.9,17.6,69.7,27.8,105.5,16.3C306.1,591.3,305.4,588.4,303.5,589
				L303.5,589z"/>
		</g>
	</g>
</g>
<g id="Layer_4_copy">
	<g id="Layer_7_copy">
	</g>
	<g>
		<path class="st13" d="M475.1,73.7c0-0.5,0.7,0.4,0.2,0.5c-0.5,0.1-0.8-0.4-0.9-0.9c-4.8-13.5-16.2-23.6-21.7-36.8l0.7,1.6
			c-6.4,13.3-9.5,28.3-8.7,43.1c8.3-2.6,17-4.2,25.7-4.7c-0.4-0.5-0.8-0.9-1.1-1.4L475.1,73.7z"/>
	</g>
	<g>
		<g>
			<path d="M485,291.6c-7.7,8.1-14.8,16.6-21.2,25.6c-5.4,7.5-12.4,16.3-12.1,26c0.2,7.5,5.2,13.4,12.7,14.4
				c9.8,1.4,18.9-4.4,26.8-9.4c1.6-1,0.1-3.6-1.5-2.6c-7,4.4-14.9,9.7-23.6,9.2c-11.7-0.8-13.2-12.7-9-21.4c7-14.7,19-28,30.1-39.7
				C488.5,292.3,486.4,290.2,485,291.6L485,291.6z"/>
		</g>
	</g>
	<g>
		<g>
			<path d="M838.1,474.7c15-31.7,13-67.2,8.7-101.1c-0.2-1.9-3.2-1.9-3,0c4.2,33.3,6.4,68.4-8.3,99.6
				C834.7,475,837.3,476.5,838.1,474.7L838.1,474.7z"/>
		</g>
	</g>
	<g>
		<g>
			<path d="M335,275.7c1.2-4,2.7-7.9,4.7-11.7c0.8-1.6,1.7-3.1,2.7-4.6c0.6-0.9,2.4-4.6,3.5-4.8c-0.6-0.2-1.1-0.5-1.7-0.7
				c0-0.3,0-0.7,0-1c0.6-0.2,1.1-0.5,1.7-0.7c-0.1,0-0.1,0-0.2,0c-1.9-0.3-2.7,2.6-0.8,2.9c0.1,0,0.1,0,0.2,0
				c0.6,0.1,1.4-0.1,1.7-0.7c0.4-0.8,0.4-1.3,0-2c-0.3-0.6-1-0.8-1.7-0.7c-3,0.5-5.5,6.4-6.9,8.8c-2.6,4.5-4.6,9.4-6.1,14.4
				C331.6,276.8,334.5,277.6,335,275.7L335,275.7z"/>
		</g>
	</g>
	<g>
		<g>
			<path d="M346.1,282.1c4.1-8,8.2-16.1,12.3-24.1c0.9-1.7-1.7-3.2-2.6-1.5c-4.1,8-8.2,16.1-12.3,24.1
				C342.6,282.3,345.2,283.8,346.1,282.1L346.1,282.1z"/>
		</g>
	</g>
	<g>
		<g>
			<path d="M472.4,164.2c11.1-2.3,22-5.1,32.9-8.5c1.8-0.6,1.1-3.5-0.8-2.9c-10.8,3.4-21.8,6.2-32.9,8.5
				C469.7,161.6,470.5,164.5,472.4,164.2L472.4,164.2z"/>
		</g>
	</g>
	<g>
		<g>
			<path d="M477.6,174.7c10.6-2.4,21.2-4.9,31.8-7.3c1.9-0.4,1.1-3.3-0.8-2.9c-10.6,2.4-21.2,4.9-31.8,7.3
				C474.9,172.3,475.7,175.2,477.6,174.7L477.6,174.7z"/>
		</g>
	</g>
	<g>
		<path d="M330.7,140.9c-1.1,6.5-1.8,14.2,3.2,18.5c0.4,0.4,1,0.7,1.5,0.7c0.7,0,1.3-0.5,1.8-0.9c5.7-5.3,7.8-14.2,4.9-21.5
			c-1.1-2.8-3.3-5.6-6.3-5.4c-2.2,0.1-4,2-4.7,4.1c-0.7,2.1-0.7,4.3-0.5,6.5L330.7,140.9z"/>
		<g>
			<path d="M329.3,140.5c-1,6.2-2.3,15.8,3.7,20.1c5.5,3.9,10.1-6.2,11.2-10.3c1.6-5.8,1.1-15.6-5.2-18.8
				c-7.6-3.8-10.1,6.1-9.9,11.4c0.1,1.9,3,1.9,3,0c0-0.7,0-1.3,0-2c0-1.9-3-1.9-3,0c0,0.7,0,1.3,0,2c1,0,2,0,3,0
				c-0.1-2.8,0.2-13.2,7-7.5c1.4,1.2,2.1,3.8,2.4,5.5c0.9,4.1,0.2,8.6-1.7,12.4c-0.6,1.2-2.3,4.8-3.7,4.9c-2.3,0.3-3.9-3.3-4.3-4.8
				c-1-3.9-0.4-8.2,0.2-12C332.5,139.4,329.6,138.6,329.3,140.5z"/>
		</g>
	</g>
	<g>
		<path d="M375.2,116.2c4.3,2.9,9,5.3,13.8,7.1c3.6,1.3,8.3,2,10.7-1c2.6-3.3,0.2-8.2-2.9-10.9c-3-2.6-6.7-4.5-10.5-5.3
			c-2.8-0.6-5.9-0.6-8.5,0.7c-2.6,1.3-4.5,4.1-4.1,7L375.2,116.2z"/>
		<g>
			<path d="M374.4,117.5c5.7,3.8,15.3,10.1,22.6,8.1c6.7-1.8,5.9-9.4,2.3-13.8c-4.6-5.5-14.1-9.5-21.1-6.9c-5.6,2.1-7.1,7.2-4.3,12
				c1,1.7,3.6,0.2,2.6-1.5c-3.5-6,4-9.1,9.4-8c4,0.8,8.2,2.8,10.9,5.9c2.8,3.2,3.4,9.6-2.6,9.5c-1.6,0-3.2-0.5-4.8-1
				c-4.8-1.6-9.3-4.1-13.5-6.9C374.3,113.8,372.8,116.4,374.4,117.5z"/>
		</g>
	</g>
	<g>
		<g>
			<path d="M324.4,231.8c12.3,4.8,26.3,1.7,35.5-7.7c1-1-0.6-2.6-1.6-1.6c-8.7,8.9-21.7,11.7-33.3,7.2
				C323.6,229.1,323,231.3,324.4,231.8L324.4,231.8z"/>
		</g>
	</g>
	<g>
		<g>
			<path d="M435.4,178.1c12.7,0.4,24-8.1,27.2-20.3c0.4-1.4-1.8-2-2.2-0.6c-2.9,11.3-13.4,19.1-25.1,18.7
				C434,175.8,434,178,435.4,178.1L435.4,178.1z"/>
		</g>
	</g>
	<g>
		<g>
			<path d="M427.2,206.9c-5.2-1.8-13.5-4.9-19.1-3.3c0.5,0.3,0.9,0.5,1.4,0.8c-1-3.5-2.8-6.2-5.7-8.5c-1-0.8-2.3,0.2-1.8,1.4
				c0.2,0.5,0.4,0.9,0.6,1.4c0.4,1,1.8,0.5,2.1-0.3c1.6-4.3,2.4-8.7,2.2-13.3c-0.1-2.4-0.1-7.6-2.5-8.9c-4.9-2.7-8.2,10.1-7.8,13.3
				c0.5-0.4,0.9-0.7,1.4-1.1c-5.1-1.6-11.2-0.5-15.3,3c-5.9,5.1,2.6,6.9,6.5,7.4c2.2,0.3,4.4,0.4,6.6,0.3c0.7,0,3.5-0.8,4-0.6
				c1.4,0.5,3.2,3.7,4.2,4.9c0.9,1,3.3,2.9,3.7,4.2c0.1,0.4-0.9,2.5-1,3.3c-0.1,0.7-0.2,1.3-0.3,2c-0.3,2.6-0.4,5.2-0.3,7.9
				c0,1.4,2.3,1.5,2.3,0c0-4.4,0.9-8.5,1.1-12.8c0.1-1.3,0.1-1.2-0.4-2.2c-1.3-2.7-4.7-5.5-6.7-7.8c-2.8-3.2-7.1-1-11.2-1.3
				c-0.3,0-6.3-0.5-7-1.2c-2.3-2.5,2.2-4,3.9-4.7c3-1.1,6.2-1.2,9.2-0.3c0.6,0.2,1.5-0.4,1.4-1.1c-0.3-2.4,0-6.5,2.1-8.3
				c0.5-1.7,1.5-1.9,3.1-0.7c0.3,1.3,0.5,2.5,0.5,3.8c0.4,4.7-0.5,9.2-2.1,13.5c0.7-0.1,1.4-0.2,2.1-0.3c-0.2-0.5-0.4-0.9-0.6-1.4
				c-0.6,0.5-1.2,0.9-1.8,1.4c2.5,2,4.2,4.4,5.1,7.5c0.2,0.6,0.8,1,1.4,0.8c5.2-1.5,13,1.5,17.9,3.3
				C427.9,209.5,428.5,207.4,427.2,206.9L427.2,206.9z"/>
		</g>
	</g>
	<g>
		<g>
			<path d="M520.3,521.7c0.2,0,0.4,0,0.7,0c1.6,0,3.1-1.4,3-3c-0.1-1.6-1.3-3-3-3c-0.2,0-0.4,0-0.7,0c-1.6,0-3.1,1.4-3,3
				C517.4,520.3,518.6,521.7,520.3,521.7L520.3,521.7z"/>
		</g>
	</g>
	<ellipse class="st10" cx="336.6" cy="198.1" rx="23.9" ry="23.9"/>
	<ellipse class="st10" cx="432.1" cy="144.2" rx="23.9" ry="23.9"/>
	<path class="st13" d="M353.8,185.5c1.1,4.8-1.9,9.6-6.6,10.7c-4.7,1.1-9.5-2-10.5-6.8c-1.1-4.8,1.9-9.6,6.6-10.7
		C348,177.6,352.7,180.7,353.8,185.5z"/>
	<path class="st13" d="M445.3,129.6c1.1,4.8-1.9,9.6-6.6,10.7c-4.7,1.1-9.5-2-10.5-6.8s1.9-9.6,6.6-10.7S444.2,124.8,445.3,129.6z"
		/>
	<g>
		<path class="st13" d="M606.1,522c-8.1-26.4-22.2-51-39.5-72.5c-29.2-36.3-87.3-87.8-136.1-56.2c-17.1,11.1-39.3,45.8-19.6,64.3
			l-0.3,4.9c32.9,42.2,71.9,85.3,123,104.5c7.3,1.2,14.4,3.2,21.5,5.3c2.2-1.1,4.7-1.4,7-0.7c5.2,1.6,9.5,4.1,13.8,7.3
			c2.8,0.8,5.6,1.6,8.4,2.3c0.6,0,1.2,0.2,1.8,0.5c-0.7,3,7.8-2.2,9-3c5.3-3.9,9.2-9.4,11.7-15.4C612.3,549.9,610.1,535.2,606.1,522
			z"/>
	</g>
	<g>
		<g>
			<path d="M574,582.6c5.5,0.6,10.9,1.7,16.2,3.3c1.9,0.5,2.7-2.4,0.8-2.9c-5.6-1.6-11.2-2.7-17-3.4
				C572.1,579.4,572.2,582.4,574,582.6L574,582.6z"/>
		</g>
	</g>
	<g>
		<path class="st14" d="M702.1,520.7c-4.1,10.9-9.3,20.5-15.7,30.2c-5,7.5-10.9,18.2-4.7,26.9c7.9,11,26.6,2.2,33.4-5.8
			c-1.4,1.1-2.9,2.1-4.3,3.2c31-15.4,60.6-33.9,88.1-55.1c-2.4,0.7-4.4,2.2-5.7,4.3c19.9-16.9,35.2-38.6,49.3-60.4
			c-0.8,1.8-2.2,3.5-3.6,4.8c1-1.7,2.4-3.3,3.6-4.8c-0.2,1.9-0.8,10.5-3.7,10.4c-4.4-0.2,2.8-9.2,3.7-10.4c-0.4,2.1-0.9,4.2-1.5,6.2
			c0.3-2.1,0.8-4.2,1.5-6.2c-7.6,27.6-15.9,59.2-6.2,87.4c7.3,21.2,25.9,37.7,49.1,36.4c12.7-0.7,25.6-7,30.6-19.4
			c-0.6,1.1-1.3,2.1-1.9,3.2c44.6-67.3-2.9-162.9-70.3-196.9c0.2,1.3,0.3,2.6,0.5,4c-4.3-50.6-24.4-99.3-55.2-139.3
			c-29.1-37.8-68.7-68.4-114.7-81.9c-29.5-8.6-61.3-9.7-90.7-0.1c12.9-5.2-6.3-38.6-21-24.1c4.5-3.7,0.6-8.9-4.3-8.8
			c-5.3,0.1-9.3,5.5-12.9,8.8c3.5-4.4,13.9-14.7,10.2-21c-6.3-10.9-20.9,8.2-23.7,13.1c7.4-11.6-1.2-26.2-8.7-35.3
			c-8.7-10.6-21.3-18.3-35.1-18.9c2.3-0.7,4.7-0.8,7.1-0.1c-2.3,0.3-4.7,0.3-7.1,0.1c6.7-8.2-3.6-20.2-7.9-27
			c-6.7-10.5-14.3-20.7-26-26c0.5,0.3,1,0.6,1.5,0.9c-23.2,12.8-43.2,31.4-57.8,53.7c1-0.4,1.9-1.2,2.6-1.9
			c-14.2-7.8-30.5,0.7-41.7,9.9c-1.1-4.8-5-12.8-11.1-9.1c-5.2,3.2-2.6,10.7-0.5,15.1c-2.3-4-9.8-11.9-13.6-4.7
			c-2.6,5,3.6,10.7,7.1,13.3c-10.9-0.2-12.6,14-11.8,22.2c-21.6-2-43.4-18-65.1-10c-7.9,4-9.9,15.9-7.9,23.9
			c4,19.9,15.8,37.9,33.7,47.2c-1.6,0.1-3.1-0.3-4.4-1.3c1.5,0.3,3,0.7,4.4,1.3c-1.1,1.7-4.7,8.3-7.3,7.5c-5.2-1.6,6-7,7.3-7.5
			c-1,1.6-2.2,3.2-3.4,4.6c0.6-1.9,1.8-3.5,3.4-4.6c-12.4,20.2-18.4,44.5-14,68c1.9,10,7.5,33.6,22.3,27.7
			c-2.3,7.2-7.3,18.5-4.4,26.1c4.8,12.6,12.4-7.6,13.4-12c-1,6.8-5.2,19.5,3.5,23.1c7.6,3.2,11.1-7.7,11.7-13.4
			c-6.2,9.8-3.9,24,3,32.8c4.4,5.7,17.1,15.2,22.1,5.1c-0.6,0.1-1.2,0.2-1.8,0.5c2.5,5.5,7.3,9.5,12.8,11.5
			c-10.6-4.1-22.6-2.1-32,3.9c-7.3,4.6-17.1,14.5-16.2,24.1c1.4,14.4,25.9,14.9,36.1,13.3c7.7-1.2,22.8-8.3,28.1,1.1
			c-2.1-2.8-4.3-5.7-6.4-8.5c12.8,26.4,22.9,54.6,40.5,78.3c-0.9-0.8-1.9-1.5-2.8-2.4c3.4,4.7,6.7,9.4,10.2,14
			c-3.2-4.8-6.5-9.6-10.2-14c23.2,37.9,57.1,69.7,94.9,92.6c10.5,6.3,22.6,10.2,31.6,18.8c-8.3,6-23.3,18.2-21.1,30.1
			c8.3,18.4,32.1,8.5,44.6-2.3l-1.2,1c7.3-6.2,13.9-13.1,19.8-20.7l-3.8,3.8c42,12.8,99.5,10.8,118.7-34.2"/>
	</g>
</g>
<g id="Layer_8_copy">
	<g>
		<g>
			<path d="M452.3,37.9c-6.6,12.6-10.1,26.3-10.3,40.5c0,1.9,3,1.9,3,0c0.2-13.7,3.5-26.9,9.9-39C455.8,37.7,453.2,36.1,452.3,37.9
				L452.3,37.9z"/>
		</g>
	</g>
	<g>
		<g>
			<path d="M444.1,80.7c9.7-0.2,19.1-1.8,28.2-4.9c1.8-0.6,1-3.5-0.8-2.9c-8.9,3-18,4.6-27.4,4.8C442.1,77.7,442.1,80.7,444.1,80.7
				L444.1,80.7z"/>
		</g>
	</g>
	<g>
		<g>
			<path d="M452.2,39.1c8,10.9,14.9,22.4,20.7,34.6c0.8,1.7,3.4,0.2,2.6-1.5c-5.8-12.2-12.7-23.7-20.7-34.6
				C453.6,36.1,451,37.6,452.2,39.1L452.2,39.1z"/>
		</g>
	</g>
	<g>
		<g>
			<path d="M402.2,454.6c15.7,26.2,37.7,47.4,59.9,68.1c20.7,19.2,41.8,39.3,69,48.7c1.8,0.6,2.6-2.3,0.8-2.9
				c-27.2-9.5-48.3-29.9-68.9-49.1c-21.5-20.1-42.8-40.8-58.1-66.3C403.8,451.4,401.2,452.9,402.2,454.6L402.2,454.6z"/>
		</g>
	</g>
	<g>
		<g>
			<path d="M527.8,568.9c18.3,4.7,36.7,8.9,55.2,12.7c1.9,0.4,2.7-2.5,0.8-2.9c-18.5-3.8-36.9-8.1-55.2-12.7
				C526.7,565.6,525.9,568.5,527.8,568.9L527.8,568.9z"/>
		</g>
	</g>
	<g>
		<g>
			<path d="M584,581.9c5.9,0.6,11.7,1.8,17.5,3.5c1.9,0.6,2.6-2.3,0.8-2.9c-6-1.8-12.1-3-18.3-3.6
				C582.1,578.7,582.1,581.7,584,581.9L584,581.9z"/>
		</g>
	</g>
	<g>
		<g>
			<path d="M518.7,506.7c0-0.2,0-0.4,0-0.7c0-1.6-1.4-3.1-3-3c-1.6,0.1-3,1.3-3,3c0,0.2,0,0.4,0,0.7c0,1.6,1.4,3.1,3,3
				C517.3,509.6,518.7,508.4,518.7,506.7L518.7,506.7z"/>
		</g>
	</g>
	<g>
		<path class="st15" d="M845.2,465.1c6.1-13.6,8-28.9,7.4-43.8s-7.8-59.2-6.2-44.3c6.5,61.5,0.5,75.5-3.5,93.5
			c-4,18-11.9,57.9-6,71.8c6,14,15.9,33.9,31.8,41.9c15.9,8,41.8-2,51.7-14c9.9-12,13.9-51.9,9.9-57.9c-4-6-8-57.9-21.9-77.8
			c-13.9-20-49.7-53.9-55.7-55.9c-6-2-8,0-8,0"/>
	</g>
	<path class="st15" d="M305.1,228.8c16.9,29.4,69.3,30.8,117.1,3.1s72.7-73.9,55.8-103.2c-16.9-29.4-69.3-30.8-117.1-3.1
		S288.2,199.4,305.1,228.8z"/>
	<g>
		<path class="st15" d="M488.9,344.3c-5.6,7.9-15.9,12.2-25.5,10.7c-4.5-0.7-9.1-3-10.6-7.3c-1.1-3.2-0.2-6.7,1.1-9.8
			c2.5-5.8,6.3-10.8,10.1-15.8c8-10.4,16-20.8,24-31.3l-1-0.1c0.3,1.6,1.5,3,2.5,4.3c11.4,14.5,11.5,36.8,0.4,51.5"/>
	</g>
	<g>
		<path class="st15" d="M355.4,349.7c-6.7-1.9-13.7-2.9-20.6-2.8c-2.1,0-4.3,0.1-6.3,1c-2.3,1-4.1,2.8-5.9,4.6
			c-2.7,2.8-5.5,5.6-8.2,8.4c-2.5,2.5-5,5.2-6.3,8.5c-2.2,5.6-0.1,12.2,4.1,16.6c4.1,4.3,10,6.6,15.9,7.7
			c13.9,2.5,28.8-1.5,39.6-10.7l-0.3-0.4c1.4-5.6,0.4-11.6-1.7-16.9c-2.1-5.4-5.3-10.2-8.5-15c-0.1-0.1-0.1-0.2-0.2-0.3"/>
	</g>
	<g>
		<path class="st15" d="M700.1,542.1c-4.6,3.3-9.2,6.6-13.1,10.8s-6.9,9.3-7.7,14.9c-0.2,1.8-0.3,3.6,0.3,5.2
			c1.5,4.4,6.4,6.5,10.9,7.2c9.2,1.3,19.3-2,24.7-9.6l2.5,0.6c0.5,0.5,1.1-0.5,1.1-1.2c0.4-13.2-8.1-26.2-20.4-31.1"/>
	</g>
	<g>
		<path class="st15" d="M569.5,579c-12.6-4.5-25.9-7.3-39.2-8.3l0.7,3.1c-3.2,3.4-6.5,6.8-9.7,10.3c-4.2,4.4-8.5,9.1-10,14.9
			c-0.6,2.4-0.7,5.2,0.7,7.2c1.8,2.6,5.4,3.2,8.5,3.5c5.3,0.6,10.8,1.1,16-0.1c3.4-0.8,6.5-2.4,9.5-4.1
			c10.5-5.9,20.2-13.5,26.9-23.5"/>
	</g>
	<g>
		<path class="st15" d="M324,120.9c-9.6-6.9-21.4-10.3-33.2-11.4c-11.8-1.1-23.6,0-35.4,1.5l3.1-2.7c-2,11.1-3.5,22.6-0.7,33.6
			c3.7,14.8,14.7,26.4,25.2,37.4l3.2-1.1c-0.7,0.9-1.5,1.8-2.2,2.7c16.3-20,30.5-41.7,42.3-64.7"/>
	</g>
	<g>
		<path class="st15" d="M395.1,75.8c12-18,28-33,43.8-47.8c4.9-4.6,10-9.3,16.4-11.5l-1.7-1.6c7.8,5.7,15.7,11.6,21.6,19.4
			c7.4,9.9,10.8,22.2,14.1,34.1l2.3-0.9c-7.1,7.8-15,15.3-24.7,19.5c-18.1,7.7-38.7,2.4-57.6-2.9c-5.6-1.6-12.3-4.5-12.7-10.3"/>
	</g>
</g>
<g id="Layer_4">
	<g id="Layer_7">
	</g>
	<g>
		<path class="st13" d="M475.1,73.7c0-0.5,0.7,0.4,0.2,0.5c-0.5,0.1-0.8-0.4-0.9-0.9c-4.8-13.5-16.2-23.6-21.7-36.8l0.7,1.6
			c-6.4,13.3-9.5,28.3-8.7,43.1c8.3-2.6,17-4.2,25.7-4.7c-0.4-0.5-0.8-0.9-1.1-1.4L475.1,73.7z"/>
	</g>
	<g>
		<g>
			<path d="M287.6,178.8c-10.6,16.2-16,35.4-15.3,54.7c0.6,16.1,4.9,36.3,20.4,44.5c1.7,0.9,3.2-1.7,1.5-2.6
				c-15.4-8.1-18.9-29.4-19-45.2c0-17.7,5.2-35.1,14.9-49.9C291.3,178.7,288.7,177.2,287.6,178.8L287.6,178.8z"/>
		</g>
	</g>
	<g>
		<g>
			<path d="M295.9,275c-1.7,6.1-2.7,12.4-2.5,18.8c0.1,3.6-0.2,10,3.1,12.5c6.8,5.1,10.6-12.9,11.3-16.5c-1-0.1-2-0.3-2.9-0.4
				c-0.3,6.9-3.9,22.1,5.5,25c8.5,2.5,12.3-9.1,12.7-15.2c0.1-1.9-2.9-1.9-3,0c-0.2,3.1-0.9,6.2-2.5,8.8c-3.1,4.9-8.9,4-10.1-1.9
				c-1-5.2,0.1-11.4,0.3-16.7c0.1-1.7-2.6-2.1-2.9-0.4c-0.6,3.2-1.5,6.3-2.7,9.3c-0.3,0.7-1.2,4-2,4.3c-3.7,1.6-3.4-3.7-3.6-5.2
				c-0.7-7.4,0.2-14.6,2.2-21.7C299.3,273.9,296.4,273.2,295.9,275L295.9,275z"/>
		</g>
	</g>
	<g>
		<g>
			<path d="M318.9,301.3c-1.1,11.9-1.9,25.2,6.7,34.8c5.6,6.2,16.7,9.9,22.5,1.9c1.1-1.6-1.5-3.1-2.6-1.5c-6.5,9.1-18.3-1.5-21.4-8
				c-4.1-8.4-3-18.2-2.2-27.2C322.1,299.3,319.1,299.3,318.9,301.3L318.9,301.3z"/>
		</g>
	</g>
	<g>
		<g>
			<path d="M343.7,338.4c2.5,5.7,7.2,9.9,13,11.9c1.8,0.6,2.6-2.3,0.8-2.9c-5.1-1.8-9-5.6-11.2-10.5
				C345.5,335.1,342.9,336.6,343.7,338.4L343.7,338.4z"/>
		</g>
	</g>
	<g>
		<g>
			<path d="M358.3,347.7c-12.2-3.2-25.3-2.5-36.2,4.1c-8.5,5.1-19.1,15.8-15.8,26.7c3.1,10.1,13.8,15.8,23.6,17.1
				c13.4,1.8,26.1-3.8,38-9.1c1.8-0.8,0.2-3.4-1.5-2.6c-10,4.5-20.6,9.2-31.8,9.1c-9.3-0.1-19.6-3.9-24.2-12.5
				c-5.9-10.7,5.9-22,14.6-26.8c10-5.5,21.7-5.9,32.6-3C359.3,351.1,360.1,348.2,358.3,347.7L358.3,347.7z"/>
		</g>
	</g>
	<g>
		<g>
			<path d="M485,291.6c-7.7,8.1-14.8,16.6-21.2,25.6c-5.4,7.5-12.4,16.3-12.1,26c0.2,7.5,5.2,13.4,12.7,14.4
				c9.8,1.4,18.9-4.4,26.8-9.4c1.6-1,0.1-3.6-1.5-2.6c-7,4.4-14.9,9.7-23.6,9.2c-11.7-0.8-13.2-12.7-9-21.4c7-14.7,19-28,30.1-39.7
				C488.5,292.3,486.4,290.2,485,291.6L485,291.6z"/>
		</g>
	</g>
	<g>
		<g>
			<path d="M325.8,117.3c-12.3-7.2-26.2-9.9-40.3-10.4c-7.5-0.3-14.9,0.1-22.4,0.6c-4.1,0.3-5.9,0.4-7.4,4.5c-1.9,5.3-1,13-0.4,18.4
				c0.7,6.6,2.3,13.2,4.8,19.4c4.7,12,12.4,22.6,22.5,30.6c1.5,1.2,3.6-0.9,2.1-2.1c-18.5-14.8-28.8-38.5-26.6-62.2
				c0.1-1.1,0.4-5.1,2-5.9c0.1,0,2.3,0.3,2.9,0.2c1.6-0.1,3.3-0.2,4.9-0.3c6.1-0.3,12.2-0.5,18.3-0.3c13.3,0.5,26.4,3.2,38,10
				C325.9,120.9,327.4,118.3,325.8,117.3L325.8,117.3z"/>
		</g>
	</g>
	<g>
		<g>
			<path d="M330,118.3c-0.7-7.9,0.1-19.8,10.4-20.7c1.1-0.1,2.2-1.7,1.1-2.6c-2.8-2.2-6.5-4.9-6.7-8.7c-0.3-4.3,5.5-5.5,8.2-2.5
				c1.1,1.3,1.9,2.9,2.7,4.4c0.9,1.7,3.3,0.2,2.6-1.5c-1.1-2.5-4.1-9.1-1.3-11.6c2.4-0.2,4.7-0.4,7.1-0.6c0.5,0.7,1,1.4,1.5,2.1
				c0.8,1.6,1.2,3.5,1.6,5.2c0.3,1.2,1.7,1.3,2.5,0.7c11.1-9,25.9-16.9,40.1-9.7c1.7,0.9,3.2-1.7,1.5-2.6
				c-15.5-7.9-31.4,0.3-43.7,10.2c0.8,0.2,1.7,0.4,2.5,0.7c-1.2-5.3-5.2-13.8-12.2-10.6c-7.3,3.3-4.6,12.3-2.2,17.8
				c0.9-0.5,1.7-1,2.6-1.5c-2.6-4.8-9.2-12.4-14.7-6.1c-5.3,6,1.2,13,5.8,16.6c0.4-0.9,0.7-1.7,1.1-2.6c-12,1.1-14.3,13.8-13.4,23.7
				C327.1,120.2,330.2,120.2,330,118.3L330,118.3z"/>
		</g>
	</g>
	<g>
		<g>
			<path d="M399.1,74.2C413.7,52,433.4,33.8,456.6,21c1.7-0.9,0.2-3.5-1.5-2.6c-23.7,13.1-43.7,31.7-58.6,54.3
				C395.5,74.3,398,75.8,399.1,74.2L399.1,74.2z"/>
		</g>
	</g>
	<g>
		<g>
			<path d="M453.6,20.1c20.5,9.5,30.3,30.5,34.8,51.6c0.4,1.9,3.3,1.1,2.9-0.8c-4.6-21.8-15-43.6-36.2-53.4
				C453.4,16.7,451.9,19.3,453.6,20.1L453.6,20.1z"/>
		</g>
	</g>
	<g>
		<g>
			<path d="M488.5,73.3c12.3,0.9,23.9,8.9,32.8,16.9c10.2,9.2,11.1,21,10.8,34.1c-0.1,1.9,2.9,1.9,3,0c0.4-13.9-0.8-26.4-11.7-36.2
				c-9.6-8.7-21.7-16.8-34.9-17.8C486.5,70.1,486.5,73.1,488.5,73.3L488.5,73.3z"/>
		</g>
	</g>
	<g>
		<g>
			<path d="M533.8,126.8c3.3-7.1,10-12.3,18-12.9c1.2-0.1,3.3-0.5,3.9,1c0.3,0.7-3.5,5.9-4,6.7c-2.3,3.9-4.6,7.8-7,11.7
				c-0.7,1.2,0.8,3,2.1,2.1c2.6-1.9,5.2-3.8,7.8-5.5c1.1-0.7,2.3-1.5,3.5-2.1c0.8-0.3,1.6-0.6,2.3-1c4,2.1,4.6,4.2,1.8,6.2
				c-1.3,1.4,0.6,3.3,2.1,2.1c5.7-4.6,14.2-2.4,18.3,3.3c3.9,5.5,3.7,12.6,1.8,18.8c-0.6,1.9,2.3,2.6,2.9,0.8
				c2.5-8.2,2-18.5-5.1-24.4c-5.8-4.8-14.1-5.3-20-0.6c0.7,0.7,1.4,1.4,2.1,2.1c3.1-3.3,5.4-8.7-0.2-11c-6.3-2.6-14.4,5.3-18.9,8.7
				c0.7,0.7,1.4,1.4,2.1,2.1c2-3.3,4-6.7,6-10c1.7-2.9,4.8-6.3,5.5-9.6c0.7-3.2-1.6-4-4.3-4.2c-9.9-0.6-19.2,5.7-23.3,14.5
				C530.4,127,532.9,128.6,533.8,126.8L533.8,126.8z"/>
		</g>
	</g>
	<g>
		<g>
			<path d="M584.7,159.5c50-17.2,101.9,2.9,143.2,31.5c37.5,26,71.4,59.6,90.3,101.8c12.4,27.6,20.3,57.6,26.5,87.1
				c0.4,1.9,3.3,1.1,2.9-0.8c-5.8-27.3-13.2-54.7-23.8-80.6c-8.8-21.7-21.4-41.4-36.7-59.1c-15.3-17.7-33.1-33.2-52-46.9
				c-20.6-14.9-42.9-27.8-67.3-35.4c-27.2-8.5-56.9-9.9-84.1-0.6C582.1,157.3,582.9,160.2,584.7,159.5L584.7,159.5z"/>
		</g>
	</g>
	<g>
		<g>
			<path d="M843.8,373.7c3.4,28.1,6.8,57.7-2.2,85.2c-8.6,26.3-28.3,46.7-47.7,65.6c-1.4,1.3,0.7,3.5,2.1,2.1
				c19.4-18.8,38.9-39.2,47.9-65.2c9.8-28.2,6.3-58.7,2.8-87.7C846.6,371.8,843.6,371.8,843.8,373.7L843.8,373.7z"/>
		</g>
	</g>
	<g>
		<g>
			<path d="M705.6,502.1c-6.1,10.3-9.1,22.1-8.3,34.1c0.5,6.1-6.6,9.7-10,14.2c-3.2,4.2-5.6,9-6.9,14.1c-2.3,8.7-0.2,17.3,9.4,19.8
				c9.3,2.4,22.1-2.6,27.8-10.1c1.2-1.5-0.9-3.6-2.1-2.1c-5.4,7-18.8,12.5-27.2,8.4c-11.2-5.4-4-21.3,1.5-28.5
				c2.7-3.5,6.5-5.6,9.4-8.8c2.4-2.7,1.1-6.3,1-9.7c-0.3-10.6,2.6-20.9,8-30C709.1,502,706.5,500.4,705.6,502.1L705.6,502.1z"/>
		</g>
	</g>
	<g>
		<g>
			<path d="M712.9,577.6c31.2-15.5,60.8-34,88.5-55.1c1.5-1.2,0-3.8-1.5-2.6c-27.7,21.2-57.3,39.6-88.5,55.1
				C709.7,575.9,711.2,578.5,712.9,577.6L712.9,577.6z"/>
		</g>
	</g>
	<g>
		<g>
			<path d="M582.5,584.2c33.1,4.5,68.6,4.3,97.5-14.5c1.6-1,0.1-3.6-1.5-2.6c-28.2,18.3-62.9,18.6-95.2,14.2
				C581.4,581.1,580.6,583.9,582.5,584.2L582.5,584.2z"/>
		</g>
	</g>
	<g>
		<g>
			<path d="M533.8,567.9c-6.2,4.3-11.9,9.8-16.5,15.8c-3.8,5-8.4,12-6.4,18.6c2.5,8.1,13.4,9.8,20.6,9c11.1-1.3,21.7-7.6,29.3-15.5
				c1.3-1.4-0.8-3.5-2.1-2.1c-6.6,6.8-15.3,12.3-24.7,14.2c-6.8,1.4-20.7,0.7-20.6-9c0.1-6.3,5.2-12.4,9.1-16.8
				c3.8-4.3,8.1-8.4,12.8-11.6C536.8,569.4,535.3,566.8,533.8,567.9L533.8,567.9z"/>
		</g>
	</g>
	<g>
		<g>
			<path d="M845,376.9c14.3,8.6,28.7,17.3,41,28.7c13.2,12.2,21.6,27.3,28.1,43.9c13.1,33.6,21.8,71.6,9.3,106.7
				c-0.7,1.8,2.2,2.6,2.9,0.8c9.9-27.7,6.7-57.6-1.4-85.3c-8-27.2-19-53.3-41-72c-11.5-9.8-24.5-17.6-37.4-25.4
				C844.9,373.3,843.4,375.9,845,376.9L845,376.9z"/>
		</g>
	</g>
	<g>
		<g>
			<path d="M843.1,464.6c-6.3,28.7-13.3,60.3-2.8,88.9c7.7,21.1,25.8,37.1,49.3,34.1c12-1.5,22.8-7.6,30-17.3c1.2-1.5-1.4-3-2.6-1.5
				c-8,10.7-21.2,16.6-34.5,16.2c-14.5-0.4-26.6-8.9-34.1-21.1c-17.9-29.4-9.4-67.1-2.5-98.5C846.4,463.5,843.5,462.7,843.1,464.6
				L843.1,464.6z"/>
		</g>
	</g>
	<g>
		<g>
			<path d="M917.8,573.5c3-4.8,5.8-9.7,8.3-14.8c0.9-1.7-1.7-3.2-2.6-1.5c-2.5,5.1-5.3,10-8.3,14.8
				C914.1,573.6,916.7,575.1,917.8,573.5L917.8,573.5z"/>
		</g>
	</g>
	<g>
		<g>
			<path d="M335,275.7c1.2-4,2.7-7.9,4.7-11.7c0.8-1.6,1.7-3.1,2.7-4.6c0.6-0.9,2.4-4.6,3.5-4.8c-0.6-0.2-1.1-0.5-1.7-0.7
				c0-0.3,0-0.7,0-1c0.6-0.2,1.1-0.5,1.7-0.7c-0.1,0-0.1,0-0.2,0c-1.9-0.3-2.7,2.6-0.8,2.9c0.1,0,0.1,0,0.2,0
				c0.6,0.1,1.4-0.1,1.7-0.7c0.4-0.8,0.4-1.3,0-2c-0.3-0.6-1-0.8-1.7-0.7c-3,0.5-5.5,6.4-6.9,8.8c-2.6,4.5-4.6,9.4-6.1,14.4
				C331.6,276.8,334.5,277.6,335,275.7L335,275.7z"/>
		</g>
	</g>
	<g>
		<g>
			<path d="M346.1,282.1c4.1-8,8.2-16.1,12.3-24.1c0.9-1.7-1.7-3.2-2.6-1.5c-4.1,8-8.2,16.1-12.3,24.1
				C342.6,282.3,345.2,283.8,346.1,282.1L346.1,282.1z"/>
		</g>
	</g>
	<g>
		<g>
			<path d="M472.4,164.2c11.1-2.3,22-5.1,32.9-8.5c1.8-0.6,1.1-3.5-0.8-2.9c-10.8,3.4-21.8,6.2-32.9,8.5
				C469.7,161.6,470.5,164.5,472.4,164.2L472.4,164.2z"/>
		</g>
	</g>
	<g>
		<g>
			<path d="M477.6,174.7c10.6-2.4,21.2-4.9,31.8-7.3c1.9-0.4,1.1-3.3-0.8-2.9c-10.6,2.4-21.2,4.9-31.8,7.3
				C474.9,172.3,475.7,175.2,477.6,174.7L477.6,174.7z"/>
		</g>
	</g>
	<g>
		<path d="M330.7,140.9c-1.1,6.5-1.8,14.2,3.2,18.5c0.4,0.4,1,0.7,1.5,0.7c0.7,0,1.3-0.5,1.8-0.9c5.7-5.3,7.8-14.2,4.9-21.5
			c-1.1-2.8-3.3-5.6-6.3-5.4c-2.2,0.1-4,2-4.7,4.1c-0.7,2.1-0.7,4.3-0.5,6.5L330.7,140.9z"/>
		<g>
			<path d="M329.3,140.5c-1,6.2-2.3,15.8,3.7,20.1c5.5,3.9,10.1-6.2,11.2-10.3c1.6-5.8,1.1-15.6-5.2-18.8
				c-7.6-3.8-10.1,6.1-9.9,11.4c0.1,1.9,3,1.9,3,0c0-0.7,0-1.3,0-2c0-1.9-3-1.9-3,0c0,0.7,0,1.3,0,2c1,0,2,0,3,0
				c-0.1-2.8,0.2-13.2,7-7.5c1.4,1.2,2.1,3.8,2.4,5.5c0.9,4.1,0.2,8.6-1.7,12.4c-0.6,1.2-2.3,4.8-3.7,4.9c-2.3,0.3-3.9-3.3-4.3-4.8
				c-1-3.9-0.4-8.2,0.2-12C332.5,139.4,329.6,138.6,329.3,140.5z"/>
		</g>
	</g>
	<g>
		<path d="M375.2,116.2c4.3,2.9,9,5.3,13.8,7.1c3.6,1.3,8.3,2,10.7-1c2.6-3.3,0.2-8.2-2.9-10.9c-3-2.6-6.7-4.5-10.5-5.3
			c-2.8-0.6-5.9-0.6-8.5,0.7c-2.6,1.3-4.5,4.1-4.1,7L375.2,116.2z"/>
		<g>
			<path d="M374.4,117.5c5.7,3.8,15.3,10.1,22.6,8.1c6.7-1.8,5.9-9.4,2.3-13.8c-4.6-5.5-14.1-9.5-21.1-6.9c-5.6,2.1-7.1,7.2-4.3,12
				c1,1.7,3.6,0.2,2.6-1.5c-3.5-6,4-9.1,9.4-8c4,0.8,8.2,2.8,10.9,5.9c2.8,3.2,3.4,9.6-2.6,9.5c-1.6,0-3.2-0.5-4.8-1
				c-4.8-1.6-9.3-4.1-13.5-6.9C374.3,113.8,372.8,116.4,374.4,117.5z"/>
		</g>
	</g>
	<g>
		<g>
			<path d="M324.4,231.8c12.3,4.8,26.3,1.7,35.5-7.7c1-1-0.6-2.6-1.6-1.6c-8.7,8.9-21.7,11.7-33.3,7.2
				C323.6,229.1,323,231.3,324.4,231.8L324.4,231.8z"/>
		</g>
	</g>
	<g>
		<g>
			<path d="M435.4,178.1c12.7,0.4,24-8.1,27.2-20.3c0.4-1.4-1.8-2-2.2-0.6c-2.9,11.3-13.4,19.1-25.1,18.7
				C434,175.8,434,178,435.4,178.1L435.4,178.1z"/>
		</g>
	</g>
	<g>
		<g>
			<path d="M427.2,206.9c-5.2-1.8-13.5-4.9-19.1-3.3c0.5,0.3,0.9,0.5,1.4,0.8c-1-3.5-2.8-6.2-5.7-8.5c-1-0.8-2.3,0.2-1.8,1.4
				c0.2,0.5,0.4,0.9,0.6,1.4c0.4,1,1.8,0.5,2.1-0.3c1.6-4.3,2.4-8.7,2.2-13.3c-0.1-2.4-0.1-7.6-2.5-8.9c-4.9-2.7-8.2,10.1-7.8,13.3
				c0.5-0.4,0.9-0.7,1.4-1.1c-5.1-1.6-11.2-0.5-15.3,3c-5.9,5.1,2.6,6.9,6.5,7.4c2.2,0.3,4.4,0.4,6.6,0.3c0.7,0,3.5-0.8,4-0.6
				c1.4,0.5,3.2,3.7,4.2,4.9c0.9,1,3.3,2.9,3.7,4.2c0.1,0.4-0.9,2.5-1,3.3c-0.1,0.7-0.2,1.3-0.3,2c-0.3,2.6-0.4,5.2-0.3,7.9
				c0,1.4,2.3,1.5,2.3,0c0-4.4,0.9-8.5,1.1-12.8c0.1-1.3,0.1-1.2-0.4-2.2c-1.3-2.7-4.7-5.5-6.7-7.8c-2.8-3.2-7.1-1-11.2-1.3
				c-0.3,0-6.3-0.5-7-1.2c-2.3-2.5,2.2-4,3.9-4.7c3-1.1,6.2-1.2,9.2-0.3c0.6,0.2,1.5-0.4,1.4-1.1c-0.3-2.4,0-6.5,2.1-8.3
				c0.5-1.7,1.5-1.9,3.1-0.7c0.3,1.3,0.5,2.5,0.5,3.8c0.4,4.7-0.5,9.2-2.1,13.5c0.7-0.1,1.4-0.2,2.1-0.3c-0.2-0.5-0.4-0.9-0.6-1.4
				c-0.6,0.5-1.2,0.9-1.8,1.4c2.5,2,4.2,4.4,5.1,7.5c0.2,0.6,0.8,1,1.4,0.8c5.2-1.5,13,1.5,17.9,3.3
				C427.9,209.5,428.5,207.4,427.2,206.9L427.2,206.9z"/>
		</g>
	</g>
	<g>
		<g>
			<path d="M520.3,521.7c0.2,0,0.4,0,0.7,0c1.6,0,3.1-1.4,3-3c-0.1-1.6-1.3-3-3-3c-0.2,0-0.4,0-0.7,0c-1.6,0-3.1,1.4-3,3
				C517.4,520.3,518.6,521.7,520.3,521.7L520.3,521.7z"/>
		</g>
	</g>
	<ellipse class="st10" cx="336.6" cy="198.1" rx="23.9" ry="23.9"/>
	<ellipse class="st10" cx="432.1" cy="144.2" rx="23.9" ry="23.9"/>
	<path class="st13" d="M353.8,185.5c1.1,4.8-1.9,9.6-6.6,10.7c-4.7,1.1-9.5-2-10.5-6.8c-1.1-4.8,1.9-9.6,6.6-10.7
		C348,177.6,352.7,180.7,353.8,185.5z"/>
	<path class="st13" d="M445.3,129.6c1.1,4.8-1.9,9.6-6.6,10.7c-4.7,1.1-9.5-2-10.5-6.8s1.9-9.6,6.6-10.7S444.2,124.8,445.3,129.6z"
		/>
	<g>
		<path class="st13" d="M606.1,522c-8.1-26.4-22.2-51-39.5-72.5c-29.2-36.3-87.3-87.8-136.1-56.2c-17.1,11.1-39.3,45.8-19.6,64.3
			l-0.3,4.9c32.9,42.2,71.9,85.3,123,104.5c7.3,1.2,14.4,3.2,21.5,5.3c2.2-1.1,4.7-1.4,7-0.7c5.2,1.6,9.5,4.1,13.8,7.3
			c2.8,0.8,5.6,1.6,8.4,2.3c0.6,0,1.2,0.2,1.8,0.5c-0.7,3,7.8-2.2,9-3c5.3-3.9,9.2-9.4,11.7-15.4C612.3,549.9,610.1,535.2,606.1,522
			z"/>
	</g>
	<g>
		<g>
			<path d="M366.1,383.8c6.1,14.2,12.1,28.3,18.8,42.2c5.9,12.3,11.9,25.1,21.8,34.7c1.4,1.3,3.5-0.8,2.1-2.1
				c-10.2-9.8-16.2-23.2-22.2-35.8c-6.4-13.3-12.2-26.9-18-40.5C368,380.5,365.4,382,366.1,383.8L366.1,383.8z"/>
		</g>
	</g>
	<g>
		<g>
			<path d="M556,600.3c7.3-6.2,13.9-13.1,19.9-20.7c1.2-1.5-0.9-3.6-2.1-2.1c-5.9,7.6-12.6,14.5-19.9,20.7
				C552.4,599.5,554.5,601.6,556,600.3L556,600.3z"/>
		</g>
	</g>
	<g>
		<g>
			<path d="M574,582.6c5.5,0.6,10.9,1.7,16.2,3.3c1.9,0.5,2.7-2.4,0.8-2.9c-5.6-1.6-11.2-2.7-17-3.4
				C572.1,579.4,572.2,582.4,574,582.6L574,582.6z"/>
		</g>
	</g>
	<g>
		<g>
			<path d="M383.7,195.2c5.4,0.3,10.8,0.1,16.2-0.6c0.7-0.1,1.1-0.5,1.1-1.1c0.4-3.7,0.8-7.4,1.1-11.1c-0.8,0-1.5,0-2.3,0
				c0.2,2.7,0.4,5.4,0.6,8.1c0.8,0,1.5,0,2.3,0c-0.2-2.5,0-4.7,0.7-7.1c-0.7,0-1.4,0-2.2,0c0.5,3.4,0.9,8.1-3.6,9
				c-1.6,0.3-3.9-1.4-5.4-2c-2-0.8-3.8-1.2-5.7,0c-0.7,0.4-0.8,1.5,0,1.9c2.4,1.3,4.8,1.9,7.6,1.6c1.4-0.1,1.4-2.4,0-2.3
				c-2.4,0.2-4.3-0.1-6.5-1.3c0,0.6,0,1.3,0,1.9c3.6-2.2,8,3.8,12.3,1.8c4.3-2,4-7.4,3.4-11.3c-0.2-1.2-1.9-1-2.2,0
				c-0.8,2.6-1.1,5-0.8,7.7c0.1,1.4,2.4,1.5,2.3,0c-0.2-2.7-0.4-5.4-0.6-8.1c-0.1-1.5-2.1-1.4-2.3,0c-0.4,3.7-0.8,7.4-1.1,11.1
				c0.4-0.4,0.8-0.8,1.1-1.1c-5.4,0.7-10.8,0.9-16.2,0.6C382.3,192.9,382.3,195.1,383.7,195.2L383.7,195.2z"/>
		</g>
	</g>
</g>
<g id="Layer_8">
	<g>
		<g>
			<path d="M452.3,37.9c-6.6,12.6-10.1,26.3-10.3,40.5c0,1.9,3,1.9,3,0c0.2-13.7,3.5-26.9,9.9-39C455.8,37.7,453.2,36.1,452.3,37.9
				L452.3,37.9z"/>
		</g>
	</g>
	<g>
		<g>
			<path d="M444.1,80.7c9.7-0.2,19.1-1.8,28.2-4.9c1.8-0.6,1-3.5-0.8-2.9c-8.9,3-18,4.6-27.4,4.8C442.1,77.7,442.1,80.7,444.1,80.7
				L444.1,80.7z"/>
		</g>
	</g>
	<g>
		<g>
			<path d="M452.2,39.1c8,10.9,14.9,22.4,20.7,34.6c0.8,1.7,3.4,0.2,2.6-1.5c-5.8-12.2-12.7-23.7-20.7-34.6
				C453.6,36.1,451,37.6,452.2,39.1L452.2,39.1z"/>
		</g>
	</g>
	<g>
		<g>
			<path d="M402.2,454.6c15.7,26.2,37.7,47.4,59.9,68.1c20.7,19.2,41.8,39.3,69,48.7c1.8,0.6,2.6-2.3,0.8-2.9
				c-27.2-9.5-48.3-29.9-68.9-49.1c-21.5-20.1-42.8-40.8-58.1-66.3C403.8,451.4,401.2,452.9,402.2,454.6L402.2,454.6z"/>
		</g>
	</g>
	<g>
		<g>
			<path d="M527.8,568.9c18.3,4.7,36.7,8.9,55.2,12.7c1.9,0.4,2.7-2.5,0.8-2.9c-18.5-3.8-36.9-8.1-55.2-12.7
				C526.7,565.6,525.9,568.5,527.8,568.9L527.8,568.9z"/>
		</g>
	</g>
	<g>
		<g>
			<path d="M584,581.9c5.9,0.6,11.7,1.8,17.5,3.5c1.9,0.6,2.6-2.3,0.8-2.9c-6-1.8-12.1-3-18.3-3.6
				C582.1,578.7,582.1,581.7,584,581.9L584,581.9z"/>
		</g>
	</g>
	<g>
		<g>
			<path d="M518.7,506.7c0-0.2,0-0.4,0-0.7c0-1.6-1.4-3.1-3-3c-1.6,0.1-3,1.3-3,3c0,0.2,0,0.4,0,0.7c0,1.6,1.4,3.1,3,3
				C517.3,509.6,518.7,508.4,518.7,506.7L518.7,506.7z"/>
		</g>
	</g>
	<g>
		<g>
			<path d="M845,377.4c5.5,28.6,11.1,59.2-1,87c-0.8,1.8,1.8,3.3,2.6,1.5c12.5-28.6,7-59.8,1.3-89.3
				C847.5,374.7,844.6,375.5,845,377.4L845,377.4z"/>
		</g>
	</g>
</g>
</svg>
