<?xml version="1.0" encoding="iso-8859-1"?>
<!-- Generator: Adobe Illustrator 19.0.0, SVG Export Plug-In . SVG Version: 6.00 Build 0)  -->
<svg version="1.1" id="Layer_1" xmlns="http://www.w3.org/2000/svg" xmlns:xlink="http://www.w3.org/1999/xlink" x="0px" y="0px"
	 viewBox="0 0 423.35 423.35" style="enable-background:new 0 0 423.35 423.35;" xml:space="preserve">
<g>
	<rect x="20.133" y="126.983" style="fill:#CDE4F9;" width="383.084" height="257.192"/>
	<rect y="114.175" style="fill:#8EB6CE;" width="423.35" height="12.808"/>
	<g>
		<rect x="176.175" y="251.175" style="fill:#96BED6;" width="71" height="133"/>
		<rect x="181.175" y="256.175" style="fill:#2D4151;" width="61" height="123"/>
		<path style="opacity:0.2;fill:#FCFAFA;enable-background:new    ;" d="M238.608,260.534v114.909h-48
			C190.608,375.443,232.728,330.968,238.608,260.534z"/>
		<rect x="178.675" y="285.675" style="fill:#8EB6CE;" width="66" height="5"/>
	</g>
	<g>
		<g>
			<rect x="29.285" y="243.496" style="fill:#96BED6;" width="62.433" height="89.693"/>
			<rect x="33.682" y="247.893" style="fill:#2D4151;" width="53.64" height="80.9"/>
			<path style="opacity:0.2;fill:#FCFAFA;enable-background:new    ;" d="M84.185,251.727v73.785H41.977
				C41.977,325.511,79.015,313.662,84.185,251.727z"/>
			<rect x="31.483" y="273.834" style="fill:#8EB6CE;" width="58.037" height="4.397"/>
		</g>
		<g>
			<rect x="29.285" y="143.807" style="fill:#96BED6;" width="62.433" height="89.693"/>
			<rect x="33.682" y="148.204" style="fill:#2D4151;" width="53.64" height="80.9"/>
			<path style="opacity:0.2;fill:#FCFAFA;enable-background:new    ;" d="M84.185,152.037v73.785H41.977
				C41.977,225.822,79.015,213.973,84.185,152.037z"/>
			<rect x="31.483" y="174.144" style="fill:#8EB6CE;" width="58.037" height="4.397"/>
		</g>
		<g>
			<rect x="105.631" y="243.496" style="fill:#96BED6;" width="62.433" height="89.693"/>
			<rect x="110.028" y="247.893" style="fill:#2D4151;" width="53.64" height="80.9"/>
			<path style="opacity:0.2;fill:#FCFAFA;enable-background:new    ;" d="M160.532,251.727v73.785h-42.209
				C118.323,325.511,155.361,313.662,160.532,251.727z"/>
			<rect x="107.83" y="273.834" style="fill:#8EB6CE;" width="58.037" height="4.397"/>
		</g>
		<g>
			<rect x="105.631" y="143.807" style="fill:#96BED6;" width="62.433" height="89.693"/>
			<rect x="110.028" y="148.204" style="fill:#2D4151;" width="53.64" height="80.9"/>
			<path style="opacity:0.2;fill:#FCFAFA;enable-background:new    ;" d="M160.532,152.037v73.785h-42.209
				C118.323,225.822,155.361,213.973,160.532,152.037z"/>
			<rect x="107.83" y="174.144" style="fill:#8EB6CE;" width="58.037" height="4.397"/>
		</g>
	</g>
	<g>
		<rect x="255.285" y="243.496" style="fill:#96BED6;" width="62.433" height="89.693"/>
		<rect x="259.682" y="247.893" style="fill:#2D4151;" width="53.64" height="80.9"/>
		<path style="opacity:0.2;fill:#FCFAFA;enable-background:new    ;" d="M310.185,251.727v73.785h-42.209
			C267.977,325.511,305.015,313.662,310.185,251.727z"/>
		<rect x="257.483" y="273.834" style="fill:#8EB6CE;" width="58.037" height="4.397"/>
	</g>
	<g>
		<rect x="255.285" y="143.807" style="fill:#96BED6;" width="62.433" height="89.693"/>
		<rect x="259.682" y="148.204" style="fill:#2D4151;" width="53.64" height="80.9"/>
		<path style="opacity:0.2;fill:#FCFAFA;enable-background:new    ;" d="M310.185,152.037v73.785h-42.209
			C267.977,225.822,305.015,213.973,310.185,152.037z"/>
		<rect x="257.483" y="174.144" style="fill:#8EB6CE;" width="58.037" height="4.397"/>
	</g>
	<g>
		<rect x="180.458" y="143.807" style="fill:#96BED6;" width="62.433" height="89.693"/>
		<rect x="184.855" y="148.204" style="fill:#2D4151;" width="53.64" height="80.9"/>
		<path style="opacity:0.2;fill:#FCFAFA;enable-background:new    ;" d="M235.359,152.037v73.785H193.15
			C193.15,225.822,230.188,213.973,235.359,152.037z"/>
		<rect x="182.656" y="174.144" style="fill:#8EB6CE;" width="58.037" height="4.397"/>
	</g>
	<g>
		<rect x="331.631" y="243.496" style="fill:#96BED6;" width="62.433" height="89.693"/>
		<rect x="336.028" y="247.893" style="fill:#2D4151;" width="53.64" height="80.9"/>
		<path style="opacity:0.2;fill:#FCFAFA;enable-background:new    ;" d="M386.532,251.727v73.785h-42.209
			C344.323,325.511,381.361,313.662,386.532,251.727z"/>
		<rect x="333.83" y="273.834" style="fill:#8EB6CE;" width="58.037" height="4.397"/>
	</g>
	<g>
		<rect x="331.631" y="143.807" style="fill:#96BED6;" width="62.433" height="89.693"/>
		<rect x="336.028" y="148.204" style="fill:#2D4151;" width="53.64" height="80.9"/>
		<path style="opacity:0.2;fill:#FCFAFA;enable-background:new    ;" d="M386.532,152.037v73.785h-42.209
			C344.323,225.822,381.361,213.973,386.532,152.037z"/>
		<rect x="333.83" y="174.144" style="fill:#8EB6CE;" width="58.037" height="4.397"/>
	</g>
	<polygon style="fill:#CDE4F9;" points="352.686,64.368 211.675,39.175 70.664,64.368 70.664,114.175 352.686,114.175 	"/>
	<polygon style="fill:#96BED6;" points="75.664,109.175 75.664,69.368 211.675,47.175 347.686,69.368 347.686,109.175 	"/>
	<g>
		<path style="fill:#FFFFFF;" d="M132.468,96.745c0.976,0,1.806-0.117,2.491-0.352c0.687-0.234,1.282-0.532,1.787-0.894
			c0.199-0.596,0.339-1.309,0.42-2.139s0.122-1.652,0.122-2.464v-8.881l-2.789-0.406l0.136-1.462h7.121l-0.135,1.462l-1.923,0.406
			v8.881c0,1.228-0.122,2.325-0.365,3.29c-0.244,0.966-0.659,1.783-1.246,2.451s-1.363,1.178-2.329,1.53s-2.18,0.528-3.642,0.528
			c-1.336,0-2.455-0.167-3.357-0.501c-0.903-0.334-1.635-0.821-2.193-1.462c-0.561-0.641-0.962-1.435-1.205-2.383
			c-0.244-0.948-0.366-2.035-0.366-3.263v-9.071l-2.058-0.406l0.136-1.462h7.474l-0.136,1.462l-2.627,0.406v9.071
			c0,0.812,0.055,1.562,0.163,2.248c0.108,0.686,0.334,1.282,0.677,1.787s0.816,0.903,1.422,1.191
			C130.649,96.601,131.457,96.745,132.468,96.745z"/>
		<path style="fill:#FFFFFF;" d="M143.57,96.908l2.14-0.379V82.014l-2.275-0.406l0.136-1.462h4.955l9.234,14.027h0.162V82.014
			l-2.708-0.406l0.136-1.462h7.229l-0.135,1.462l-2.167,0.406v16.382h-2.6l-9.423-14.243h-0.162v12.375l2.815,0.379l-0.135,1.489
			h-7.339L143.57,96.908z"/>
		<path style="fill:#FFFFFF;" d="M164.421,96.908l2.139-0.379V82.014l-2.274-0.406l0.136-1.462h7.202l-0.135,1.462l-2.14,0.406
			v14.514l2.274,0.379l-0.135,1.489h-7.203L164.421,96.908z"/>
		<path style="fill:#FFFFFF;" d="M191.201,81.608l-1.436,0.406l-6.146,16.382h-3.223l-5.876-16.382l-1.598-0.406l0.136-1.462h7.229
			l-0.162,1.462l-2.735,0.406l4.739,13.485h0.162l4.956-13.485l-2.897-0.406l0.135-1.462h6.878L191.201,81.608z"/>
		<path style="fill:#FFFFFF;" d="M207.8,80.146l-0.189,5.632l-1.814,0.217l-0.487-3.98h-7.663v6.39h3.953l-0.136-2.031l2.167-0.135
			l-0.217,6.472l-1.462,0.135l-0.271-2.626h-4.034v6.309h7.88l0.487-4.062l1.841-0.189l0.189,6.12h-15.407l0.136-1.489l2.139-0.379
			V82.014l-2.274-0.406l0.136-1.462H207.8z"/>
		<path style="fill:#FFFFFF;" d="M220.797,94.863c-0.812-1.219-1.507-2.478-2.085-3.777l-2.03-0.379l0.135-1.489h1.923
			c0.47,0,1.052-0.027,1.747-0.081c0.694-0.054,1.331-0.199,1.908-0.434c0.253-0.361,0.47-0.776,0.65-1.246
			c0.18-0.469,0.271-1.046,0.271-1.733c0-0.722-0.122-1.322-0.365-1.801c-0.244-0.478-0.578-0.857-1.002-1.137
			c-0.425-0.28-0.917-0.478-1.476-0.596c-0.561-0.117-1.165-0.176-1.814-0.176h-3.25v14.514l2.41,0.379l-0.135,1.489h-7.312
			l0.136-1.489l2.139-0.379V82.014l-2.274-0.379l0.136-1.489h7.825c0.902,0,1.823,0.059,2.762,0.176
			c0.938,0.118,1.788,0.366,2.546,0.745c0.758,0.379,1.376,0.92,1.854,1.625s0.718,1.643,0.718,2.816
			c0,0.849-0.126,1.58-0.379,2.193c-0.253,0.614-0.582,1.138-0.988,1.571s-0.88,0.776-1.422,1.029
			c-0.541,0.253-1.093,0.434-1.651,0.542l-0.055,0.135c0.198,0.47,0.451,0.966,0.759,1.489c0.307,0.524,0.636,1.034,0.988,1.53
			c0.352,0.497,0.708,0.966,1.069,1.408s0.704,0.817,1.029,1.124l2.166,0.379l-0.162,1.489h-4.116
			C222.494,97.26,221.609,96.081,220.797,94.863z"/>
		<path style="fill:#FFFFFF;" d="M244.057,93.469c0,0.975-0.221,1.833-0.663,2.572c-0.442,0.741-1.097,1.318-1.963,1.733
			c-0.578,0.289-1.296,0.515-2.153,0.677s-1.827,0.244-2.91,0.244c-1.246,0-2.406-0.108-3.48-0.325
			c-1.074-0.217-2.071-0.533-2.992-0.948l0.406-5.064l1.896-0.135l0.271,3.791c0.577,0.253,1.209,0.433,1.896,0.542
			c0.686,0.108,1.381,0.163,2.085,0.163c0.686,0,1.336-0.045,1.949-0.136c0.613-0.09,1.183-0.216,1.706-0.379
			c0.325-0.343,0.56-0.731,0.704-1.165c0.145-0.433,0.217-0.848,0.217-1.246c0-0.542-0.127-0.993-0.379-1.354
			c-0.253-0.361-0.596-0.672-1.029-0.934c-0.434-0.261-0.948-0.492-1.544-0.69c-0.596-0.198-1.245-0.406-1.949-0.623
			c-0.813-0.235-1.598-0.497-2.355-0.786c-0.759-0.289-1.432-0.636-2.018-1.042c-0.587-0.406-1.057-0.902-1.408-1.489
			c-0.353-0.586-0.528-1.304-0.528-2.153c0-0.975,0.23-1.805,0.69-2.491c0.461-0.686,1.097-1.218,1.909-1.598
			c0.578-0.271,1.223-0.469,1.937-0.596c0.713-0.126,1.493-0.189,2.342-0.189c1.102,0,2.167,0.1,3.195,0.298
			c1.029,0.199,2.004,0.479,2.925,0.839l-0.406,4.739l-1.896,0.189l-0.271-3.601c-0.56-0.163-1.146-0.293-1.761-0.393
			c-0.613-0.099-1.255-0.149-1.922-0.149c-0.578,0-1.129,0.037-1.652,0.108c-0.523,0.072-0.966,0.172-1.326,0.298
			c-0.271,0.325-0.488,0.668-0.65,1.029s-0.244,0.749-0.244,1.164c0,0.524,0.136,0.961,0.406,1.313
			c0.271,0.352,0.637,0.659,1.097,0.92c0.461,0.262,1.002,0.492,1.625,0.691s1.286,0.397,1.99,0.596
			c0.83,0.235,1.62,0.497,2.369,0.785c0.749,0.289,1.413,0.641,1.99,1.056c0.578,0.416,1.038,0.925,1.382,1.53
			C243.887,91.866,244.057,92.602,244.057,93.469z"/>
		<path style="fill:#FFFFFF;" d="M246.333,96.908l2.139-0.379V82.014l-2.274-0.406l0.136-1.462h7.202l-0.135,1.462l-2.14,0.406
			v14.514l2.274,0.379l-0.135,1.489h-7.203L246.333,96.908z"/>
		<path style="fill:#FFFFFF;" d="M272.057,85.805l-1.869,0.189l-0.515-3.98h-4.359v14.514l2.816,0.379l-0.136,1.489h-8.313
			l0.135-1.489l2.708-0.379V82.014h-4.387l-0.487,3.791l-1.896,0.189l-0.189-5.849h16.681L272.057,85.805z"/>
		<path style="fill:#FFFFFF;" d="M292.392,81.635l-1.436,0.406l-6.661,9.775v4.711l2.897,0.379l-0.135,1.489h-8.395l0.135-1.489
			l2.735-0.379v-4.711l-6.418-9.775l-1.598-0.406l0.136-1.489h7.338l-0.135,1.462l-2.735,0.433l4.955,7.717h0.163l5.091-7.717
			l-2.816-0.433l0.136-1.462h6.878L292.392,81.635z"/>
	</g>
	<g>
		<polygon style="fill:#FFFFFF;" points="100.989,78.101 104.619,85.455 112.734,86.634 106.862,92.359 108.248,100.441 
			100.989,96.625 93.731,100.441 95.117,92.359 89.245,86.634 97.36,85.455 		"/>
		<polygon style="fill:#FFFFFF;" points="322.36,78.101 325.99,85.455 334.105,86.634 328.233,92.359 329.619,100.441 
			322.36,96.625 315.102,100.441 316.488,92.359 310.616,86.634 318.731,85.455 		"/>
	</g>
	<rect x="29.285" y="340.847" style="fill:#96BED6;" width="138.78" height="34.015"/>
	<rect x="255.285" y="340.847" style="fill:#96BED6;" width="138.78" height="34.015"/>
</g>
<g>
</g>
<g>
</g>
<g>
</g>
<g>
</g>
<g>
</g>
<g>
</g>
<g>
</g>
<g>
</g>
<g>
</g>
<g>
</g>
<g>
</g>
<g>
</g>
<g>
</g>
<g>
</g>
<g>
</g>
</svg>
