<?xml version="1.0" encoding="iso-8859-1"?>
<!-- Generator: Adobe Illustrator 19.0.0, SVG Export Plug-In . SVG Version: 6.00 Build 0)  -->
<svg version="1.1" id="Capa_1" xmlns="http://www.w3.org/2000/svg" xmlns:xlink="http://www.w3.org/1999/xlink" x="0px" y="0px"
	 viewBox="0 0 468.293 468.293" style="enable-background:new 0 0 468.293 468.293;" xml:space="preserve">
<g>
	<rect x="126.358" y="93.596" style="fill:#F6C358;" width="24.014" height="65.274"/>
	<rect x="317.939" y="93.596" style="fill:#F6C358;" width="24.014" height="65.274"/>
</g>
<rect x="18.725" y="173.268" style="fill:#44C4A1;" width="430.829" height="247.358"/>
<g>
	<path style="fill:#27A2DB;" d="M462.049,173.881H6.244c-3.448,0-6.244-2.796-6.244-6.244v-17.531c0-3.448,2.795-6.244,6.244-6.244
		h455.805c3.448,0,6.244,2.795,6.244,6.244v17.531C468.293,171.086,465.497,173.881,462.049,173.881z"/>
	<path style="fill:#27A2DB;" d="M462.049,450.665H6.244c-3.448,0-6.244-2.796-6.244-6.244V426.89c0-3.448,2.795-6.244,6.244-6.244
		h455.805c3.448,0,6.244,2.796,6.244,6.244v17.531C468.293,447.87,465.497,450.665,462.049,450.665z"/>
</g>
<g>
	<rect x="177.108" y="200.904" style="fill:#E1E6E9;" width="48.028" height="48.028"/>
	<rect x="243.138" y="200.904" style="fill:#E1E6E9;" width="48.028" height="48.028"/>
	<rect x="309.198" y="200.904" style="fill:#E1E6E9;" width="48.028" height="48.028"/>
	<rect x="375.259" y="200.904" style="fill:#E1E6E9;" width="48.028" height="48.028"/>
	<rect x="45.031" y="200.904" style="fill:#E1E6E9;" width="48.028" height="48.028"/>
</g>
<polygon style="fill:#EBF0F3;" points="45.028,248.936 93.058,248.936 93.058,200.906 "/>
<rect x="111.067" y="200.904" style="fill:#E1E6E9;" width="48.028" height="48.028"/>
<g>
	<polygon style="fill:#EBF0F3;" points="111.069,248.936 159.099,248.936 159.099,200.906 	"/>
	<polygon style="fill:#EBF0F3;" points="177.111,248.936 225.141,248.936 225.141,200.906 	"/>
	<polygon style="fill:#EBF0F3;" points="243.152,248.936 291.182,248.936 291.182,200.906 	"/>
	<polygon style="fill:#EBF0F3;" points="309.193,248.936 357.223,248.936 357.223,200.906 	"/>
	<polygon style="fill:#EBF0F3;" points="375.235,248.936 423.265,248.936 423.265,200.906 	"/>
</g>
<g>
	<rect x="309.198" y="272.921" style="fill:#E1E6E9;" width="48.028" height="48.028"/>
	<rect x="375.259" y="272.921" style="fill:#E1E6E9;" width="48.028" height="48.028"/>
	<rect x="45.031" y="272.921" style="fill:#E1E6E9;" width="48.028" height="48.028"/>
</g>
<polygon style="fill:#EBF0F3;" points="45.028,320.981 93.058,320.981 93.058,272.951 "/>
<rect x="111.067" y="272.921" style="fill:#E1E6E9;" width="48.028" height="48.028"/>
<g>
	<polygon style="fill:#EBF0F3;" points="111.069,320.981 159.099,320.981 159.099,272.951 	"/>
	<polygon style="fill:#EBF0F3;" points="309.193,320.981 357.223,320.981 357.223,272.951 	"/>
	<polygon style="fill:#EBF0F3;" points="375.235,320.981 423.265,320.981 423.265,272.951 	"/>
</g>
<g>
	<rect x="309.198" y="344.994" style="fill:#E1E6E9;" width="48.028" height="48.028"/>
	<rect x="375.259" y="344.994" style="fill:#E1E6E9;" width="48.028" height="48.028"/>
	<rect x="45.031" y="344.994" style="fill:#E1E6E9;" width="48.028" height="48.028"/>
</g>
<polygon style="fill:#EBF0F3;" points="45.028,393.027 93.058,393.027 93.058,344.997 "/>
<rect x="111.067" y="344.994" style="fill:#E1E6E9;" width="48.028" height="48.028"/>
<g>
	<polygon style="fill:#EBF0F3;" points="111.069,393.027 159.099,393.027 159.099,344.997 	"/>
	<polygon style="fill:#EBF0F3;" points="309.193,393.027 357.223,393.027 357.223,344.997 	"/>
	<polygon style="fill:#EBF0F3;" points="375.235,393.027 423.265,393.027 423.265,344.997 	"/>
</g>
<path style="fill:#64798A;" d="M291.182,395.602H177.111v-65.615c0-31.5,25.536-57.036,57.036-57.036h0
	c31.5,0,57.036,25.536,57.036,57.036V395.602z"/>
<path style="fill:#3A556A;" d="M234.146,272.95L234.146,272.95c-3.905,0-7.715,0.397-11.399,1.145
	c26.037,5.281,45.636,28.297,45.636,55.891v65.616h22.798v-65.616C291.182,298.487,265.646,272.95,234.146,272.95z"/>
<path style="fill:#FCD462;" d="M372.514,112.007H95.778c-6.897,0-12.488-5.591-12.488-12.488V30.115
	c0-6.897,5.591-12.488,12.488-12.488h276.736c6.897,0,12.488,5.591,12.488,12.488v69.404
	C385.002,106.416,379.411,112.007,372.514,112.007z"/>
<path style="fill:#F6C358;" d="M372.514,100.061H95.778c-6.897,0-12.488-5.591-12.488-12.488v11.947
	c0,6.898,5.591,12.488,12.488,12.488h276.736c6.897,0,12.488-5.59,12.488-12.488V87.573
	C385.002,94.469,379.411,100.061,372.514,100.061z"/>
<g>
	<path style="fill:#E56353;" d="M123.749,50.039c-2.006,0-3.651,0.409-4.934,1.226c-1.288,0.818-1.93,2.053-1.93,3.712
		c0,1.654,0.642,2.919,1.93,3.793c1.283,0.879,4.017,1.821,8.205,2.833c4.183,1.012,7.339,2.434,9.464,4.264
		c2.12,1.83,3.18,4.53,3.18,8.09c0,3.565-1.34,6.455-4.031,8.675c-2.686,2.22-6.208,3.327-10.572,3.327
		c-6.384,0-12.05-2.196-16.994-6.598l4.321-5.2c4.126,3.584,8.409,5.376,12.849,5.376c2.22,0,3.983-0.48,5.286-1.431
		c1.307-0.955,1.958-2.22,1.958-3.798s-0.613-2.805-1.84-3.679c-1.226-0.879-3.342-1.673-6.336-2.396
		c-2.999-0.723-5.281-1.383-6.836-1.987c-1.559-0.604-2.942-1.393-4.15-2.367c-2.415-1.83-3.617-4.63-3.617-8.409
		s1.369-6.688,4.117-8.732c2.743-2.044,6.141-3.066,10.191-3.066c2.61,0,5.2,0.428,7.767,1.283c2.572,0.856,4.792,2.063,6.66,3.622
		l-3.679,5.2c-1.207-1.093-2.843-1.987-4.906-2.69C127.79,50.391,125.755,50.039,123.749,50.039z"/>
	<path style="fill:#E56353;" d="M166.825,79.244c2.372,0,4.416-0.399,6.132-1.198c1.711-0.799,3.503-2.073,5.376-3.827l4.435,4.559
		c-4.321,4.787-9.569,7.182-15.739,7.182c-6.175,0-11.294-1.982-15.363-5.956s-6.103-8.994-6.103-15.069s2.073-11.137,6.222-15.187
		c4.145-4.05,9.383-6.075,15.71-6.075s11.613,2.334,15.858,7.007l-4.378,4.792c-1.949-1.868-3.789-3.175-5.524-3.912
		c-1.73-0.742-3.765-1.112-6.103-1.112c-4.126,0-7.591,1.336-10.396,4.002c-2.805,2.667-4.207,6.075-4.207,10.22
		c0,4.15,1.393,7.615,4.178,10.401C159.709,77.852,163.008,79.244,166.825,79.244z"/>
	<path style="fill:#E56353;" d="M191.182,85.495V44.668h6.893v17.697h20.269V44.668h6.893v40.828h-6.893V68.791h-20.269v16.704
		H191.182z"/>
	<path style="fill:#E56353;" d="M270.736,79.857c-4.126,4.031-9.227,6.046-15.301,6.046c-6.075,0-11.175-2.015-15.301-6.046
		c-4.131-4.031-6.194-9.051-6.194-15.069s2.063-11.042,6.194-15.069c4.126-4.031,9.226-6.046,15.301-6.046
		c6.075,0,11.175,2.015,15.301,6.046c4.131,4.026,6.194,9.051,6.194,15.069S274.867,75.827,270.736,79.857z M265.688,54.303
		c-2.786-2.881-6.203-4.321-10.253-4.321c-4.05,0-7.468,1.44-10.253,4.321c-2.781,2.885-4.174,6.379-4.174,10.486
		s1.393,7.601,4.174,10.486c2.786,2.881,6.203,4.321,10.253,4.321c4.05,0,7.468-1.44,10.253-4.321
		c2.781-2.885,4.174-6.379,4.174-10.486S268.469,57.188,265.688,54.303z"/>
	<path style="fill:#E56353;" d="M319.802,79.857c-4.126,4.031-9.227,6.046-15.301,6.046c-6.075,0-11.175-2.015-15.301-6.046
		c-4.131-4.031-6.194-9.051-6.194-15.069s2.063-11.042,6.194-15.069c4.126-4.031,9.227-6.046,15.301-6.046
		c6.075,0,11.175,2.015,15.301,6.046c4.131,4.026,6.194,9.051,6.194,15.069S323.932,75.827,319.802,79.857z M314.753,54.303
		c-2.786-2.881-6.203-4.321-10.253-4.321c-4.05,0-7.468,1.44-10.253,4.321c-2.781,2.885-4.174,6.379-4.174,10.486
		s1.393,7.601,4.174,10.486c2.786,2.881,6.203,4.321,10.253,4.321c4.05,0,7.468-1.44,10.253-4.321
		c2.781-2.885,4.174-6.379,4.174-10.486S317.534,57.188,314.753,54.303z"/>
	<path style="fill:#E56353;" d="M334.699,85.495V44.668h6.893v34.287h18.634v6.541H334.699z"/>
</g>
<g>
</g>
<g>
</g>
<g>
</g>
<g>
</g>
<g>
</g>
<g>
</g>
<g>
</g>
<g>
</g>
<g>
</g>
<g>
</g>
<g>
</g>
<g>
</g>
<g>
</g>
<g>
</g>
<g>
</g>
</svg>
