<?xml version="1.0" encoding="utf-8"?>
<!-- Generator: Adobe Illustrator 21.0.0, SVG Export Plug-In . SVG Version: 6.00 Build 0)  -->
<svg version="1.1" xmlns="http://www.w3.org/2000/svg" xmlns:xlink="http://www.w3.org/1999/xlink" x="0px" y="0px"
	 viewBox="0 0 680 556" style="enable-background:new 0 0 680 556;" xml:space="preserve">
<style type="text/css">
	.st0{fill:none;stroke:#000000;stroke-miterlimit:10;}
	.st1{fill:none;stroke:#000000;stroke-width:0.75;stroke-miterlimit:10;}
	.st2{fill:#FDE7CC;}
	.st3{fill:none;stroke:#000000;stroke-width:0.5;stroke-miterlimit:10;}
	.st4{fill:#231F20;}
	.st5{fill:#F8A080;}
	.st6{fill:#231F20;stroke:#000000;stroke-miterlimit:10;}
	.st7{fill:#FFFFFF;}
	.st8{fill:#BB6D29;}
	.st9{stroke:#000000;stroke-miterlimit:10;}
	.st10{fill:none;stroke:#000000;stroke-width:8;stroke-miterlimit:10;}
	.st11{stroke:#000000;stroke-width:8;stroke-miterlimit:10;}
	.st12{fill:#E5DB4E;}
	.st13{fill:#050100;}
	.st14{fill:none;stroke:#000000;stroke-width:2;stroke-miterlimit:10;}
	.st15{fill:#E2B68F;stroke:#000000;stroke-width:5;stroke-miterlimit:10;}
	.st16{fill:#F4CABC;}
	.st17{fill:#694227;stroke:#231F20;stroke-width:5;stroke-miterlimit:10;}
	.st18{fill:#694227;}
	.st19{fill:none;stroke:#000000;stroke-width:5;stroke-miterlimit:10;}
	.st20{fill:none;stroke:#000000;stroke-width:7;stroke-miterlimit:10;}
	.st21{fill:#C5D4A8;stroke:#000000;stroke-width:5;stroke-miterlimit:10;}
	.st22{fill:#CE922A;stroke:#000000;stroke-width:5;stroke-miterlimit:10;}
	.st23{fill:#F3CABD;}
</style>
<g id="Layer_13">
	<path class="st15" d="M355.7,74.7c3.3,2.1,6.5,4.4,9.7,6.9c0.4,0.3,0.8,0.6,1.1,0.9c0,0,1.3-1.7,4-4.3c2.9-2.8,7.3-6.5,13.4-10.6
		c5-3.3,11.3-6.9,18.7-10.1C413,53,425.7,49,441,46.6c2.6-0.4,5.3-0.8,8.1-1c0.6-0.1,1.2-0.1,1.9-0.2c0.5-0.1,1-0.1,1.6-0.1
		c4.8-0.4,9.7-0.7,14.9-0.8c0,0-22-13-7-24c0,0,20-11,23,19c0,0,2-30,18-27s8,27,8,27s11-1.9,28.9,1c2.4,0.4,5,0.9,7.6,1.5
		c8.1,1.8,17.3,4.5,27.2,8.7c7,3,14.5,6.6,22.2,11.2c7.7,4.5,15.7,9.9,23.8,16.4c0.5,0.4,1.1,0.9,1.6,1.3c1.2,1,2.4,2,3.6,3
		c0,0,2.5,1.9,6,5.6l0,0c11.3,11.8,32.9,41.2,13,79.4c0,0,12,5,13,23c0.4,6.6-2,7.7-5,6.4c-0.6-0.2-1.2-0.6-1.9-1
		c-1.8-1.1-3.7-2.7-5.4-4.4c-3.1-3-5.7-6.1-5.7-6.1s3.9,1.2,7.4,4.9c1.4,1.4,2.7,3.3,3.7,5.5c1.1,2.6,1.9,5.7,1.9,9.6
		c0,1.8-0.3,3.2-0.7,4.2c-0.8,1.7-2.2,2.3-3.9,2.2c-2.4-0.1-5.5-1.8-8.2-3.6c-4-4.2-7.2-5.8-7.2-5.8s3.3,3.1,7.2,5.8
		c1.5,1.5,3.1,3.4,4.6,5.6c0.5,0.7,1,1.5,1.5,2.3c8.2,13.1,15.6,37.2,6.6,79.3c-5.3,24.9-37,51.3-76.9,75.7
		c-15.6,9.5-32.5,18.7-49.6,27.3c-50.1,25.3-101.9,45.8-128.1,55.6c-11,4.1-17.4,6.4-17.4,6.4s-103,37-182,17s-164-120-164-120
		s-38-45-22-149s168-148,168-148S286.6,30.8,355.7,74.7"/>
	<path class="st16" d="M379.5,457.6l2-6.1c39-122.5-142-94.9-142-94.9c-107,24.5-96.1,82.5-96.1,82.5l42.6,34.4l48.3,7.6
		c0,0,63.7-3,79.7-6.3C330,471.4,379.5,457.6,379.5,457.6z"/>
	<path class="st17" d="M27.9,352c0,0-23.4,87.5,48.6,160.5s116,18,116,18s24-37-12-65s-88-42-118-79S27.9,352,27.9,352z"/>
	<path class="st18" d="M351.6,46c-0.2-0.2-0.4-0.5-0.3-0.9c0.1-0.5,0.2-0.9,0.2-1.4c-0.1,0.2-0.1,0.4-0.2,0.6
		c-0.1,0.3-0.3,0.5-0.6,0.6c0,0.2,0.1,0.4,0.1,0.6c0.2,0.5,0.5,1,0.7,1.6C351.6,46.7,351.6,46.3,351.6,46z"/>
	<path class="st18" d="M452.6,45.3c0,0.1,0,0.1-0.1,0.2c-5.3,15.2-18.8,28-31.6,36.8c-16,10.9-36.9,13.3-55.1,7.1
		c-1.2-0.4-2.1-1.1-2.6-2c-0.2-0.1-0.4-0.3-0.6-0.5c-1.4-1.4-1.7-3.6-0.9-5.6c-0.8-0.2-1.6-0.6-2.2-1.4c-1.1-1.3-2-2.5-2.8-3.9
		c-0.3-0.4-0.6-0.8-0.9-1.2c3.3,2.1,6.5,4.4,9.7,6.9c-3.9-6.3-16.8-32.2,4.1-64.4c0,0,14.3-24,72.6,27.9l8.8,0.3
		C451.5,45.3,452,45.3,452.6,45.3z"/>
	<path class="st18" d="M619.5,75c11.8-47.7-3.7-62.8-10.8-67l1.1-0.4l-4.3-1.2c0,0,0,0,0,0.1c0,0,0,0,0,0
		C564.2,8.4,548.7,39.2,546,42c-2.7-0.6-5.2-1.1-7.6-1.5c0.9,1.9,3,3.3,5.3,3c0.2,0.8,0.6,1.6,1.3,2.4c10.5,10.9,23.1,19.7,37,25.7
		c11.6,5,24.4,8.7,37,8c0.6,0,1.2-0.1,1.7-0.1c-0.5-0.4-1.1-0.9-1.6-1.3L619.5,75z M557.1,42.9c0.3,0.3,0.6,0.7,0.8,1
		c0,0.2,0,0.3,0,0.5c-0.4-0.4-0.8-0.7-1.2-1.1C556.8,43.1,557,43,557.1,42.9z"/>
	<path class="st19" d="M452.5,45.5l-1.5-0.1l-8.9-0.3c-58.3-51.9-72.6-27.9-72.6-27.9c-21,32.2-8,58.1-4.1,64.4c0.6,1,1,1.5,1,1.5
		s-1.5,1.3-3.8,3.7c-9.1,10-29.7,39.9-7.2,87.9"/>
	<path class="st19" d="M545.8,42.2c0.1,0,0.1-0.1,0.3-0.2c2.7-2.8,18.1-33.6,59.5-35.5c0,0,0,0,0,0c0.2,0.1,1.4,0.4,3.2,1.5
		c7.1,4.3,22.6,19.3,10.8,67l-0.3,3.2l-0.1,1.4l0,0.1l11.3,8.3l0,0"/>
</g>
<g id="Layer_8_copy">
	<path class="st18" d="M603.1,135.8c0.6,34.8-44.4,64.2-100.6,65.5c-56.2,1.4-102.2-25.8-102.9-60.6c-0.3-14.9,7.8-28.8,21.5-39.9
		c8-6.5,17.9-12,29.2-16.3c14.7-5.5,31.7-8.9,49.9-9.4c21.4-0.5,41.3,3.1,57.8,9.7c23.5,9.4,40.1,24.8,44.1,42.9
		C602.8,130.5,603.1,133.1,603.1,135.8z"/>
	<g>
		<path class="st18" d="M538.5,45.5c1.5,1.1,3,2.3,4.5,3.4c0,0,0,0.1-0.1,0.1L538.5,45.5z"/>
	</g>
	<g>
		<path class="st18" d="M606,86.5L606,86.5c1.2,0.5,2.3,1,3.4,1.5C608.2,87.5,607.1,87,606,86.5z"/>
	</g>
	<g>
		<path class="st18" d="M609.8,7.6L608.7,8c-0.6,0.2-1.2,0.4-1.8,0.6c-0.5-0.7-0.9-1.4-1.4-2c0,0,0,0,0-0.1L609.8,7.6z"/>
	</g>
</g>
<g id="Layer_4">
	<g id="Layer_7">
	</g>
	<g>
		<path class="st16" d="M384.9,83.3c-0.3-0.4-0.4,0.7,0.1,0.5c0.4-0.2,0.4-0.8,0.3-1.3c-3.2-13.8,0.8-28.4-1.6-42.3l0.2,1.7
			c12.4,7.6,22.8,18.4,30.1,31c-8.3,2.4-16.3,5.7-23.8,10c0.1-0.6,0.1-1.2,0.2-1.8L384.9,83.3z"/>
	</g>
	<path class="st9" d="M539.7,138.7c6.9,11.6,21.9,15.3,33.4,8.2c11.5-7.1,15.2-22.2,8.3-33.8s-21.9-15.3-33.4-8.2
		C536.5,111.9,532.8,127.1,539.7,138.7z"/>
	<path class="st9" d="M434,138.6c6.9,11.6,21.9,15.3,33.4,8.2c11.5-7.1,15.2-22.2,8.3-33.8c-6.9-11.6-21.9-15.3-33.4-8.2
		S427.1,127,434,138.6z"/>
	<path class="st16" d="M562.9,133c1.6,4.8,6.7,7.4,11.4,5.8s7.2-6.8,5.6-11.6c-1.6-4.8-6.7-7.4-11.4-5.8
		C563.9,123,561.4,128.2,562.9,133z"/>
	<path class="st16" d="M455.7,134.1c1.6,4.8,6.7,7.4,11.4,5.8c4.7-1.6,7.2-6.8,5.6-11.6c-1.6-4.8-6.7-7.4-11.4-5.8
		C456.7,124.1,454.1,129.3,455.7,134.1z"/>
	<g>
		<path class="st16" d="M570,53.6c0.1-0.4-0.7,0.1-0.3,0.3s0.8-0.1,1.1-0.5c8-9.7,20.6-14.7,29.1-23.8l-1.1,1.1
			c1.3,12.9-0.8,26.1-5.8,38c-6.1-4.6-12.8-8.5-19.9-11.4c0.5-0.3,0.9-0.5,1.4-0.8L570,53.6z"/>
	</g>
</g>
<g id="Layer_8">
	<g>
		<g>
			<path d="M280.7,454.4c0.1,0,0.2-0.1,0.4-0.1c1.5-0.4,2.6-2.1,2.1-3.7c-0.5-1.5-2.1-2.6-3.7-2.1c-0.1,0-0.2,0.1-0.4,0.1
				c-1.5,0.4-2.6,2.1-2.1,3.7C277.5,453.8,279.1,454.9,280.7,454.4L280.7,454.4z"/>
		</g>
	</g>
	<g>
		<g>
			<path d="M503.2,168.3c2.6-4.3,5.7-8,9.4-11.4c-1.4,0-2.8,0-4.2,0c3.9,3.4,7.5,7.2,10.7,11.3c2.4,3,6.6-1.2,4.2-4.2
				c-3.2-4.1-6.8-7.8-10.7-11.3c-1.2-1.1-3-1.2-4.2,0c-4,3.8-7.4,8-10.3,12.6C496,168.5,501.1,171.6,503.2,168.3L503.2,168.3z"/>
		</g>
	</g>
	<g>
		<g>
			<path d="M513,143.7c-0.3-0.1-0.6-0.2-0.9-0.3c-2-0.6-3.6,1-3.8,2.9c-0.3,3.1-0.6,6.3-0.9,9.4c-0.2,1.6,1.5,3,3,3
				c1.7,0,2.8-1.4,3-3c0.3-3.1,0.6-6.3,0.9-9.4c-1.3,1-2.5,1.9-3.8,2.9c0.3,0.1,0.6,0.2,0.9,0.3C515.1,150.6,516.7,144.8,513,143.7
				L513,143.7z"/>
		</g>
	</g>
	<g>
		<path d="M510.2,139.2l-0.3-0.2c-1.9-0.8-3.5-2.2-5.3-3.4c-1.8-1.1-3.9-1.9-5.9-1.3c-0.6,0.2-1.2,0.5-1.5,1
			c-0.7,0.9-0.5,2.3,0.1,3.3s1.5,1.7,2.5,2.4c3.1,2.3,6.2,4.7,9.9,6l1.8-0.5c-0.2,0-0.3,0.1-0.5,0.1c2.9-2.1,6.6-3,9.1-5.6
			c0.7-0.8,1.3-1.7,1.9-2.6c0.7-1,1.3-2.3,0.7-3.4c-0.4-0.7-1.2-1.1-1.9-1.2c-0.8-0.1-1.6,0.1-2.3,0.4c-3.2,1-6.2,2.7-8.6,4.9
			L510.2,139.2z"/>
		<g>
			<path d="M510.9,137.9c-2.9-1.9-15.8-10.1-15.7-0.9c0,3.5,3.9,5.6,6.3,7.4c3.2,2.2,6.3,4.8,10.2,3.7c1.9-0.5,1.1-3.4-0.8-2.9
				c-0.2,0-0.3,0.1-0.5,0.1c0.4,0.9,0.8,1.8,1.2,2.7c3.5-2.3,15.4-7,12.4-13.4c-2.8-5.9-12.7,1.4-15.3,3.7c-1.1,0.9,0.1,3,1.5,2.5
				c0.1-0.1,0.3-0.1,0.4-0.2c1.8-0.7,1-3.6-0.8-2.9c-0.1,0.1-0.3,0.1-0.4,0.2c0.5,0.8,1,1.7,1.5,2.5c1.6-1.4,3.3-2.6,5.2-3.5
				c1.6-1.6,2.8-1.6,3.7-0.1c1.5,1,1.3,2.1-0.8,3.3c-2.4,2.4-6,3.5-8.8,5.3c-1.4,0.9-0.5,3.2,1.2,2.7c0.2,0,0.3-0.1,0.5-0.1
				c-0.3-1-0.5-1.9-0.8-2.9c-2.6,0.7-8.6-2.8-10.2-5.1c-2.2-1.2-1.2-2.3,3.1-3.2c0.9,0.6,1.7,1.2,2.6,1.8c1,0.6,2,1.1,3,1.8
				C511,141.5,512.6,138.9,510.9,137.9z"/>
		</g>
	</g>
	<path class="st20" d="M493.5,124.5c0,22.1-17.9,40-40,40s-40-17.9-40-40c0-8.8,2.9-17,7.7-23.6c6.7-9.2,17.2-15.4,29.2-16.3
		c1-0.1,2.1-0.1,3.1-0.1C475.6,84.5,493.5,102.4,493.5,124.5z"/>
	<path class="st15" d="M602.5,123c0,1.7-0.1,3.3-0.3,4.9c-4-18.1-20.6-33.6-44.1-42.9c1.9-0.3,3.9-0.5,5.9-0.5
		C585.3,84.5,602.5,101.7,602.5,123z"/>
	<path class="st20" d="M602.2,127.9c-2.4,19-18.6,33.6-38.2,33.6c-21.3,0-38.5-17.2-38.5-38.5c0-19.2,14.1-35.2,32.6-38
		C581.6,94.3,598.2,109.8,602.2,127.9z"/>
	<g>
		<g>
			<path d="M496.7,121.7c3.3-3.3,7.2-5.4,11.8-6.1c3.8-0.6,11.5-0.6,13.7,3.3c1.9,3.3,7.1,0.3,5.2-3c-3.2-5.5-11.3-6.9-17.2-6.5
				c-6.8,0.5-13,3.3-17.8,8.1C489.7,120.2,493.9,124.4,496.7,121.7L496.7,121.7z"/>
		</g>
	</g>
	<polyline class="st21" points="385.2,224.1 378,211.1 388.2,211 388.1,200.2 520,240.8 522.9,240.8 568,240.6 651.4,186.9
		651.5,198.8 669.9,198.8 570.1,255.8 522.1,256 388.4,224.7 	"/>
	<polygon class="st22" points="669,204 669,448.4 576,494.5 573,496 520.7,496 383.6,449.6 380,448.4 380,220.6 387.5,222.5
		390.8,223.3 517.4,255.8 566.5,255.8 569.8,254.1 574,252 589.5,244.1 612.4,232.6 	"/>
	<polygon class="st19" points="525,255.8 525,496 576,496 573.3,254 	"/>
	<g>
		<path class="st23" d="M351.3,185.7c-0.3,0.2-0.6,0.5-0.8,0.7c8.5-3.5,17-7.1,25.5-10.8"/>
		<g>
			<path d="M349.2,183.5c-0.3,0.2-0.6,0.5-0.8,0.7c-2.2,1.9,0.2,6.1,2.9,5c8.8-3.6,17.5-7.3,26.2-11.1c3.5-1.5,0.5-6.7-3-5.2
				c-8.2,3.6-16.5,7.1-24.8,10.5c1,1.7,1.9,3.3,2.9,5c0.3-0.2,0.6-0.5,0.8-0.7C356.4,185.3,352.2,181.1,349.2,183.5L349.2,183.5z"/>
		</g>
	</g>
	<g>
		<g>
			<path d="M352.2,199.3c9.8-4.7,19.8-8.9,30-12.6c3.6-1.3,2-7.1-1.6-5.8c-10.7,3.9-21.2,8.3-31.4,13.2
				C345.7,195.8,348.7,200.9,352.2,199.3L352.2,199.3z"/>
		</g>
	</g>
	<g>
		<g>
			<path d="M594.5,185.1c7.9,2.6,15.6,5.7,23.1,9.2c3.5,1.6,6.5-3.6,3-5.2c-8-3.7-16.2-7-24.6-9.8
				C592.4,178.1,590.8,183.9,594.5,185.1L594.5,185.1z"/>
		</g>
	</g>
	<g>
		<g>
			<path d="M600.6,175.8c7.5,2.8,14.8,6,22,9.6c3.4,1.7,6.5-3.4,3-5.2c-7.6-3.9-15.4-7.3-23.4-10.2
				C598.5,168.7,597,174.5,600.6,175.8L600.6,175.8z"/>
		</g>
	</g>
</g>
</svg>
