<?xml version="1.0" encoding="utf-8"?>
<!-- Generator: Adobe Illustrator 21.0.0, SVG Export Plug-In . SVG Version: 6.00 Build 0)  -->
<svg version="1.1" xmlns="http://www.w3.org/2000/svg" xmlns:xlink="http://www.w3.org/1999/xlink" x="0px" y="0px"
	 viewBox="0 0 936 660" style="enable-background:new 0 0 936 660;" xml:space="preserve">
<style type="text/css">
	.st0{fill:none;stroke:#000000;stroke-miterlimit:10;}
	.st1{fill:none;stroke:#000000;stroke-width:0.75;stroke-miterlimit:10;}
	.st2{fill:#FDE7CC;}
	.st3{fill:none;stroke:#000000;stroke-width:0.5;stroke-miterlimit:10;}
	.st4{fill:#231F20;}
	.st5{fill:#F8A080;}
	.st6{fill:#231F20;stroke:#000000;stroke-miterlimit:10;}
	.st7{fill:#FFFFFF;}
	.st8{fill:#BB6D29;}
	.st9{stroke:#000000;stroke-miterlimit:10;}
	.st10{fill:none;stroke:#000000;stroke-width:8;stroke-miterlimit:10;}
	.st11{stroke:#000000;stroke-width:8;stroke-miterlimit:10;}
	.st12{fill:#E5DB4E;}
	.st13{fill:#050100;}
	.st14{fill:none;stroke:#000000;stroke-width:2;stroke-miterlimit:10;}
	.st15{fill:#E2B68F;stroke:#000000;stroke-width:5;stroke-miterlimit:10;}
	.st16{fill:#F4CABC;}
	.st17{fill:#694227;stroke:#231F20;stroke-width:5;stroke-miterlimit:10;}
	.st18{fill:#694227;}
	.st19{fill:none;stroke:#000000;stroke-width:5;stroke-miterlimit:10;}
	.st20{fill:none;stroke:#000000;stroke-width:7;stroke-miterlimit:10;}
	.st21{fill:#C5D4A8;stroke:#000000;stroke-width:5;stroke-miterlimit:10;}
	.st22{fill:#CE922A;stroke:#000000;stroke-width:5;stroke-miterlimit:10;}
	.st23{fill:#F3CABD;}
</style>
<g id="Layer_13">
	<path class="st15" d="M509.7,151.7c3.3,2.1,6.5,4.4,9.7,6.9c0.4,0.3,0.8,0.6,1.1,0.9c0,0,1.3-1.7,4-4.3c2.9-2.8,7.3-6.6,13.4-10.6
		c5.1-3.3,11.3-6.9,18.7-10.1c10.3-4.5,23-8.5,38.3-10.9c2.6-0.4,5.3-0.8,8.1-1.1c0.6-0.1,1.2-0.1,1.9-0.2c0.5-0.1,1.1-0.1,1.6-0.1
		c4.8-0.4,9.7-0.7,14.9-0.8c0,0-22-13-7-24c0,0,20-11,23,19c0,0,2-30,18-27s8,27,8,27s11-1.9,28.9,1c2.4,0.4,5,0.9,7.6,1.5
		c8.1,1.8,17.3,4.5,27.2,8.7c7,2.9,14.5,6.6,22.2,11.2c7.7,4.5,15.7,9.9,23.8,16.4c0.5,0.4,1.1,0.9,1.6,1.3c1.2,1,2.4,2,3.6,3
		c0,0,2.5,1.9,6,5.6l0,0c11.3,11.8,32.9,41.2,13,79.4c0,0,12,5,13,23c0.4,6.6-2,7.7-5,6.4c-0.6-0.2-1.2-0.6-1.9-1
		c-1.8-1.1-3.7-2.7-5.4-4.4c-3.1-3-5.7-6.1-5.7-6.1s3.9,1.2,7.4,4.9c1.4,1.4,2.7,3.3,3.7,5.5c1.1,2.6,1.9,5.7,1.9,9.6
		c0,1.8-0.3,3.2-0.7,4.2c-0.8,1.7-2.2,2.3-3.9,2.2c-2.4-0.1-5.5-1.8-8.2-3.6c-4-4.2-7.2-5.8-7.2-5.8s3.3,3.1,7.2,5.8
		c1.5,1.5,3.1,3.4,4.6,5.6c0.5,0.7,1,1.5,1.5,2.3c8.2,13.1,15.6,37.2,6.6,79.3c-5.3,24.9-37,51.3-76.9,75.7
		c-15.6,9.5-32.5,18.7-49.6,27.3c-50.1,25.3-101.9,45.7-128.1,55.6c-11,4.1-17.4,6.4-17.4,6.4s-103,37-182,17s-164-120-164-120
		s-38-45-22-149s168-148,168-148S440.6,107.8,509.7,151.7"/>
	<path class="st16" d="M533.5,534.6l2-6.1c39-122.5-142-94.9-142-94.9c-107,24.5-96.1,82.5-96.1,82.5l42.6,34.4l48.3,7.6
		c0,0,63.7-3,79.7-6.3S533.5,534.6,533.5,534.6z"/>
	<path class="st17" d="M181.9,429c0,0-23.4,87.5,48.6,160.5s116,18,116,18s24-37-12-65s-88-42-118-79S181.9,429,181.9,429z"/>
	<path class="st18" d="M505.6,123c-0.2-0.2-0.4-0.5-0.3-0.9c0.1-0.5,0.2-0.9,0.2-1.4c-0.1,0.2-0.1,0.4-0.2,0.6
		c-0.1,0.3-0.3,0.5-0.6,0.6c0,0.2,0.1,0.4,0.1,0.6c0.2,0.5,0.5,1,0.7,1.6C505.6,123.7,505.6,123.3,505.6,123z"/>
	<path class="st18" d="M606.6,122.3c0,0.1,0,0.1-0.1,0.2c-5.3,15.2-18.8,28-31.6,36.8c-16,10.9-36.9,13.3-55.1,7.1
		c-1.2-0.4-2.1-1.1-2.6-2c-0.2-0.1-0.4-0.3-0.6-0.5c-1.4-1.4-1.7-3.6-0.9-5.6c-0.8-0.2-1.6-0.6-2.2-1.4c-1.1-1.3-2-2.5-2.8-3.9
		c-0.3-0.4-0.6-0.8-0.9-1.2c3.3,2.1,6.5,4.4,9.7,6.9c-3.9-6.3-16.8-32.2,4.1-64.4c0,0,14.3-24,72.6,27.9l8.8,0.3
		C605.5,122.3,606,122.3,606.6,122.3z"/>
	<path class="st18" d="M773.5,152c11.8-47.7-3.7-62.8-10.8-67l1.1-0.4l-4.3-1.2c0,0,0,0,0,0.1c0,0,0,0,0,0
		c-41.3,1.9-56.8,32.7-59.5,35.5c-2.7-0.6-5.2-1.1-7.6-1.5c0.9,1.9,3,3.3,5.3,3c0.2,0.8,0.6,1.6,1.3,2.4
		c10.5,10.9,23.1,19.7,37,25.7c11.6,5,24.4,8.7,37,8c0.6,0,1.2-0.1,1.7-0.1c-0.5-0.4-1.1-0.9-1.6-1.3L773.5,152z M711.1,119.9
		c0.3,0.3,0.6,0.7,0.8,1c0,0.2,0,0.3,0,0.5c-0.4-0.4-0.8-0.7-1.2-1.1C710.8,120.1,711,120,711.1,119.9z"/>
	<path class="st19" d="M606.5,122.5l-1.5-0.1l-8.8-0.3c-58.3-51.9-72.6-27.9-72.6-27.9c-21,32.2-8,58.1-4.1,64.4c0.6,1,1,1.5,1,1.5
		s-1.5,1.3-3.8,3.7c-9.1,10-29.7,39.9-7.2,87.9"/>
	<path class="st19" d="M699.8,119.2c0.1,0,0.1-0.1,0.3-0.2c2.7-2.8,18.1-33.6,59.5-35.5c0,0,0,0,0,0c0.2,0.1,1.4,0.4,3.2,1.5
		c7.1,4.3,22.6,19.3,10.8,67l-0.3,3.2l-0.1,1.4l0,0.1l11.3,8.3l0,0"/>
</g>
<g id="Layer_8_copy">
	<path class="st18" d="M757.1,212.8c0.6,34.8-44.4,64.2-100.6,65.5c-56.2,1.4-102.2-25.8-102.9-60.6c-0.3-14.9,7.8-28.8,21.5-39.9
		c8-6.5,17.9-12,29.2-16.3c14.7-5.5,31.7-8.9,49.9-9.4c21.4-0.5,41.3,3.1,57.8,9.7c23.5,9.4,40.1,24.8,44.1,42.9
		C756.8,207.5,757.1,210.1,757.1,212.8z"/>
	<g>
		<path class="st18" d="M692.5,122.5c1.5,1.1,3,2.3,4.5,3.4c0,0,0,0.1-0.1,0.1L692.5,122.5z"/>
	</g>
	<g>
		<path class="st18" d="M760,163.5L760,163.5c1.2,0.5,2.3,1,3.4,1.5C762.2,164.5,761.1,164,760,163.5z"/>
	</g>
	<g>
		<path class="st18" d="M763.8,84.6l-1.1,0.4c-0.6,0.2-1.2,0.4-1.8,0.6c-0.5-0.7-0.9-1.4-1.4-2c0,0,0,0,0-0.1L763.8,84.6z"/>
	</g>
</g>
<g id="Layer_4">
	<g id="Layer_7">
	</g>
	<g>
		<path class="st16" d="M538.9,160.3c-0.3-0.4-0.4,0.7,0.1,0.5c0.4-0.2,0.4-0.8,0.3-1.3c-3.2-13.8,0.8-28.4-1.6-42.3l0.2,1.7
			c12.4,7.6,22.8,18.4,30.1,31c-8.3,2.4-16.3,5.7-23.8,10c0.1-0.6,0.1-1.2,0.2-1.8L538.9,160.3z"/>
	</g>
	<path class="st9" d="M693.7,215.7c6.9,11.6,21.9,15.3,33.4,8.2c11.5-7.1,15.2-22.2,8.3-33.8s-21.9-15.3-33.4-8.2
		C690.5,188.9,686.8,204.1,693.7,215.7z"/>
	<path class="st9" d="M588,215.6c6.9,11.6,21.9,15.3,33.4,8.2c11.5-7.1,15.2-22.2,8.3-33.8c-6.9-11.6-21.9-15.3-33.4-8.2
		C584.8,188.9,581.1,204,588,215.6z"/>
	<path class="st16" d="M716.9,210c1.6,4.8,6.7,7.4,11.4,5.8s7.2-6.8,5.6-11.6c-1.6-4.8-6.7-7.4-11.4-5.8S715.4,205.2,716.9,210z"/>
	<path class="st16" d="M609.7,211.1c1.6,4.8,6.7,7.4,11.4,5.8c4.7-1.6,7.2-6.8,5.6-11.6s-6.7-7.4-11.4-5.8
		C610.7,201.1,608.1,206.3,609.7,211.1z"/>
	<g>
		<path class="st16" d="M724,130.6c0.1-0.4-0.7,0.1-0.3,0.3c0.4,0.2,0.8-0.1,1.1-0.5c8-9.7,20.6-14.7,29.1-23.8l-1.1,1.1
			c1.3,12.9-0.8,26.1-5.8,38c-6.1-4.6-12.8-8.5-19.9-11.4c0.5-0.3,0.9-0.5,1.4-0.8L724,130.6z"/>
	</g>
</g>
<g id="Layer_8">
	<g>
		<g>
			<path d="M434.7,531.4c0.1,0,0.2-0.1,0.4-0.1c1.5-0.4,2.6-2.1,2.1-3.7c-0.5-1.5-2.1-2.6-3.7-2.1c-0.1,0-0.2,0.1-0.4,0.1
				c-1.5,0.4-2.6,2.1-2.1,3.7C431.5,530.8,433.1,531.9,434.7,531.4L434.7,531.4z"/>
		</g>
	</g>
	<g>
		<g>
			<path d="M657.2,245.3c2.6-4.3,5.7-8,9.4-11.4c-1.4,0-2.8,0-4.2,0c3.9,3.4,7.5,7.2,10.7,11.3c2.4,3,6.6-1.2,4.2-4.2
				c-3.2-4.1-6.8-7.8-10.7-11.3c-1.2-1.1-3-1.2-4.2,0c-4,3.8-7.4,8-10.3,12.6C650,245.5,655.1,248.6,657.2,245.3L657.2,245.3z"/>
		</g>
	</g>
	<g>
		<g>
			<path d="M667,220.7c-0.3-0.1-0.6-0.2-0.9-0.3c-2-0.6-3.6,1-3.8,2.9c-0.3,3.1-0.6,6.3-0.9,9.4c-0.2,1.6,1.5,3,3,3
				c1.7,0,2.8-1.4,3-3c0.3-3.1,0.6-6.3,0.9-9.4c-1.3,1-2.5,1.9-3.8,2.9c0.3,0.1,0.6,0.2,0.9,0.3C669.1,227.6,670.7,221.8,667,220.7
				L667,220.7z"/>
		</g>
	</g>
	<g>
		<path d="M664.2,216.2l-0.3-0.2c-1.9-0.8-3.5-2.2-5.3-3.4s-3.9-1.9-5.9-1.3c-0.6,0.2-1.2,0.5-1.5,1c-0.7,0.9-0.5,2.3,0.1,3.3
			c0.6,1,1.5,1.7,2.5,2.4c3.1,2.3,6.2,4.7,9.9,6l1.8-0.5c-0.2,0-0.3,0.1-0.5,0.1c2.9-2.1,6.6-3,9.1-5.6c0.7-0.8,1.3-1.7,1.9-2.6
			c0.7-1,1.3-2.3,0.7-3.4c-0.4-0.7-1.2-1.1-1.9-1.2c-0.8-0.1-1.6,0.1-2.3,0.4c-3.2,1-6.2,2.7-8.6,4.9L664.2,216.2z"/>
		<g>
			<path d="M664.9,214.9c-2.9-1.9-15.8-10.1-15.7-0.9c0,3.5,3.9,5.6,6.3,7.4c3.2,2.2,6.3,4.8,10.2,3.7c1.9-0.5,1.1-3.4-0.8-2.9
				c-0.2,0-0.3,0.1-0.5,0.1c0.4,0.9,0.8,1.8,1.2,2.7c3.5-2.3,15.4-7,12.4-13.4c-2.8-5.9-12.7,1.4-15.3,3.7c-1.1,0.9,0.1,3,1.5,2.5
				c0.1-0.1,0.3-0.1,0.4-0.2c1.8-0.7,1-3.6-0.8-2.9c-0.1,0.1-0.3,0.1-0.4,0.2c0.5,0.8,1,1.7,1.5,2.5c1.6-1.4,3.3-2.6,5.2-3.5
				c1.6-1.6,2.8-1.6,3.7-0.1c1.5,1,1.3,2.1-0.8,3.3c-2.4,2.4-6,3.5-8.8,5.3c-1.4,0.9-0.5,3.2,1.2,2.7c0.2,0,0.3-0.1,0.5-0.1
				c-0.3-1-0.5-1.9-0.8-2.9c-2.6,0.7-8.6-2.8-10.2-5.1c-2.2-1.2-1.2-2.3,3.1-3.2c0.9,0.6,1.7,1.2,2.6,1.8c1,0.6,2,1.1,3,1.8
				C665,218.5,666.6,215.9,664.9,214.9z"/>
		</g>
	</g>
	<path class="st20" d="M647.5,201.5c0,22.1-17.9,40-40,40s-40-17.9-40-40c0-8.8,2.9-17,7.7-23.6c6.7-9.2,17.2-15.4,29.2-16.3
		c1-0.1,2.1-0.1,3.1-0.1C629.6,161.5,647.5,179.4,647.5,201.5z"/>
	<path class="st15" d="M756.5,200c0,1.7-0.1,3.3-0.3,4.9c-4-18.1-20.6-33.6-44.1-42.9c1.9-0.3,3.9-0.5,5.9-0.5
		C739.3,161.5,756.5,178.7,756.5,200z"/>
	<path class="st20" d="M756.2,204.9c-2.4,19-18.6,33.6-38.2,33.6c-21.3,0-38.5-17.2-38.5-38.5c0-19.2,14.1-35.2,32.6-38
		C735.6,171.3,752.2,186.8,756.2,204.9z"/>
	<g>
		<g>
			<path d="M650.7,198.7c3.3-3.3,7.2-5.4,11.8-6.1c3.8-0.6,11.5-0.6,13.7,3.3c1.9,3.3,7.1,0.3,5.2-3c-3.2-5.5-11.3-6.9-17.2-6.5
				c-6.8,0.5-13,3.3-17.8,8.1C643.7,197.2,647.9,201.4,650.7,198.7L650.7,198.7z"/>
		</g>
	</g>
	<polyline class="st21" points="539.2,301.1 532,288.1 542.2,288 542.1,277.2 674,317.8 676.9,317.8 722,317.6 805.4,263.9 
		805.5,275.8 823.9,275.8 724.1,332.8 676.1,333 542.4,301.7 	"/>
	<polygon class="st22" points="823,281 823,525.4 730,571.5 727,573 674.7,573 537.6,526.6 534,525.4 534,297.6 541.5,299.5 
		544.8,300.3 671.4,332.8 720.5,332.8 723.8,331.1 728,329 743.5,321.1 766.4,309.6 	"/>
	<polygon class="st19" points="679,332.8 679,573 730,573 727.3,331 	"/>
	<g>
		<path class="st23" d="M505.3,262.7c-0.3,0.2-0.6,0.5-0.8,0.7c8.5-3.5,17-7.1,25.5-10.8"/>
		<g>
			<path d="M503.2,260.5c-0.3,0.2-0.6,0.5-0.8,0.7c-2.2,1.9,0.2,6.1,2.9,5c8.8-3.6,17.5-7.3,26.2-11.1c3.5-1.5,0.5-6.7-3-5.2
				c-8.2,3.6-16.5,7.1-24.8,10.5c1,1.7,1.9,3.3,2.9,5c0.3-0.2,0.6-0.5,0.8-0.7C510.4,262.3,506.2,258.1,503.2,260.5L503.2,260.5z"/>
		</g>
	</g>
	<g>
		<g>
			<path d="M506.2,276.3c9.8-4.7,19.8-8.9,30-12.6c3.6-1.3,2-7.1-1.6-5.8c-10.7,3.9-21.2,8.3-31.4,13.2
				C499.7,272.8,502.7,277.9,506.2,276.3L506.2,276.3z"/>
		</g>
	</g>
	<g>
		<g>
			<path d="M748.5,262.1c7.9,2.6,15.6,5.7,23.1,9.2c3.5,1.6,6.5-3.6,3-5.2c-8-3.7-16.2-7-24.6-9.8
				C746.4,255.1,744.8,260.9,748.5,262.1L748.5,262.1z"/>
		</g>
	</g>
	<g>
		<g>
			<path d="M754.6,252.8c7.5,2.8,14.8,6,22,9.6c3.4,1.7,6.5-3.4,3-5.2c-7.6-3.9-15.4-7.3-23.4-10.2
				C752.5,245.7,751,251.5,754.6,252.8L754.6,252.8z"/>
		</g>
	</g>
</g>
</svg>
