<?xml version="1.0" encoding="utf-8"?>
<!-- Generator: Adobe Illustrator 21.0.0, SVG Export Plug-In . SVG Version: 6.00 Build 0)  -->
<svg version="1.1" xmlns="http://www.w3.org/2000/svg" xmlns:xlink="http://www.w3.org/1999/xlink" x="0px" y="0px"
	 viewBox="0 0 540 780" style="enable-background:new 0 0 540 780;" xml:space="preserve">
<style type="text/css">
	.st0{fill:none;stroke:#000000;stroke-miterlimit:10;}
	.st1{fill:none;stroke:#000000;stroke-width:0.75;stroke-miterlimit:10;}
	.st2{fill:#FDE7CC;}
	.st3{fill:none;stroke:#000000;stroke-width:0.5;stroke-miterlimit:10;}
	.st4{fill:#231F20;}
	.st5{fill:#F8A080;}
	.st6{fill:#231F20;stroke:#000000;stroke-miterlimit:10;}
	.st7{fill:#FFFFFF;}
	.st8{fill:#BB6D29;}
	.st9{stroke:#000000;stroke-miterlimit:10;}
	.st10{fill:none;stroke:#000000;stroke-width:8;stroke-miterlimit:10;}
	.st11{stroke:#000000;stroke-width:8;stroke-miterlimit:10;}
	.st12{fill:#E5DB4E;}
	.st13{fill:#050100;}
	.st14{fill:none;stroke:#000000;stroke-width:2;stroke-miterlimit:10;}
	.st15{fill:#F4CABC;}
	.st16{fill:#694227;}
	.st17{fill:#E2B68F;}
	.st18{fill:none;stroke:#000000;stroke-width:7;stroke-miterlimit:10;}
	.st19{fill:#E2B68F;stroke:#000000;stroke-width:5;stroke-miterlimit:10;}
	.st20{fill:#DCE89F;}
	.st21{fill:#CE922A;stroke:#000000;stroke-width:5;stroke-miterlimit:10;}
	.st22{fill:none;stroke:#000000;stroke-width:5;stroke-miterlimit:10;}
</style>
<g id="Layer_3_copy_2">
	<g>
		<g>
			<path d="M94.5,337.7c-5.5,5.4-9.6,12.1-11.4,19.7c-1.4,5.7-2.1,13,1.6,18c3.5,4.8,9.5,4.8,14.8,3.7c8.2-1.6,15.8-5.2,22.6-10
				c1.6-1.1,0.1-3.7-1.5-2.6c-6.7,4.8-27.8,17-34,6.2c-2.8-4.9-1.5-11.8,0-16.9c1.9-6.2,5.4-11.6,10-16.1
				C98,338.5,95.9,336.4,94.5,337.7L94.5,337.7z"/>
		</g>
	</g>
	<g>
		<g>
			<path d="M241.6,359.9c-3.7,3.3-4.6,8.8-5.9,13.3c-1.3,4.9-2.7,9.8-3.4,14.9c-1.1,8,0.5,15.8,7.6,20.5
				c19.2,12.7,36.2-8.4,42.5-24.6c0.7-1.8-2.2-2.6-2.9-0.8c-5.6,14.4-21.2,35.1-38.6,22.5c-6.7-4.8-6.7-12.5-5.2-19.9
				c0.7-3.7,1.6-7.3,2.6-10.9c1.1-4.2,1.9-9.9,5.4-12.9C245.1,360.7,243,358.6,241.6,359.9L241.6,359.9z"/>
		</g>
	</g>
	<g>
		<g>
			<path d="M110.5,554.2c0,0.3,0,0.5,0,0.8c0,1.2,0.5,2.4,1.3,3.2c0.8,0.8,2.1,1.4,3.2,1.3c1.2-0.1,2.4-0.4,3.2-1.3
				c0.8-0.9,1.3-2,1.3-3.2c0-0.3,0-0.5,0-0.8c0-1.2-0.5-2.4-1.3-3.2c-0.8-0.8-2.1-1.4-3.2-1.3c-1.2,0.1-2.4,0.4-3.2,1.3
				C111,551.9,110.5,553,110.5,554.2L110.5,554.2z"/>
		</g>
	</g>
	<g>
		<g>
			<path d="M88.6,224.7c7.6-3.4,15.1-6.7,22.7-10.1c1.8-0.8,0.2-3.4-1.5-2.6c-7.6,3.4-15.1,6.7-22.7,10.1
				C85.3,222.9,86.8,225.5,88.6,224.7L88.6,224.7z"/>
		</g>
	</g>
	<g>
		<g>
			<path d="M92.1,240.2c7-4,14.2-7.5,21.7-10.5c1.8-0.7,1-3.6-0.8-2.9c-7.7,3-15.2,6.6-22.4,10.8C88.9,238.6,90.4,241.2,92.1,240.2
				L92.1,240.2z"/>
		</g>
	</g>
	<g>
		<g>
			<path d="M318.5,213.1c12.8-1.3,25.5-0.4,38,3c1.9,0.5,2.7-2.4,0.8-2.9c-12.7-3.4-25.7-4.5-38.8-3.1
				C316.6,210.3,316.6,213.3,318.5,213.1L318.5,213.1z"/>
		</g>
	</g>
	<g>
		<g>
			<path d="M318.7,223c11.9,2.4,23.4,5.9,34.5,10.8c1.8,0.8,3.3-1.8,1.5-2.6c-11.4-5-23.1-8.7-35.3-11.1
				C317.6,219.7,316.8,222.6,318.7,223L318.7,223z"/>
		</g>
	</g>
	<g>
		<g>
			<path d="M246.1,117.7c-0.2,8.2,2.4,18,10.9,21.3c3,1.2,6.9,1,9.6-1c3.2-2.4,2.6-7.3,1.4-10.6c-2.2-6.5-10.5-18.3-18.7-14
				c-6.1,3.2-4.9,13.3-0.7,17.7c1.3,1.4,3.5-0.7,2.1-2.1c-2.7-2.8-4.4-12.2,0.9-13.3c6.4-1.3,12.7,8.9,14,14c1,4.2-2.1,7.8-6.5,6.9
				c-2.4-0.5-4.5-2.2-6-4c-3.4-4.1-4.2-9.6-4.1-14.8C249.2,115.8,246.2,115.8,246.1,117.7L246.1,117.7z"/>
		</g>
	</g>
	<g>
		<g>
			<path d="M166,129.7c-2.4,5.7,0.9,12.8,7.6,12.2c8.8-0.8,15.2-11.6,17.8-19.1c2.5-7.2-1.4-12.5-9.2-10.2
				c-8.1,2.4-15.8,8.5-16.3,17.5c-0.1,1.9,2.9,1.9,3,0c0.3-5.6,4.2-9.8,8.9-12.4c2.2-1.2,10.4-5.3,11.5,0.1c0.4,1.8-1,4.6-1.7,6.1
				c-2,4.8-5.2,9.9-9.5,12.9c-2.7,1.9-7.1,3.5-9.3-0.1c-1.1-1.9-0.8-4.3,0-6.3C169.6,128.7,166.7,127.9,166,129.7L166,129.7z"/>
		</g>
	</g>
	<g>
		<g>
			<path d="M140.1,215.9c-5.9,7-9.5,15.7-11.1,24.7c-0.9,5.2-3,17.8,4.9,18.9c8,1.1,9.6-11.3,10.2-16.5c0.6-5.8,0.3-11.6-0.2-17.4
				c-0.3-2.8,0.2-8.3-1.8-10.6c-0.2-0.2-0.5-0.3-0.7-0.2c-0.1,0-0.3,0.1-0.4,0.1c-0.3,0.1-0.6,0.4-0.6,0.7c0,0.1,0,0.3,0,0.4
				c0,1,1.5,1,1.5,0c0.1,3.2,0.2,6.3,0.5,9.5c0.3,3.4,0.6,6.7,0.6,10.1c0,3.6-0.2,7.1-0.8,10.7c-0.3,1.5-0.5,3-1,4.4
				c-1.2,3.6-5,12.1-10.8,3.4c-2.9-4.4,0.2-14.7,1.6-19.4c1.9-6.5,4.9-12.6,9.2-17.8C141.8,216.3,140.8,215.2,140.1,215.9
				L140.1,215.9z"/>
		</g>
	</g>
	<g>
		<g>
			<path d="M145.4,105.1c-2.4,5.9-7.2,10-13.3,11.7c-2.1,0.6-6,1.4-8.2,0.6c-1.5-0.5-1.5-1.4-2-3c-0.3-0.9-1.6-0.5-1.4,0.4
				c0.2,0.8,0.3,1.6,0.5,2.4c0.5-0.1,1-0.3,1.4-0.4c-2-6.2-3.2-12.6-3.3-19.1c-0.1-3.6,0.4-6.9,0.7-10.5c0.1-0.9,0.2-2.6,0.5-2.7
				c0.5-0.2,3.1,1.3,3.4,1.5c4.9,2.3,9.5,5.3,13.6,8.8c2,1.7,9.7,7.7,8.1,10.2c-0.5,0.8,0.8,1.6,1.3,0.8c0.3-0.5,0.6-0.9,0.9-1.4
				c0.2-0.3,0.1-0.7-0.1-0.9c-7.3-9.4-16.7-16.2-27.7-20.7c-0.4-0.1-0.9,0.2-0.9,0.5c-2.3,11.4-1.6,22.8,1.9,33.9
				c0.3,0.9,1.6,0.5,1.4-0.4c-0.2-0.8-0.3-1.6-0.5-2.4c-0.5,0.1-1,0.3-1.4,0.4c0.4,1.1,0.7,2.2,1.1,3.2c0.1,0.2,0.3,0.5,0.5,0.5
				c10.5,1.8,20.8-2.9,24.8-13C147.2,104.6,145.7,104.2,145.4,105.1z"/>
		</g>
	</g>
	<g>
		<g>
			<path d="M312.9,108c5.3,6.5,20.9,6.9,26.8,1.1c1.8-1.8,1.2-3.7,1.3-6.2c0.1-3,0.3-6,0.5-8.9c0.1-1-1.4-1-1.5,0
				c-0.2,3.7-0.5,7.3-0.5,11c-0.1,9.5-21.2,7.2-25.5,2C313.4,106.2,312.3,107.2,312.9,108L312.9,108z"/>
		</g>
	</g>
	<g>
		<g>
			<path d="M339.5,101.5c0.3,1.8-0.3,3.6-0.5,5.4c-0.1,1,1.4,0.9,1.5,0c0.3-2,0.8-3.8,0.5-5.8C340.7,100.1,339.3,100.5,339.5,101.5
				L339.5,101.5z"/>
		</g>
	</g>
	<g>
		<g>
			<path d="M266.7,199.6c13,8.7,30,4.7,37.8-8.8c0.5-0.8-0.8-1.6-1.3-0.8c-7.4,12.8-23.4,16.4-35.7,8.2
				C266.6,197.7,265.9,199,266.7,199.6L266.7,199.6z"/>
		</g>
	</g>
	<g>
		<g>
			<path d="M132.8,193.6c6.6,13.8,22.1,17.5,36.1,15c0.9-0.2,0.5-1.6-0.4-1.4c-13.4,2.4-28.2-1.1-34.4-14.3
				C133.6,192,132.3,192.8,132.8,193.6L132.8,193.6z"/>
		</g>
	</g>
	<g>
		<g>
			<path d="M378.1,187.5c1,0,1-1.5,0-1.5C377.1,186,377.1,187.5,378.1,187.5L378.1,187.5z"/>
		</g>
	</g>
	<circle class="st0" cx="281.6" cy="170.2" r="25.7"/>
	<circle class="st0" cx="160.2" cy="172.2" r="25.7"/>
	<circle class="st1" cx="147.9" cy="168.1" r="9.3"/>
	<circle class="st1" cx="269.2" cy="166.1" r="9.3"/>
	
		<ellipse transform="matrix(3.659208e-02 -0.9993 0.9993 3.659208e-02 -26.001 333.962)" class="st1" cx="160.2" cy="180.5" rx="5.1" ry="5.1"/>
	
		<ellipse transform="matrix(3.659208e-02 -0.9993 0.9993 3.659208e-02 92.9665 453.2517)" class="st1" cx="281.6" cy="178.4" rx="5.1" ry="5.1"/>
	
		<ellipse transform="matrix(0.1028 -0.9947 0.9947 0.1028 -395.4605 603.1705)" class="st0" cx="136.6" cy="520.8" rx="109.8" ry="78.7"/>
	<g>
		<path class="st2" d="M515,556.9v-2.1l0,0c1-3.6,2.1-8.2,4.1-16.5c6.2-42.1,7.5-88.3,0.4-130.2S496,325.3,469,292.4
			c-10.6-12.9-22.7-24.5-35.6-35.1c-10.1-8.4-21.5-16.5-34.6-17.8l14.7,1.5c-0.9,0.3-1.9,0.6-2.8,0.9c4.7-0.4,9-3.2,11.3-7.3
			c0.8-1.4,1.4-3.1,1.2-4.7c-0.2-1.5-1-2.8-1.8-4c-2.9-4.6-5.9-9.2-10-12.7c-4.1-3.5-9.7-5.7-15-4.6c2.1-3.2,4.6-6.2,7.3-8.9
			c-2.5-2-6.1-2.4-9.3-1.7c-3.2,0.7-6.1,2.3-8.9,3.9c2.3-9.4,12-14.7,20.8-18.8c-2.5-3-7.1-3-10.9-2.6c-5.4,0.6-10.7,1.8-15.9,3.4
			l1.8-1.4c1.8-5.1,4.6-13.1,5.3-18.4c1.6-11.8-2.6-23.8-9.3-33.7c-6.6-9.6-15.5-17.4-24.7-24.7c1.6-11.2,3-21.5,2.2-31.8
			c-0.1-1.2-0.2-2.3-0.4-3.5c0,0,0,0,0,0c-2.3-3-4.4-5.9-6-9.3c-0.1-0.2-0.1-0.3-0.1-0.5c-0.9-0.8-1.7-1.6-2.5-2.4
			c-0.7-0.7-2.4-2-3.2-3.4c-28.5,0.3-57.4,10.7-80.1,27.8V78c-9.7-10.4-23.9-13.7-37.6-8.6c-0.8,0.3-2.6,0.9-3.4,1.2l0.6-2.1
			c-0.3,0.6-0.6,1.3-1,1.9c0.6-3.8,0.9-8.2-1.9-10.8c-2.6-2.4-6.7-2-10.2-1.2c-1,0.2-2.2,0.5-2.8,1.4c-0.6,0.8-0.7,1.9-0.7,2.9
			c0,1.1,0.1,2.2,0.2,3.3c-0.2-0.7-0.5-1.3-0.9-1.9c-1.3-2.1-3.9-3.6-6.3-2.9c-1.7,0.5-3,2.1-3.8,3.7c-2.1,4.3-1.6,6.8,1.4,10.5
			l-0.2,0.6c-10.9-1.9-22.7,3-29.1,12l1.4-3.8c-16.4-16.2-38-26.9-60.7-30.2l0.3,0.8c-18.3,27.8-18.8,56.1-9.3,83.6l9-0.6
			c-16.3,5.1-27.6,19.8-36,34.7c-5.7,10.2-10.7,21.4-10.8,33.1c-0.1,11.7,5.5,24.2,16.1,29.1l-0.4,0.9c0.1,0,0.2,0,0.2,0.1
			c0.2,0.3-0.1,0.7-0.4,0.9c-6.1,5.8-10.3,13.5-12,21.7c-0.5,2.5-0.8,5.3,3.9,7.2c0.2,0.1,0.4,0.1,0.6,0.1c1.2,0.1,2.4,0,3.4-0.3
			c-1.7,2-2.9,4.3-3.7,6.8c-0.6,2.1-0.9,4.4,0.2,6.3c1.4,2.4,4.6,3.2,7.3,2.7c2.7-0.6,0.9,1.4,3.1-0.2l-4.3,7.6l2.5-7.4
			C64.6,318.6,52,355.6,39.4,392.7c-10.1,29.9-20.4,60.1-23.2,91.5c-2.7,30.6,2.2,62.9,19.5,88.1l4.4,3.6
			c-6.2,1.5-12.5,3.3-17.8,6.8c-5.3,3.5-9.6,9.1-10.2,15.5c-0.3,3,0.3,6.2,2.3,8.4c1.5,1.7,3.6,2.8,5.7,3.6
			c12.2,4.6,27,1.4,36.2-7.8l0.1-2.8c12.6,21.8,33.6,38.5,57.6,46l-2.9,1.7c-7.2,9-10.9,20.8-10.1,32.3c0.1,1.7,0.3,3.5,1.1,5.1
			c2.8,5.5,10.8,5.3,16.5,3c11.3-4.5,24-24,24-24c14.8,13.9,31.3,24.9,50.9,30.2s39.9,7,60.2,7.7c50.8,1.7,123-7.6,166.6-33.8
			l0.2-0.1c-1.8,1.6-3.4,3.6-4.9,5.5c-3.9,4.7-7.4,9.7-10.1,15.2c-0.6,1.1-1.1,2.2-1.6,3.3c-3.9,8.8-5.9,18.3-7.2,27.9
			c-1.5,11.8,0.2,25,9.3,32.6l-0.9-0.3c11.5,13.4,30.9,18,48.4,15.9c14.5-1.7,27.2-7,38.1-15.7l-0.1,0.1l5-3.9l1.9-2.3
			c15.5-18.4,23.9-39.7,29.7-62.9l0,0.1l1.5-5.4C538.6,636.4,538.9,592.2,515,556.9z M427.5,663.1c-0.8,0.7-1.6,1.2-2.5,1.7l8.9-7.6
			C431.7,659.2,429.6,661.2,427.5,663.1z"/>
	</g>
	<g>
		<path class="st2" d="M314.4,102.3l-0.3,3c0.1,0.4,0.2,0.9,0.2,1.3c-0.4-7.6,2.4-15,6.5-21.2c4.1-6.2,9.4-11.4,14.8-16.6
			c0.5-0.5,2.6-1.2,2.6-1.2c2,11.7,3.4,23.8,2,35.6"/>
	</g>
	<polyline class="st2" points="313.4,107.4 314,108.2 314.7,100.4 	"/>
	<polyline class="st2" points="314.4,102.3 313.4,107.4 313.4,107.4 317.2,110.4 	"/>
	<line class="st0" x1="79" y1="282.3" x2="77.2" y2="282.5"/>
	<g>
		<path class="st2" d="M210.9,213.9c2.9-5.4,6.6-10.3,10.9-14.6c4.8,3.8,9.2,8,13.1,12.7"/>
	</g>
	<g>
		<path class="st2" d="M222.9,187.7l-1.1-0.2c0,3.8,0,7.5,0,11.3"/>
	</g>
	<g>
		<path class="st2" d="M220.9,179.4l-0.4-0.2c-2.3-0.8-4.3-2.3-6.4-3.5c-2.2-1.1-4.8-1.9-7-1c-0.7,0.3-1.3,0.7-1.7,1.3
			c-0.7,1.2-0.4,2.7,0.4,3.8c0.8,1.1,2,1.9,3.1,2.6c3.8,2.5,7.7,5,12.1,6.2l2.1-0.8c-0.2,0.1-0.4,0.1-0.5,0.2
			c3.2-2.7,7.5-4.1,10.1-7.3c0.8-1,1.4-2.1,2-3.2c0.7-1.3,1.3-2.8,0.6-4.1c-0.5-0.8-1.4-1.2-2.4-1.2c-0.9,0-1.8,0.3-2.7,0.6
			c-3.6,1.5-7,3.7-9.7,6.5"/>
	</g>
	<rect x="182" y="37" class="st2" width="23" height="53"/>
</g>
<g id="Layer_3">
	<g>
		<g>
			<path d="M94.5,337.7c-5.5,5.4-9.6,12.1-11.4,19.7c-1.4,5.7-2.1,13,1.6,18c3.5,4.8,9.5,4.8,14.8,3.7c8.2-1.6,15.8-5.2,22.6-10
				c1.6-1.1,0.1-3.7-1.5-2.6c-6.7,4.8-27.8,17-34,6.2c-2.8-4.9-1.5-11.8,0-16.9c1.9-6.2,5.4-11.6,10-16.1
				C98,338.5,95.9,336.4,94.5,337.7L94.5,337.7z"/>
		</g>
	</g>
	<g>
		<g>
			<path d="M241.6,359.9c-3.7,3.3-4.6,8.8-5.9,13.3c-1.3,4.9-2.7,9.8-3.4,14.9c-1.1,8,0.5,15.8,7.6,20.5
				c19.2,12.7,36.2-8.4,42.5-24.6c0.7-1.8-2.2-2.6-2.9-0.8c-5.6,14.4-21.2,35.1-38.6,22.5c-6.7-4.8-6.7-12.5-5.2-19.9
				c0.7-3.7,1.6-7.3,2.6-10.9c1.1-4.2,1.9-9.9,5.4-12.9C245.1,360.7,243,358.6,241.6,359.9L241.6,359.9z"/>
		</g>
	</g>
	<g>
		<g>
			<path d="M110.5,554.2c0,0.3,0,0.5,0,0.8c0,1.2,0.5,2.4,1.3,3.2c0.8,0.8,2.1,1.4,3.2,1.3c1.2-0.1,2.4-0.4,3.2-1.3
				c0.8-0.9,1.3-2,1.3-3.2c0-0.3,0-0.5,0-0.8c0-1.2-0.5-2.4-1.3-3.2c-0.8-0.8-2.1-1.4-3.2-1.3c-1.2,0.1-2.4,0.4-3.2,1.3
				C111,551.9,110.5,553,110.5,554.2L110.5,554.2z"/>
		</g>
	</g>
	<g>
		<g>
			<path d="M88.6,224.7c7.6-3.4,15.1-6.7,22.7-10.1c1.8-0.8,0.2-3.4-1.5-2.6c-7.6,3.4-15.1,6.7-22.7,10.1
				C85.3,222.9,86.8,225.5,88.6,224.7L88.6,224.7z"/>
		</g>
	</g>
	<g>
		<g>
			<path d="M318.5,213.1c12.8-1.3,25.5-0.4,38,3c1.9,0.5,2.7-2.4,0.8-2.9c-12.7-3.4-25.7-4.5-38.8-3.1
				C316.6,210.3,316.6,213.3,318.5,213.1L318.5,213.1z"/>
		</g>
	</g>
	<g>
		<g>
			<path d="M318.7,223c11.9,2.4,23.4,5.9,34.5,10.8c1.8,0.8,3.3-1.8,1.5-2.6c-11.4-5-23.1-8.7-35.3-11.1
				C317.6,219.7,316.8,222.6,318.7,223L318.7,223z"/>
		</g>
	</g>
	<g>
		<path class="st4" d="M247.6,117.7c-0.4,9.5,3.5,19,12.3,20.6c1.5,0.3,4.6-0.8,5.9-1.6c0.9-0.6,1.3-1.8,1.5-2.9
			c0.7-5.1-2.4-10-5.6-14c-2.4-2.9-5.5-6-9.2-5.7c-2.5,0.2-4.9,2-5.6,4.4s0.8,10,2.8,11.6L247.6,117.7z"/>
		<g>
			<path d="M246.1,117.7c-0.2,8.2,2.4,18,10.9,21.3c3,1.2,6.9,1,9.6-1c3.2-2.4,2.6-7.3,1.4-10.6c-2.2-6.5-10.5-18.3-18.7-14
				c-6.1,3.2-4.9,13.3-0.7,17.7c1.1,1.2,2.7-0.1,2.5-1.5c-0.7-4.1-1.4-8.2-2.1-12.3c-0.3-1.9-3.2-1.1-2.9,0.8
				c0.7,4.1,1.4,8.2,2.1,12.3c0.8-0.5,1.7-1,2.5-1.5c-2.7-2.8-4.4-12.2,0.9-13.3c6.4-1.3,12.7,8.9,14,14c1,4.2-2.1,7.8-6.5,6.9
				c-2.4-0.5-4.5-2.2-6-4c-3.4-4.1-4.2-9.6-4.1-14.8C249.2,115.8,246.2,115.8,246.1,117.7z"/>
		</g>
	</g>
	<g>
		<path class="st4" d="M167.4,130.1c0,4.6-0.1,11.1,6.2,10.3c2.6-0.3,4.8-1.5,6.7-3.3c4.5-4.2,7.9-9.6,9.9-15.4c1-3,1.5-6.9-3.1-8.2
			c-0.5-0.1-1-0.2-1.5-0.1C176.1,115.1,167.4,121.8,167.4,130.1z"/>
		<g>
			<path d="M165.9,130.1c0,5.6,0.8,12.7,8.1,11.7c8.9-1.2,15.6-12.4,17.8-20.2c2.1-7.5-3.4-11-10.3-8.7
				C173.7,115.4,166.4,121.4,165.9,130.1c-0.1,1.9,2.9,1.9,3,0c0.3-5.6,4.2-9.8,8.9-12.4c2.2-1.2,10.4-5.3,11.5,0.1
				c0.4,1.8-1,4.6-1.7,6.1c-2,4.8-5.2,9.9-9.5,12.9c-2.9,2-7.3,3.5-8.8-0.9c-0.6-1.8-0.4-4-0.4-5.8
				C168.9,128.1,165.9,128.1,165.9,130.1z"/>
		</g>
	</g>
	<g>
		<path class="st5" d="M146.1,105.3c-3.5,9.5-14,14.5-23.9,12.5l-1.1-3.2c0.2,0.8,0.3,1.6,0.5,2.4c-3.6-10.7-4.3-22.4-1.9-33.5
			l1.5,0.6c10.2,4.2,19.2,11.1,25.8,19.9L146.1,105.3z"/>
		<g>
			<path d="M145.4,105.1c-2.4,5.9-7.2,10-13.3,11.7c-2.1,0.6-6,1.4-8.2,0.6c-1.5-0.5-1.5-1.4-2-3c-0.3-0.9-1.6-0.5-1.4,0.4
				c0.2,0.8,0.3,1.6,0.5,2.4c0.5-0.1,1-0.3,1.4-0.4c-2-6.2-3.2-12.6-3.3-19.1c-0.1-3.6,0.4-6.9,0.7-10.5c0.1-0.9,0.2-2.6,0.5-2.7
				c0.5-0.2,3.1,1.3,3.4,1.5c4.9,2.3,9.5,5.3,13.6,8.8c2,1.7,9.7,7.7,8.1,10.2c-0.5,0.8,0.8,1.6,1.3,0.8c0.3-0.5,0.6-0.9,0.9-1.4
				c0.2-0.3,0.1-0.7-0.1-0.9c-7.3-9.4-16.7-16.2-27.7-20.7c-0.4-0.1-0.9,0.2-0.9,0.5c-2.3,11.4-1.6,22.8,1.9,33.9
				c0.3,0.9,1.6,0.5,1.4-0.4c-0.2-0.8-0.3-1.6-0.5-2.4c-0.5,0.1-1,0.3-1.4,0.4c0.4,1.1,0.7,2.2,1.1,3.2c0.1,0.2,0.3,0.5,0.5,0.5
				c10.5,1.8,20.8-2.9,24.8-13C147.2,104.6,145.7,104.2,145.4,105.1z"/>
		</g>
	</g>
	<g>
		<g>
			<path d="M339.5,101.5c0.3,1.8-0.3,3.6-0.5,5.4c-0.1,1,1.4,0.9,1.5,0c0.3-2,0.8-3.8,0.5-5.8C340.7,100.1,339.3,100.5,339.5,101.5
				L339.5,101.5z"/>
		</g>
	</g>
	<g>
		<g>
			<path d="M265.6,205.6c14,9.3,32.5,4.9,40.9-9.6c1.9-3.3-3.2-6.4-5.2-3c-6.8,11.8-21.3,15-32.6,7.4
				C265.4,198.3,262.4,203.5,265.6,205.6L265.6,205.6z"/>
		</g>
	</g>
	<g>
		<g>
			<path d="M132.4,193.8c6.6,14,22.4,17.7,36.6,15.2c1.4-0.3,0.8-2.4-0.6-2.2c-13.2,2.3-27.8-1.1-34-14.2
				C133.8,191.4,131.8,192.5,132.4,193.8L132.4,193.8z"/>
		</g>
	</g>
	<g>
		<g>
			<path d="M378.1,187.5c1,0,1-1.5,0-1.5C377.1,186,377.1,187.5,378.1,187.5L378.1,187.5z"/>
		</g>
	</g>
	<circle class="st6" cx="281.6" cy="170.2" r="25.7"/>
	<circle class="st6" cx="160.2" cy="172.2" r="25.7"/>
	<circle class="st7" cx="147.9" cy="168.1" r="9.3"/>
	<circle class="st7" cx="269.2" cy="166.1" r="9.3"/>
	
		<ellipse transform="matrix(3.659208e-02 -0.9993 0.9993 3.659208e-02 -26.001 333.962)" class="st7" cx="160.2" cy="180.5" rx="5.1" ry="5.1"/>
	
		<ellipse transform="matrix(3.659208e-02 -0.9993 0.9993 3.659208e-02 92.9665 453.2517)" class="st7" cx="281.6" cy="178.4" rx="5.1" ry="5.1"/>
	
		<ellipse transform="matrix(0.1028 -0.9947 0.9947 0.1028 -395.4605 603.1705)" class="st5" cx="136.6" cy="520.8" rx="109.8" ry="78.7"/>
	<g>
		<path class="st5" d="M340.2,103.3c1.3-11.8,0-23.9-2-35.6c0,0-2.1,0.7-2.6,1.2c-5.3,5.1-10.6,10.3-14.8,16.6
			c-4.1,6.2-6.9,13.7-6.5,21.2c-0.1-0.4-0.2-0.9-0.2-1.3l0.3-3l-1,5.2c2.8,4.1,8.4,4.3,13.3,4.5c4.9,0.2,10.3-0.7,13.4-4.5V103.3
			l0.5-9.4"/>
		<g>
			<path d="M340.9,103.3c1.2-12,0-24-2-35.8c-0.1-0.4-0.6-0.6-0.9-0.5c-2.6,0.9-4,2.4-6,4.3c-3.3,3.2-6.5,6.6-9.3,10.3
				c-5.6,7.3-9.3,15.8-9.1,25.1c0.5-0.1,1-0.1,1.5-0.2c-0.2-1.4,0-2.8,0.1-4.2c0.1-0.8-1.3-1-1.5-0.2c-0.8,4.1-2,6.2,2.2,8.6
				c4.9,2.8,13.2,2.8,18.4,1.3c1.9-0.6,5.7-2,6.5-4.1c0.5-1.2,0.1-3,0.1-4.3c0.1-3.2,0.4-6.4,0.5-9.6c0.1-1-1.4-1-1.5,0
				c-0.1,2.6-0.3,5.2-0.4,7.7c-0.1,1.8,0.4,4.5-0.5,5.9c-2.9,5-14.1,4-18.9,3c-2.2-0.5-5.3-1.6-5.8-3.7c-0.3-1.1,0.6-3.2,0.8-4.4
				c-0.5-0.1-1-0.1-1.5-0.2c-0.2,1.7-0.4,2.9-0.1,4.6c0.1,0.8,1.5,0.6,1.5-0.2c-0.3-14.3,8.8-25.5,18.6-34.9
				c0.9-0.9,2.4-3.1,3.7-2.9c0.9-0.6,1.1-0.3,0.5,0.9c0.1,0.6,0.2,1.2,0.3,1.9c0.2,3.7,1.1,7.4,1.4,11c0.6,6.9,0.7,13.8,0,20.7
				C339.3,104.3,340.8,104.3,340.9,103.3L340.9,103.3z"/>
		</g>
	</g>
	<polyline class="st3" points="313.4,107.4 314,108.2 314.7,100.4 	"/>
	<polyline class="st3" points="314.4,102.3 313.4,107.4 313.4,107.4 317.2,110.4 	"/>
	<line class="st0" x1="79" y1="282.3" x2="77.2" y2="282.5"/>
	<g>
		<g>
			<path d="M211.9,212.4c2.9-5.3,6.5-10,10.7-14.4c-0.5,0-1.1,0-1.6,0c4.8,3.8,9.1,8,13.1,12.7c0.9,1.1,2.5-0.5,1.6-1.6
				c-4-4.6-8.3-8.8-13.1-12.7c-0.5-0.4-1.1-0.5-1.6,0c-4.4,4.5-8,9.4-11.1,14.8C209.2,212.6,211.2,213.7,211.9,212.4L211.9,212.4z"
				/>
		</g>
	</g>
	<g>
		<g>
			<path d="M223.2,186.6c-0.4-0.1-0.8-0.2-1.1-0.2c-0.7-0.1-1.4,0.3-1.4,1.1c0,3.8,0,7.5,0,11.3c0,1.4,2.3,1.5,2.3,0
				c0-3.8,0-7.5,0-11.3c-0.5,0.4-0.9,0.7-1.4,1.1c0.4,0.1,0.8,0.2,1.1,0.2C224.1,189,224.7,186.9,223.2,186.6L223.2,186.6z"/>
		</g>
	</g>
	<g>
		<path class="st4" d="M220.9,179.4l-0.4-0.2c-2.3-0.8-4.3-2.3-6.4-3.5c-2.2-1.1-4.8-1.9-7-1c-0.7,0.3-1.3,0.7-1.7,1.3
			c-0.7,1.2-0.4,2.7,0.4,3.8c0.8,1.1,2,1.9,3.1,2.6c3.8,2.5,7.7,5,12.1,6.2l2.1-0.8c-0.2,0.1-0.4,0.1-0.5,0.2
			c3.2-2.7,7.5-4.1,10.1-7.3c0.8-1,1.4-2.1,2-3.2c0.7-1.3,1.3-2.8,0.6-4.1c-0.5-0.8-1.4-1.2-2.4-1.2c-0.9,0-1.8,0.3-2.7,0.6
			c-3.6,1.5-7,3.7-9.7,6.5L220.9,179.4z"/>
		<g>
			<path d="M221.6,178.1c-3.4-1.9-18.8-10.4-18.2,0c0.3,4.3,5.7,6.7,8.9,8.5c3.5,2.1,7,4.3,11,2.9c1.8-0.7,1-3.5-0.8-2.9
				c-0.2,0.1-0.4,0.1-0.5,0.2c0.4,0.9,0.8,1.8,1.2,2.7c3.4-2.6,7.7-4.3,10.5-7.7c1.7-2,4.2-5.7,2.9-8.5c-3.3-6.8-14.4,2.6-17.2,5.3
				c-1.3,1.3,0.3,3,1.8,2.4c0.2-0.1,0.3-0.2,0.5-0.2c1.8-0.8,0.2-3.4-1.5-2.6c-0.2,0.1-0.3,0.2-0.5,0.2c0.6,0.8,1.2,1.6,1.8,2.4
				c1.7-1.7,3.9-4,6.3-4.9c1.8-1.4,3.6-1,5.5,1.1c-0.3,0.6-0.6,1.1-0.9,1.6c-1.7,3.9-7.5,5.9-10.7,8.3c-1.2,0.9-0.6,3.4,1.2,2.7
				c0.2-0.1,0.4-0.1,0.5-0.2c-0.3-1-0.5-1.9-0.8-2.9c-4.1,1.5-9.6-2.9-13-5.3c-0.6-0.5-1.3-0.9-1.9-1.4c1.1-1.3,2.2-2.6,3.3-3.8
				c0.9-0.2,3.3,1.5,4.3,2c1.6,0.9,3.3,1.7,4.9,2.6C221.8,181.7,223.3,179.1,221.6,178.1z"/>
		</g>
	</g>
	<g>
		<path class="st2" d="M398.3,743.2c-18-46.4,27.2-79.4,59.2-105.1"/>
	</g>
	<g>
		<path class="st2" d="M522.2,513.9c-4.1,16.2-8.2,32.6-4.1,49.1c6.2,16.5,14.4,30.9,16.5,47.3c2.1,24.7,0,49.4-6.4,74.1
			c0.4-1.7,0.8-3.4,1.2-5.2c-6.2,26.9-15.1,56.4-37.8,74c2.3-2.1,4.6-4.1,6.9-6.2c-21.6,21.5-65.6,34.3-89.6,9.6"/>
	</g>
	<g>
		<g>
			<path d="M402.1,243.2c77.7,32.9,116,118.2,121.9,198.3c1.6,22.4,0.9,44.9-2.6,67.1c-0.3,1.9,2.6,2.7,2.9,0.8
				c12.6-79.3-6.7-171.5-64.3-230.2c-16.1-16.4-35.2-29.6-56.4-38.6C401.9,239.9,400.3,242.5,402.1,243.2L402.1,243.2z"/>
		</g>
	</g>
	<g>
		<g>
			<path d="M378.4,188c-0.4-2.1-0.4-4.1-0.3-6.2c-0.9,0.3-1.9,0.5-2.8,0.8c0.5,1.1,1,2.3,1.4,3.4c0.6,1.8,3.5,1,2.9-0.8
				c-0.5-1.4-1.1-2.8-1.7-4.1c-0.6-1.4-2.8-0.6-2.8,0.8c0,2.4,0,4.7,0.4,7C375.9,190.6,378.8,189.8,378.4,188L378.4,188z"/>
		</g>
	</g>
	<g>
		<g>
			<path d="M218.7,68.2c4.7,6.5,15.9,1.2,22.2,1.1c1.9,0,1.9-3,0-3c-3.1,0-6,0.6-9,1.2c-2.9,0.5-8.5,2.1-10.6-0.8
				C220.2,65.1,217.6,66.6,218.7,68.2L218.7,68.2z"/>
		</g>
	</g>
	<g>
		<g>
			<path d="M222.9,69.6c-1-4.5-3-10.8-8-12.3c-4.3-1.3-7.4,2.3-9,5.8c-0.8,1.7,1.8,3.3,2.6,1.5c1-2.3,3.1-5.6,6.1-4.2
				c3.5,1.6,4.7,6.7,5.5,10.1C220.4,72.3,223.3,71.5,222.9,69.6L222.9,69.6z"/>
		</g>
	</g>
</g>
<g id="Layer_3_copy_3">
	<g>
		<g>
			<path d="M94.5,337.7c-5.5,5.4-9.6,12.1-11.4,19.7c-1.4,5.7-2.1,13,1.6,18c3.5,4.8,9.5,4.8,14.8,3.7c8.2-1.6,15.8-5.2,22.6-10
				c1.6-1.1,0.1-3.7-1.5-2.6c-6.7,4.8-27.8,17-34,6.2c-2.8-4.9-1.5-11.8,0-16.9c1.9-6.2,5.4-11.6,10-16.1
				C98,338.5,95.9,336.4,94.5,337.7L94.5,337.7z"/>
		</g>
	</g>
	<g>
		<g>
			<path d="M241.6,359.9c-3.7,3.3-4.6,8.8-5.9,13.3c-1.3,4.9-2.7,9.8-3.4,14.9c-1.1,8,0.5,15.8,7.6,20.5
				c19.2,12.7,36.2-8.4,42.5-24.6c0.7-1.8-2.2-2.6-2.9-0.8c-5.6,14.4-21.2,35.1-38.6,22.5c-6.7-4.8-6.7-12.5-5.2-19.9
				c0.7-3.7,1.6-7.3,2.6-10.9c1.1-4.2,1.9-9.9,5.4-12.9C245.1,360.7,243,358.6,241.6,359.9L241.6,359.9z"/>
		</g>
	</g>
	<g>
		<g>
			<path d="M88.6,224.7c7.6-3.4,15.1-6.7,22.7-10.1c1.8-0.8,0.2-3.4-1.5-2.6c-7.6,3.4-15.1,6.7-22.7,10.1
				C85.3,222.9,86.8,225.5,88.6,224.7L88.6,224.7z"/>
		</g>
	</g>
	<g>
		<g>
			<path d="M318.5,213.1c12.8-1.3,25.5-0.4,38,3c1.9,0.5,2.7-2.4,0.8-2.9c-12.7-3.4-25.7-4.5-38.8-3.1
				C316.6,210.3,316.6,213.3,318.5,213.1L318.5,213.1z"/>
		</g>
	</g>
	<g>
		<g>
			<path d="M318.7,223c11.9,2.4,23.4,5.9,34.5,10.8c1.8,0.8,3.3-1.8,1.5-2.6c-11.4-5-23.1-8.7-35.3-11.1
				C317.6,219.7,316.8,222.6,318.7,223L318.7,223z"/>
		</g>
	</g>
	<g>
		<g>
			<path d="M339.5,101.5c0.3,1.8-0.3,3.6-0.5,5.4c-0.1,1,1.4,0.9,1.5,0c0.3-2,0.8-3.8,0.5-5.8C340.7,100.1,339.3,100.5,339.5,101.5
				L339.5,101.5z"/>
		</g>
	</g>
	<polyline class="st3" points="313.4,107.4 314,108.2 314.7,100.4 	"/>
	<polyline class="st3" points="314.4,102.3 313.4,107.4 313.4,107.4 317.2,110.4 	"/>
	<line class="st0" x1="79" y1="282.3" x2="77.2" y2="282.5"/>
	<g>
		<g>
			<path d="M213.8,213.8c2.7-5.3,5.9-10,9.8-14.4c-1.2,0.2-2.4,0.3-3.6,0.5c4.7,3.5,9,7.4,13,11.7c2.6,2.8,6.9-1.4,4.2-4.2
				c-4.3-4.7-9.1-8.8-14.2-12.6c-1-0.7-2.8-0.4-3.6,0.5c-4.3,4.7-7.9,9.9-10.8,15.6C206.9,214.2,212,217.3,213.8,213.8L213.8,213.8z
				"/>
		</g>
	</g>
	<g>
		<g>
			<path d="M223.6,184.7c-0.4-0.1-0.7-0.2-1.1-0.2c-1.9-0.4-3.8,0.9-3.8,2.9c0,3.7-0.1,7.4-0.1,11c0,3.9,6,3.9,6,0
				c0-3.7,0.1-7.4,0.1-11c-1.3,1-2.5,1.9-3.8,2.9c0.4,0.1,0.7,0.2,1.1,0.2C225.8,191.3,227.4,185.5,223.6,184.7L223.6,184.7z"/>
		</g>
	</g>
	<g>
		<path d="M217.9,179.4l-0.4-0.2c-2.3-0.8-4.3-2.3-6.4-3.5c-2.2-1.1-4.8-1.9-7-1c-0.7,0.3-1.3,0.7-1.7,1.3c-0.7,1.2-0.4,2.7,0.4,3.8
			c0.8,1.1,2,1.9,3.1,2.6c3.8,2.5,7.7,5,12.1,6.2l2.1-0.8c-0.2,0.1-0.4,0.1-0.5,0.2c3.2-2.7,7.5-4.1,10.1-7.3c0.8-1,1.4-2.1,2-3.2
			c0.7-1.3,1.3-2.8,0.6-4.1c-0.5-0.8-1.4-1.2-2.4-1.2c-0.9,0-1.8,0.3-2.7,0.6c-3.6,1.5-7,3.7-9.7,6.5L217.9,179.4z"/>
		<g>
			<path d="M218.6,178.1c-3.4-1.9-18.8-10.4-18.2,0c0.3,4.3,5.7,6.7,8.9,8.5c3.5,2.1,7,4.3,11,2.9c1.8-0.7,1-3.5-0.8-2.9
				c-0.2,0.1-0.4,0.1-0.5,0.2c0.4,0.9,0.8,1.8,1.2,2.7c3.4-2.6,7.7-4.3,10.5-7.7c1.7-2,4.2-5.7,2.9-8.5c-3.3-6.8-14.4,2.6-17.2,5.3
				c-1.3,1.3,0.3,3,1.8,2.4c0.2-0.1,0.3-0.2,0.5-0.2c1.8-0.8,0.2-3.4-1.5-2.6c-0.2,0.1-0.3,0.2-0.5,0.2c0.6,0.8,1.2,1.6,1.8,2.4
				c1.7-1.7,3.9-4,6.3-4.9c1.8-1.4,3.6-1,5.5,1.1c-0.3,0.6-0.6,1.1-0.9,1.6c-1.7,3.9-7.5,5.9-10.7,8.3c-1.2,0.9-0.6,3.4,1.2,2.7
				c0.2-0.1,0.4-0.1,0.5-0.2c-0.3-1-0.5-1.9-0.8-2.9c-4.1,1.5-9.6-2.9-13-5.3c-0.6-0.5-1.3-0.9-1.9-1.4c1.1-1.3,2.2-2.6,3.3-3.8
				c0.9-0.2,3.3,1.5,4.3,2c1.6,0.9,3.3,1.7,4.9,2.6C218.8,181.7,220.3,179.1,218.6,178.1z"/>
		</g>
	</g>
	<g>
		<path class="st8" d="M534.5,615.3c-1-21.2-13.4-39.4-17.2-59.9l-1.3-2.5c-3.4,17.9-12.2,33.5-22.8,48c-0.6,1.2-1.4,2.3-2.1,3.4
			c-3,7.9-7.1,15.1-12.8,19.5c-4.8,7.3-11.8,14.2-19.7,19.5c-4.8,5.7-10.3,10.7-16.2,13c-7.8,6.8-15.6,13.5-24.1,19.5
			c-2.3,1.6-4.6,3.2-6.9,4.7c-14.4,19.7-25.1,48.9-9.8,68.2c0,0,0,0,0,0c1.3,1.6,2.7,3.1,4.3,4.5c-0.5-0.3-1.1-0.6-1.6-0.9
			c0.1,0.1,0.1,0.1,0.2,0.2c10.3,8.7,21.4,16.4,35.4,18.2c22.5,2,41-10.2,58.4-23.5c16.8-16.8,24.5-40.7,30-63.6
			C534.4,661.8,535.6,637.9,534.5,615.3z"/>
		<g>
			<path d="M537.5,615.3c-0.8-12.2-4.8-23.6-9.2-35c-2.2-5.8-4.5-11.6-6.2-17.5c-1.1-4-1.7-7.8-3.6-11.4c-1.2-2.2-5-1.8-5.5,0.7
				c-1.8,9.1-4.9,17.8-9.1,26c-4,7.7-9.1,14.6-13.7,21.8c-4.6,7.2-6.7,14.7-13,20.8c-2.8,2.7-4.9,6.2-7.6,9.1
				c-3.4,3.7-7.2,7-11.3,9.9c-3,2.1-5.1,5.1-7.8,7.6c-3.4,3.1-7.5,4.7-11,7.4c-7.8,6-14.8,12.8-22.8,18.5c-2.8,2-6.2,3.7-8.4,6.4
				c-2.6,3.3-4.8,7.2-6.9,10.9c-3.7,6.7-6.7,13.9-8.6,21.3c-3.9,15.8-1.5,32.2,10.9,43.6c1.2-1.6,2.4-3.1,3.6-4.7
				c-0.5-0.3-1.1-0.6-1.6-0.9c-2.5-1.4-5.9,1.5-4.1,4.1c1.7,2.4,4.6,4.1,6.9,5.9c3.4,2.6,6.9,5,10.6,7.1c6.6,3.7,13.9,6.3,21.4,7
				c16,1.3,31.3-5.1,44.4-13.5c6.8-4.4,13.8-8.9,19.1-15.1c5.2-6.1,9.6-12.9,13.2-20.1c7.2-14.5,11.4-30.3,15.2-46
				C537.6,658.3,538.5,636.6,537.5,615.3c-0.2-3.8-6.2-3.9-6,0c1.4,32.3-2.7,64.4-14.1,94.8c-5.1,13.7-12.5,28.6-24.5,37.5
				c-11.5,8.6-24,16.7-38.4,19.5c-8.8,1.7-17.7,1-26.1-2.4c-3.8-1.6-7.4-3.6-10.9-5.9c-1.8-1.2-3.5-2.4-5.2-3.7
				c-1.5-1.1-4.3-2.7-5.4-4.2c-1.4,1.4-2.7,2.7-4.1,4.1c0.5,0.3,1.1,0.6,1.6,0.9c2.9,1.6,6.2-2.3,3.6-4.7
				c-11.9-11-12.8-26.6-8.3-41.4c2.3-7.6,5.8-14.8,10.1-21.5c2.1-3.4,4-5.7,7.2-7.9c3.6-2.5,7.2-5.1,10.6-7.9
				c3.4-2.6,6.6-5.3,9.9-8.1c3.7-3.2,7.5-5.6,11.6-8.3c2.9-2,5.6-4.3,8.1-6.8c3.2-3.3,6.6-5.9,10.1-8.9c6.1-5.2,10.8-11.6,16.3-17.4
				c5.4-5.7,7.5-12.9,11.5-19.4c4.9-8,10.5-15.4,14.8-23.9c4.1-8.3,7.2-16.9,9-26c-1.8,0.2-3.7,0.5-5.5,0.7
				c1.9,3.6,2.3,7.7,3.5,11.6c1.6,5.4,3.7,10.7,5.7,15.9c4.2,10.8,8.2,21.7,9,33.4C531.8,619.1,537.8,619.2,537.5,615.3z"/>
		</g>
	</g>
	<g>
		<path class="st8" d="M498.1,747.5c-2.2,1.9-4.3,3.8-6.5,5.8C493.9,751.5,496.1,749.5,498.1,747.5z"/>
		<g>
			<path d="M497,746.5c-2.2,1.9-4.3,3.8-6.5,5.8c-1.5,1.3,0.6,3.3,2.1,2.1c2.3-1.8,4.4-3.7,6.5-5.8
				C500.5,747.2,498.4,745.1,497,746.5c-2.1,2-4.2,4-6.5,5.8c0.7,0.7,1.4,1.4,2.1,2.1c2.2-1.9,4.3-3.8,6.5-5.8
				C500.6,747.3,498.5,745.2,497,746.5z"/>
		</g>
	</g>
	<g>
		<g>
			<path d="M378.4,188c-0.4-2.1-0.4-4.1-0.3-6.2c-0.9,0.3-1.9,0.5-2.8,0.8c0.5,1.1,1,2.3,1.4,3.4c0.6,1.8,3.5,1,2.9-0.8
				c-0.5-1.4-1.1-2.8-1.7-4.1c-0.6-1.4-2.8-0.6-2.8,0.8c0,2.4,0,4.7,0.4,7C375.9,190.6,378.8,189.8,378.4,188L378.4,188z"/>
		</g>
	</g>
	<g>
		<path class="st8" d="M203.2,150.2c-13,12.7-34.6,17-50.6,24.7c-8.5,4.1-16.6,6.5-17.2,16.9c-0.6,9.4-3.4,17.8-9.7,25
			c-11.1,12.9-32,22.4-49.1,18.6l-4-2c-10.4-15.9-12.6-40.9-4.9-58.1c7.5-16.8,21.9-31,39.7-36.4c-3.2,0.7-6.4,1.7-9.5,2.9
			c3.2-0.9,6.4-1.8,9.5-2.9c-11.5,3-15.8-10.9-16.7-19.6c-1.2-12.1-0.8-72.5,22.6-62.6c-2.2,0.8-4.4,0.1-5.8-1.7
			c10.8,2.1,71.9,15.4,59.3,34c6-8.9,16.7-14.1,27.4-12.2c8.8,1.5,13.7,10.3,16.9,18C218.4,112.3,217.3,136.4,203.2,150.2z"/>
	</g>
	<g>
		<g>
			<path d="M218.7,68.2c4.7,6.5,15.9,1.2,22.2,1.1c1.9,0,1.9-3,0-3c-3.1,0-6,0.6-9,1.2c-2.9,0.5-8.5,2.1-10.6-0.8
				C220.2,65.1,217.6,66.6,218.7,68.2L218.7,68.2z"/>
		</g>
	</g>
	<g>
		<g>
			<path d="M222.9,69.6c-1-4.5-3-10.8-8-12.3c-4.3-1.3-7.4,2.3-9,5.8c-0.8,1.7,1.8,3.3,2.6,1.5c1-2.3,3.1-5.6,6.1-4.2
				c3.5,1.6,4.7,6.7,5.5,10.1C220.4,72.3,223.3,71.5,222.9,69.6L222.9,69.6z"/>
		</g>
	</g>
	<g>
		<path class="st8" d="M247.4,69.7c6.8,2,13,5.9,17.4,11.4c-0.6-1-1.5-1.8-2.3-2.6c0,1.5,0,3,0,4.5c7.3-10.8,20.3-16.2,32.3-20.6
			c15.5-5.7,41.5-13.9,53.4,2.5c6.1,8.5,5,20,4.6,29.9c-0.2,3.7-1.2,17.9,6.3,15.6c-2.6-1.3-5-3-7.1-5.1
			c14.9,10.2,28.7,23.9,33.2,41.7c3.4,13.7,2.2,32.4-12.2,39.7c0.6-0.4,1.2-0.9,1.8-1.3c-0.6,0.4-1.2,0.9-1.8,1.3
			c2.3-2.5,5-4.5,8-6.2l-2.7,3.1c-0.5-1.6-2.5-0.2-2.8,2.1c0.5-2.2-18.6,15-33.4,15.4c-29.9,0.7-52.9-22.1-73.3-40.4
			c-10.6-9.5-23.6-18-30.6-30.5c-8-14.2-6.1-31.7-0.8-46.4"/>
	</g>
	<g>
		<g>
			<path d="M378.1,187.5c1,0,1-1.5,0-1.5C377.1,186,377.1,187.5,378.1,187.5L378.1,187.5z"/>
		</g>
	</g>
	<circle class="st9" cx="281.6" cy="170.2" r="25.7"/>
	<circle class="st9" cx="160.2" cy="172.2" r="25.7"/>
	<circle class="st7" cx="147.9" cy="168.1" r="9.3"/>
	<circle class="st7" cx="269.2" cy="166.1" r="9.3"/>
	
		<ellipse transform="matrix(3.659208e-02 -0.9993 0.9993 3.659208e-02 -26.001 333.962)" class="st7" cx="160.2" cy="180.5" rx="5.1" ry="5.1"/>
	
		<ellipse transform="matrix(3.659208e-02 -0.9993 0.9993 3.659208e-02 92.9665 453.2517)" class="st7" cx="281.6" cy="178.4" rx="5.1" ry="5.1"/>
	<g>
		<g>
			<path d="M110.5,554.2c0,0.3,0,0.5,0,0.8c0,1.2,0.5,2.4,1.3,3.2c0.8,0.8,2.1,1.4,3.2,1.3c1.2-0.1,2.4-0.4,3.2-1.3
				c0.8-0.9,1.3-2,1.3-3.2c0-0.3,0-0.5,0-0.8c0-1.2-0.5-2.4-1.3-3.2c-0.8-0.8-2.1-1.4-3.2-1.3c-1.2,0.1-2.4,0.4-3.2,1.3
				C111,551.9,110.5,553,110.5,554.2L110.5,554.2z"/>
		</g>
	</g>
	<g>
		<path class="st4" d="M247.6,117.7c-0.4,9.5,3.5,19,12.3,20.6c1.5,0.3,4.6-0.8,5.9-1.6c0.9-0.6,1.3-1.8,1.5-2.9
			c0.7-5.1-2.4-10-5.6-14c-2.4-2.9-5.5-6-9.2-5.7c-2.5,0.2-4.9,2-5.6,4.4s0.8,10,2.8,11.6L247.6,117.7z"/>
		<g>
			<path d="M246.1,117.7c-0.2,8.2,2.4,18,10.9,21.3c3,1.2,6.9,1,9.6-1c3.2-2.4,2.6-7.3,1.4-10.6c-2.2-6.5-10.5-18.3-18.7-14
				c-6.1,3.2-4.9,13.3-0.7,17.7c1.1,1.2,2.7-0.1,2.5-1.5c-0.7-4.1-1.4-8.2-2.1-12.3c-0.3-1.9-3.2-1.1-2.9,0.8
				c0.7,4.1,1.4,8.2,2.1,12.3c0.8-0.5,1.7-1,2.5-1.5c-2.7-2.8-4.4-12.2,0.9-13.3c6.4-1.3,12.7,8.9,14,14c1,4.2-2.1,7.8-6.5,6.9
				c-2.4-0.5-4.5-2.2-6-4c-3.4-4.1-4.2-9.6-4.1-14.8C249.2,115.8,246.2,115.8,246.1,117.7z"/>
		</g>
	</g>
	<g>
		<path d="M167.4,130.1c0,4.6-0.1,11.1,6.2,10.3c2.6-0.3,4.8-1.5,6.7-3.3c4.5-4.2,7.9-9.6,9.9-15.4c1-3,1.5-6.9-3.1-8.2
			c-0.5-0.1-1-0.2-1.5-0.1C176.1,115.1,167.4,121.8,167.4,130.1z"/>
		<g>
			<path d="M165.9,130.1c0,5.6,0.8,12.7,8.1,11.7c8.9-1.2,15.6-12.4,17.8-20.2c2.1-7.5-3.4-11-10.3-8.7
				C173.7,115.4,166.4,121.4,165.9,130.1c-0.1,1.9,2.9,1.9,3,0c0.3-5.6,4.2-9.8,8.9-12.4c2.2-1.2,10.4-5.3,11.5,0.1
				c0.4,1.8-1,4.6-1.7,6.1c-2,4.8-5.2,9.9-9.5,12.9c-2.9,2-7.3,3.5-8.8-0.9c-0.6-1.8-0.4-4-0.4-5.8
				C168.9,128.1,165.9,128.1,165.9,130.1z"/>
		</g>
	</g>
	<g>
		<path class="st5" d="M146.1,105.3c-3.5,9.5-14,14.5-23.9,12.5l-1.1-3.2c0.2,0.8,0.3,1.6,0.5,2.4c-3.6-10.7-4.3-22.4-1.9-33.5
			l1.5,0.6c10.2,4.2,19.2,11.1,25.8,19.9L146.1,105.3z"/>
		<g>
			<path class="st5" d="M144.6,104.9c-2.3,5.7-6.9,9.6-12.8,11.1c-1.9,0.5-5.8,1.4-7.6,0.8c-1.1-0.3-1.2-1.3-1.7-2.8
				c-0.6-1.8-3.3-1.1-2.9,0.8c0.2,0.8,0.3,1.6,0.5,2.4c1-0.3,1.9-0.5,2.9-0.8c-3.4-10.7-4.1-21.7-1.9-32.7c-0.6,0.3-1.2,0.7-1.8,1
				c10.6,4.3,19.6,11,26.7,20.1c-0.1-0.6-0.2-1.2-0.2-1.8c-0.3,0.5-0.6,0.9-0.9,1.4c-1.1,1.6,1.5,3.1,2.6,1.5
				c0.3-0.5,0.6-0.9,0.9-1.4c0.4-0.6,0.2-1.3-0.2-1.8c-7.4-9.5-16.9-16.3-28-20.9c-0.7-0.3-1.7,0.3-1.8,1
				c-2.3,11.5-1.7,23.1,1.9,34.3c0.6,1.8,3.3,1.1,2.9-0.8c-0.2-0.8-0.3-1.6-0.5-2.4c-1,0.3-1.9,0.5-2.9,0.8c0.4,1.1,0.7,2.2,1.1,3.2
				c0.2,0.5,0.5,1,1,1c10.9,1.9,21.5-3,25.8-13.5C148.2,103.9,145.3,103.1,144.6,104.9z"/>
		</g>
	</g>
	<g>
		<path class="st5" d="M336.6,111.1c1.2-10.5,0-21.2-1.8-31.6c0,0-1.9,0.6-2.4,1c-4.8,4.6-9.6,9.2-13.3,14.7
			c-3.7,5.5-6.3,12.1-5.9,18.8c-0.1-0.4-0.1-0.8-0.2-1.2l0.3-2.7l-0.9,4.6c2.5,3.6,7.6,3.8,12,4c4.5,0.2,9.3-0.6,12.2-4V111.1
			l0.5-8.3"/>
	</g>
	<g>
		<g>
			<path d="M244.9,73.1c1.9,0,1.9-3,0-3C242.9,70.1,242.9,73.1,244.9,73.1L244.9,73.1z"/>
		</g>
	</g>
	<g>
		<g>
			<path d="M241.9,69.6c2.4,0.4,4.7,1.3,6.6,2.8c1.5,1.2,3.6-0.9,2.1-2.1c-2.3-1.9-4.9-3.2-7.9-3.6C240.8,66.5,240,69.3,241.9,69.6
				L241.9,69.6z"/>
		</g>
	</g>
	<line class="st10" x1="3.5" y1="199.5" x2="120.5" y2="398.5"/>
	<rect x="169" y="21" class="st11" width="96" height="66"/>
	<path class="st11" d="M280.2,37H154.8c-1.6,0-2.8-1.3-2.8-2.8V23.8c0-1.6,1.3-2.8,2.8-2.8h125.3c1.6,0,2.8,1.3,2.8,2.8v10.3
		C283,35.7,281.7,37,280.2,37z"/>
	<polygon class="st12" points="235,17 235,41.4 226,41.4 233,53.7 221,72 253.2,72 242,53.7 247,41.4 243.3,41.4 241,41.4 241,17 	
		"/>
	<rect x="94.6" y="326.4" transform="matrix(0.866 -0.5 0.5 0.866 -169.0036 99.4631)" class="st13" width="12.9" height="77.4"/>
</g>
<g id="Layer_14">
	<g>
		<g>
			<path d="M76,237c1.9,0,1.9-3,0-3C74.1,234,74.1,237,76,237L76,237z"/>
		</g>
	</g>
	<g>
		<g>
			<path d="M254.6,76.6c3.1,2,5.7,4.4,8.1,7.3c2.1,2.6,6.8-0.9,4.7-3.6c-0.9-1.2-1.7-2.2-2.8-3.3c-1.8-1.9-5.1-0.4-5.1,2.1
				c0,1.5,0,3,0,4.6c0,3.1,4,3.9,5.6,1.5c9-13,24-17.7,38.6-21.6c7.6-2,15.3-4.3,23-5.6c6.7-1.2,14,1,18.3,6.4
				c6.5,8,5.5,19.9,5.1,29.6c-0.3,7.1-2.8,24.4,9.7,20.6c2.4-0.7,3-4.2,0.7-5.5c-2.4-1.3-4.5-2.8-6.5-4.8c-1.2,1.6-2.4,3.1-3.6,4.7
				c12.7,9,24.5,21,30.3,35.7c5.4,13.8,5.3,34.2-9.3,42.5c1,1.7,2,3.5,3,5.2c0.6-0.5,1.2-0.9,1.8-1.3c-1-1.7-2-3.5-3-5.2
				c-0.6,0.5-1.2,0.9-1.8,1.3c1.2,1.6,2.4,3.1,3.6,4.7c7-7.5,20.4-14.3,29.1-5.7c0.2-1.6,0.4-3.1,0.6-4.7c-9.6,4.3-19,10-22.1,20.6
				c-0.7,2.5,2.2,4.7,4.4,3.4c4.7-2.7,10-5.2,15.1-2.2c-0.2-1.6-0.4-3.1-0.6-4.7c-2.9,3-5.4,6.1-7.8,9.5c-1.4,2,0.5,4.4,2.6,4.5
				c11.6,0.8,32.5,21.6,13.4,27.4c-3.7,1.1-2.2,6.8,1.6,5.8c1-0.2,1.9-0.5,2.8-0.9c2.9-1,2.8-4.8,0-5.8c-3.4-1.3-6.7-2.7-9.9-4.4
				c-1.8-0.9-4.8,0.2-4.5,2.6c0.4,3.6-0.2,5,3,7.1c4.1,2.7,8.6,5.1,12.9,7.5c8.6,4.8,17.2,9.5,25.2,15.3
				c17.1,12.4,30,29.2,41.5,46.7c11.4,17.4,20.6,36.1,27.2,55.9c3.2,9.5,5.8,19.2,8,29.1c1,4.6,0.9,8.9,1.4,13.6
				c0.6,6.3,2.1,12.6,2.8,18.9c2.9,25.6,2.1,51.5-1.9,76.9c-0.6,3.8,5.2,5.4,5.8,1.6c3.5-22.2,4.8-44.6,3.2-67
				c-0.4-5.4-0.9-10.9-1.6-16.3c-0.7-5.7-2.1-11.5-2.3-17.2c-0.2-9.8-3.1-19.5-5.7-28.8c-5.4-19.1-13.1-37.6-22.7-55
				c-9.9-17.8-22.1-35.5-36.7-49.9c-7.7-7.6-16.3-14.2-25.5-19.8c-9.8-6-20.3-10.9-29.9-17.2c0.5,0.9,1,1.7,1.5,2.6
				c0-1.2,0-2.4-0.1-3.6c-1.5,0.9-3,1.7-4.5,2.6c3.7,1.9,7.5,3.5,11.3,5c0-1.9,0-3.9,0-5.8c-0.9,0.4-1.8,0.6-2.8,0.9
				c0.5,1.9,1.1,3.9,1.6,5.8c10.8-3.3,15.3-13,9.5-23c-4.8-8.4-14.8-15.5-24.6-16.2c0.9,1.5,1.7,3,2.6,4.5c2.1-2.9,4.3-5.7,6.8-8.2
				c1.3-1.4,1.1-3.7-0.6-4.7c-7.1-4.1-14.6-1.6-21.2,2.2c1.5,1.1,2.9,2.3,4.4,3.4c2.7-9,11.4-13.5,19.4-17c1.8-0.8,1.9-3.5,0.6-4.7
				c-11.1-11-28.2-4.4-37.6,5.7c-2.2,2.4,0.8,6.8,3.6,4.7c0.6-0.4,1.2-0.9,1.8-1.3c3-2.3,0.1-7.5-3-5.2c-0.6,0.4-1.2,0.9-1.8,1.3
				c-3,2.3-0.4,7.1,3,5.2c15.9-9,18.3-30.5,13-46.4c-5.7-17.6-19.3-31.6-34-42.1c-2.8-2-6,2.4-3.6,4.7c2.3,2.3,4.8,4.1,7.7,5.7
				c0.2-1.8,0.5-3.7,0.7-5.5c-3.3,1-2.4-7.3-2.4-8.8c0.1-2.8,0.2-5.7,0.3-8.5c0.2-5.1,0.2-10.2-0.5-15.3
				c-1.3-9.9-6.6-20.1-16.8-23.2c-7.3-2.2-13.7-0.8-20.9,0.9c-7.9,1.9-15.9,3.7-23.7,6.2c-13.7,4.2-26,10-34.4,22.1
				c1.9,0.5,3.7,1,5.6,1.5c0-1.5,0-3,0-4.6c-1.7,0.7-3.4,1.4-5.1,2.1c0.6,0.7,1.2,1.4,1.8,2.1c1.6-1.2,3.1-2.4,4.7-3.6
				c-2.7-3.3-5.8-5.9-9.3-8.2C254.4,69.3,251.4,74.5,254.6,76.6L254.6,76.6z"/>
		</g>
	</g>
	<g>
		<g>
			<path d="M387.3,168.7c8.9-28.4-12.3-53.6-34.3-68.5c-2.8-1.9-6.1,2.4-3.6,4.7c2.4,2.2,4.8,4,7.7,5.4c0.2-1.8,0.5-3.7,0.7-5.5
				c-3.5,1-2.6-8.9-2.6-11.1c0.3-6.7,0.8-13.5-0.3-20.1c-2.2-12.7-12.1-21.4-24.8-22.8c-12.4-1.3-24.9,3.2-36.4,7.3
				c-13,4.7-25.8,10-34.3,21.5c1.9,0.5,3.7,1,5.6,1.5c0-1.4,0-2.9,0-4.3c-1.7,0.7-3.4,1.4-5.1,2.1c0.8,0.8,1.6,1.6,2.3,2.5
				c1.4-1.4,2.8-2.8,4.2-4.2c-2.6-2.7-5.3-5.2-8.4-7.4c-3.1-2.3-6.1,2.9-3,5.2c2.6,1.9,4.9,4.2,7.2,6.5c2.8,2.8,6.7-1.3,4.2-4.2
				c-0.7-0.9-1.5-1.8-2.3-2.5c-1.8-1.9-5.1-0.5-5.1,2.1c0,1.4,0,2.9,0,4.3c0,3.2,3.9,3.8,5.6,1.5c8.6-11.6,23.4-16.3,36.5-20.8
				c10.9-3.8,24.6-8.2,35.9-3.2c14.3,6.4,12.7,22.6,12.2,35.7c-0.2,6.6,0.3,19.1,10.2,16.3c2.4-0.7,3.1-4.3,0.7-5.5
				c-2.4-1.3-4.5-2.7-6.5-4.5c-1.2,1.6-2.4,3.1-3.6,4.7c19.8,13.4,39.6,36,31.6,61.7C380.3,170.7,386.1,172.3,387.3,168.7
				L387.3,168.7z"/>
		</g>
	</g>
</g>
<g id="Layer_3_copy">
	<g>
		<g>
			<path d="M93.5,336.7c-8.9,8.7-18.5,27.6-10,39.5c8.7,12.3,30.6,0.6,39.4-5.7c3.1-2.2,0.1-7.4-3-5.2c-4.7,3.4-9.7,6.1-15.2,7.9
				c-5,1.6-13.3,4.4-16.8-1.1c-2.7-4.3-1.2-11.2,0.2-15.7c1.8-5.9,5.2-11.1,9.6-15.4C100.5,338.2,96.2,334,93.5,336.7L93.5,336.7z"
				/>
		</g>
	</g>
	<g>
		<g>
			<path d="M240.5,358.8c-3.9,3.4-5,9.2-6.3,14c-1.3,4.9-2.7,9.8-3.4,14.9c-1.3,8.7,0.6,17.1,8.3,22.2c8.1,5.4,18.1,5,26.1-0.2
				c9.3-5.9,14.7-15.4,18.6-25.4c1.4-3.6-4.4-5.2-5.8-1.6c-5.2,13.4-19.9,33.5-36.2,21.7c-6.1-4.4-6-11.6-4.7-18.3
				c0.7-3.7,1.6-7.3,2.6-10.9c1.1-3.9,1.8-9.4,5-12.2C247.7,360.5,243.4,356.3,240.5,358.8L240.5,358.8z"/>
		</g>
	</g>
	<g>
		<g>
			<path d="M110.5,554.2c0,0.3,0,0.5,0,0.8c0,1.2,0.5,2.4,1.3,3.2c0.8,0.8,2.1,1.4,3.2,1.3c1.2-0.1,2.4-0.4,3.2-1.3
				c0.8-0.9,1.3-2,1.3-3.2c0-0.3,0-0.5,0-0.8c0-1.2-0.5-2.4-1.3-3.2c-0.8-0.8-2.1-1.4-3.2-1.3c-1.2,0.1-2.4,0.4-3.2,1.3
				C111,551.9,110.5,553,110.5,554.2L110.5,554.2z"/>
		</g>
	</g>
	<g>
		<g>
			<path d="M83.7,228.1c10.9-2.4,21.7-4.8,32.6-7.1c3.8-0.8,2.2-6.6-1.6-5.8c-10.9,2.4-21.7,4.8-32.6,7.1
				C78.4,223.1,80,228.9,83.7,228.1L83.7,228.1z"/>
		</g>
	</g>
	<g>
		<g>
			<path d="M88.7,251.3c9.3-5.4,19-10.1,29.1-14.1c3.6-1.4,2-7.2-1.6-5.8c-10.6,4.1-20.7,9-30.5,14.7
				C82.3,248.1,85.4,253.3,88.7,251.3L88.7,251.3z"/>
		</g>
	</g>
	<g>
		<g>
			<path d="M318.5,214.6c12.7-1.3,25.2-0.4,37.6,2.9c3.7,1,5.3-4.8,1.6-5.8c-12.8-3.4-26-4.5-39.2-3.2
				C314.7,209,314.6,215,318.5,214.6L318.5,214.6z"/>
		</g>
	</g>
	<g>
		<g>
			<path d="M318.3,224.4c11.8,2.3,23.2,5.8,34.2,10.6c3.5,1.5,6.6-3.6,3-5.2c-11.5-5-23.3-8.8-35.6-11.2
				C316.1,217.9,314.5,223.7,318.3,224.4L318.3,224.4z"/>
		</g>
	</g>
	<g>
		<path d="M247.6,117.7c-0.4,9.5,3.5,19,12.3,20.6c1.5,0.3,4.6-0.8,5.9-1.6c0.9-0.6,1.3-1.8,1.5-2.9c0.7-5.1-2.4-10-5.6-14
			c-2.4-2.9-5.5-6-9.2-5.7c-2.5,0.2-4.9,2-5.6,4.4s0.8,10,2.8,11.6"/>
		<g>
			<path d="M246.1,117.7c-0.2,8.2,2.4,18,10.9,21.3c3,1.2,6.9,1,9.6-1c3.2-2.4,2.6-7.3,1.4-10.6c-2.2-6.5-10.5-18.3-18.7-14
				c-6.1,3.2-4.9,13.3-0.7,17.7c1.3,1.4,3.5-0.7,2.1-2.1c-2.7-2.8-4.4-12.2,0.9-13.3c6.4-1.3,12.7,8.9,14,14c1,4.2-2.1,7.8-6.5,6.9
				c-2.4-0.5-4.5-2.2-6-4c-3.4-4.1-4.2-9.6-4.1-14.8C249.2,115.8,246.2,115.8,246.1,117.7L246.1,117.7z"/>
		</g>
	</g>
	<g>
		<g>
			<path d="M166,129.7c-2.4,5.7,0.9,12.8,7.6,12.2c8.8-0.8,15.2-11.6,17.8-19.1c2.5-7.2-1.4-12.5-9.2-10.2
				c-8.1,2.4-15.8,8.5-16.3,17.5c-0.1,1.9,2.9,1.9,3,0c0.3-5.6,4.2-9.8,8.9-12.4c2.2-1.2,10.4-5.3,11.5,0.1c0.4,1.8-1,4.6-1.7,6.1
				c-2,4.8-5.2,9.9-9.5,12.9c-2.7,1.9-7.1,3.5-9.3-0.1c-1.1-1.9-0.8-4.3,0-6.3C169.6,128.7,166.7,127.9,166,129.7L166,129.7z"/>
		</g>
	</g>
	<g>
		<g>
			<path d="M130.8,194.8c7,14.8,23.7,18.7,38.7,16.1c3.8-0.7,2.2-6.5-1.6-5.8c-12.5,2.2-26.1-1-31.9-13.3
				C134.3,188.3,129.2,191.3,130.8,194.8L130.8,194.8z"/>
		</g>
	</g>
	<g>
		<g>
			<path d="M378.1,187.5c1,0,1-1.5,0-1.5C377.1,186,377.1,187.5,378.1,187.5L378.1,187.5z"/>
		</g>
	</g>
	<circle class="st14" cx="281.6" cy="170.2" r="25.7"/>
	<circle class="st14" cx="160.2" cy="172.2" r="25.7"/>
	<circle class="st3" cx="147.9" cy="168.1" r="9.3"/>
	<circle class="st3" cx="269.2" cy="166.1" r="9.3"/>
	
		<ellipse transform="matrix(3.659208e-02 -0.9993 0.9993 3.659208e-02 -26.001 333.962)" class="st3" cx="160.2" cy="180.5" rx="5.1" ry="5.1"/>
	
		<ellipse transform="matrix(3.659208e-02 -0.9993 0.9993 3.659208e-02 92.9665 453.2517)" class="st3" cx="281.6" cy="178.4" rx="5.1" ry="5.1"/>
	<g>
		<g>
			<path d="M71.6,237.1c1,1.1,2.1,1.9,3.3,2.8c1,0.7,2.8,0.4,3.6-0.5c0.5-0.6,0.9-1.2,1.1-2c0.8-3.4-3.5-5-5.5-2.3
				c-5.5,7.7-17.6,20-11.8,30.5c4.3,7.7,15,1.9,19.5-2.5c2.5-2.5-0.7-6.1-3.6-4.7c-6.8,3.2-14,10-13.3,18.2
				c0.7,7.6,8.3,10.4,14.9,8.6c-1.1-1.5-2.3-2.9-3.4-4.4c-1.4,2.5-2.9,5.1-4.3,7.6c1.8,0.8,3.7,1.5,5.5,2.3c0.8-2.5,1.7-4.9,2.5-7.4
				c1.2-3.7-4.5-5.2-5.8-1.6c-14.4,39.7-28.6,79.5-41.2,119.8c-6.4,20.5-12.4,41.2-17.7,62c-4.6,18-6.2,36.5-3.7,55
				c2.8,21.1,10.9,41,22.9,58.5c1.7-1,3.5-2,5.2-3c-0.5-0.7-1-1.4-1.5-2.1c-1.6,1.2-3.1,2.4-4.7,3.6c1.5,1.2,2.9,2.4,4.4,3.6
				c0.4-1.7,0.9-3.3,1.3-5c-14.6,3.4-42.6,20.4-25.3,37.3c11.7,11.5,40.2,6.4,45.3-9.8c-1.8,0.2-3.7,0.5-5.5,0.7
				c13.3,22.5,34.5,39.3,59.4,47.3c-0.2-1.8-0.5-3.7-0.7-5.5c-13.6,6.3-18.6,28.1-12.4,41c3.1,6.4,9.4,9.3,16.3,7.7
				c13.2-3.1,21.8-15.9,28.8-26.5c-1.6,0.2-3.1,0.4-4.7,0.6c10.8,10,23.3,20.1,37.2,25.6c14.4,5.6,30.8,8.4,46,10.6
				c31.4,4.5,63.2,4.2,94.6-0.2c31.8-4.4,63.6-12.8,93.1-25.4c13.6-5.8,25.7-14.4,36.8-24.1c11.9-10.3,23.4-21.7,33.3-33.9
				c9.9-12.3,20.2-24.6,27.2-38.9c3.4-6.9,6-14.2,7.5-21.8c0.5-2.5,0.7-3.6,2.3-5.5c0.8-1,1.7-1.8,2.2-3.1c1.1-3.1,0.3-6.8,1.3-10.1
				c1.1-3.7-4.7-5.3-5.8-1.6c-0.7,2.3-0.8,4.6-1.1,7c-0.2,2.2-0.7,3.1-2,4.9c-0.6,0.9-1.3,1.6-1.8,2.6c-1.1,2.7-1.2,6.1-1.9,9
				c-0.9,3.6-2.1,7.1-3.5,10.6c-5.3,12.9-13.8,24.2-22.4,35c-18,22.6-39.2,45.4-64.7,59.6c-13,7.2-27.7,11.9-41.9,16.4
				c-14.8,4.6-29.8,8.3-45.1,11.1c-30.4,5.5-61.5,7.1-92.2,4.2c-17.1-1.6-34-4.7-50.5-9.3c-17.1-4.8-31.4-15-44.2-26.9
				c-1.5-1.4-3.6-1-4.7,0.6c-6,9-13,20-24,23.4c-5.4,1.7-9.4-0.6-11.2-5.8c-3.6-10.3,0.2-26.7,10.7-31.5c2.5-1.2,1.5-4.8-0.7-5.5
				c-23.4-7.5-43.3-23.4-55.8-44.6c-1.3-2.3-4.7-1.7-5.5,0.7c-3.8,11.9-26.8,15.3-35.3,7.2c-13.3-12.6,13-25.1,22.6-27.3
				c2.1-0.5,3.1-3.6,1.3-5c-1.5-1.2-2.9-2.4-4.4-3.6c-2.4-2-6.8,0.6-4.7,3.6c0.5,0.7,1,1.4,1.5,2.1c2.2,3.1,7.4,0.2,5.2-3
				c-22-31.9-28.3-70.6-18.8-108c10.1-39.7,22.6-78.8,36-117.6c7.5-21.8,15.3-43.5,23.2-65.1c-1.9-0.5-3.9-1.1-5.8-1.6
				c-0.8,2.5-1.7,4.9-2.5,7.4c-1.1,3.2,3.8,5.2,5.5,2.3c1.4-2.5,2.9-5.1,4.3-7.6c1.3-2.3-0.8-5.1-3.4-4.4c-5.1,1.4-8.9-1.8-6.5-7.1
				c1.8-4,5.7-6.8,9.6-8.6c-1.2-1.6-2.4-3.1-3.6-4.7c-1.8,1.8-4.3,3.6-6.8,4.2c-3.9,0.9-4-2.4-3.3-5.7c1.5-7.4,7.7-13.4,11.9-19.3
				c-1.8-0.8-3.7-1.5-5.5-2.3c0.1-0.2,0.3-0.4,0.4-0.7c1.2-0.2,2.4-0.3,3.6-0.5c-0.8-0.5-1.5-1.1-2.1-1.8
				C73.2,230,68.9,234.3,71.6,237.1L71.6,237.1z"/>
		</g>
	</g>
	<g>
		<g>
			<path d="M526.5,678.4c-0.4,1.7-0.8,3.4-1.2,5.2c-0.9,3.7,4.8,5.3,5.8,1.6c7.3-27.6,10.6-56.8,4.3-84.9c-1.6-7.1-3.8-14-6.6-20.7
				c-3-7.2-9.1-14.7-9.7-22.5c-0.6-7.6,2.1-16,3.3-23.5c1.1-7.1,2.1-14.3,2.9-21.4c6.5-59,0.3-119.2-25.7-173.1
				c-7.4-15.4-16.2-30.6-26.6-44.3c-9.9-13-21.5-24.3-33.5-35.3c-2.8-2.6-7.1,1.6-4.2,4.2c10.3,9.5,20.5,19.3,29.4,30.2
				c9.7,11.9,17.8,25.3,25,38.9c13.7,25.8,23,53.7,27.8,82.5c4.9,28.9,5.3,58.4,2.7,87.5c-1.3,15-3.5,30-6.3,44.8
				c-1.3,6.8-1.4,13.5,2,19.7c3.5,6.6,7,13,9.5,20.1c11,31.1,8.1,64.8-0.2,96.1c1.9,0.5,3.9,1.1,5.8,1.6c0.4-1.7,0.8-3.4,1.2-5.2
				C533.2,676.3,527.4,674.7,526.5,678.4L526.5,678.4z"/>
		</g>
	</g>
	<line class="st0" x1="79" y1="282.3" x2="77.2" y2="282.5"/>
	<g>
		<g>
			<path d="M517.7,543.5c-1.3,6-1.3,11.9,0.1,17.9c0.4,1.9,3.3,1.1,2.9-0.8c-1.3-5.4-1.3-10.8-0.1-16.3
				C521,542.4,518.1,541.6,517.7,543.5L517.7,543.5z"/>
		</g>
	</g>
	<g>
		<g>
			<path d="M171,85.3c0.9-10.6-11-16.8-19.2-20.4c-14.1-6.2-29.1-9.3-44.1-12.6c-2.8-0.6-5.1,2.8-2.9,5c2.5,2.5,5.3,3.2,8.7,2.4
				c3.2-0.7,2.5-4.8,0-5.8c-15-6-21.8,11.2-24.1,22.7c-3.1,15.4-3.7,32.3-1.3,47.8c1.5,9.9,8.3,19.7,19.5,17.5
				c-0.5-1.9-1.1-3.9-1.6-5.8c-3.1,1-6.3,2-9.5,2.9c0.5,1.9,1.1,3.9,1.6,5.8c3.1-1.2,6.3-2.1,9.5-2.9c-0.5-1.9-1.1-3.9-1.6-5.8
				c-21.1,6.9-39.2,24.5-44.3,46.5c-2.6,11.3-1.9,22.7,0.3,33.9c1.6,8.4,3.9,17.8,12.5,21.5c3.5,1.5,6.6-3.7,3-5.2
				c-7.5-3.2-8.6-11.9-10-19.1c-2-10.3-2.4-21,0.3-31.2c5-19.2,21.1-34.6,39.8-40.7c3.7-1.2,2.2-6.7-1.6-5.8
				c-3.2,0.7-6.4,1.7-9.5,2.9c-3.5,1.3-2.2,6.8,1.6,5.8c3.2-0.9,6.4-1.9,9.5-2.9c3.7-1.2,2.2-6.5-1.6-5.8
				c-17,3.3-13.3-36.2-12.6-44.8c0.7-9.1,3.1-37.9,18.5-31.7c0-1.9,0-3.9,0-5.8c-1-0.3-1.9-0.6-2.9-0.9c-1,1.7-1.9,3.3-2.9,5
				c13.4,3,26.9,5.7,39.7,10.8c6.6,2.7,19.9,7.6,19.2,16.5C164.7,89.2,170.7,89.2,171,85.3L171,85.3z"/>
		</g>
	</g>
</g>
</svg>
