<?xml version="1.0" encoding="utf-8"?>
<!-- Generator: Adobe Illustrator 21.0.0, SVG Export Plug-In . SVG Version: 6.00 Build 0)  -->
<svg version="1.1" xmlns="http://www.w3.org/2000/svg" xmlns:xlink="http://www.w3.org/1999/xlink" x="0px" y="0px"
	 viewBox="0 0 86 100" style="enable-background:new 0 0 86 100;" xml:space="preserve">
<g id="Layer_3">
	<g>
		<path d="M79.4,84.7c0.7,0,1.1,0.4,1.1,1.3c0,0.9-0.3,1.7-0.9,2.6c-0.6,0.9-1.4,1.7-2.5,2.5c-2.7,1.9-5.6,2.9-8.7,2.9
			c-3.1,0-5.6-0.5-7.5-1.4c-1.9-0.9-3.7-2.1-5.3-3.7c-1.6-1.5-3.1-3.3-4.5-5.3c-1.3-2-2.6-4-3.8-6.2l-3.5-6.4
			c-4.1-7.8-7.5-12.3-10.3-13.6C25.5,79,16.9,91,7.7,93.4c-0.6,0.2-1.3,0.2-2,0.2s-1.4-0.1-2-0.4c-0.6-0.2-1.1-0.6-1.6-1
			c-0.9-0.8-1.4-1.6-1.4-2.4s0.3-1.5,1-2c6.9-5,13.8-18,20.7-38.9c4-12.2,6.9-23.1,8.4-32.9c0.4-2.7,0.7-4.8,0.7-6.3
			c-1.6,0.1-3.1,0.5-4.5,1.2c-1.4,0.8-2.6,1.4-3.6,2.1c-1,0.6-1.8,1-2.4,1c-0.6,0-1.3-0.2-2.1-0.6c-0.7-0.4-1.4-0.9-2-1.5
			c-1.4-1.4-2.1-2.6-2.1-3.7s0.3-2,1-2.7c0.7-0.7,1.5-1.3,2.5-1.8c1-0.5,2.1-1,3.3-1.3c1.2-0.4,2.4-0.7,3.5-0.9
			C27.3,1.2,29.2,1,30.7,1s3.2,0.2,5,0.7C37.5,2.2,39,3,40.2,3.9c2.8,2,4.2,4.5,4.2,7.5c0,6.3-1.9,16.3-5.7,30
			c-1.2,4.4-2.6,8.9-4.2,13.3c9.6-7.4,15.4-12,17.4-13.6c2-1.7,4.3-3.7,6.7-6.1c2.5-2.4,4.6-4.8,6.5-7.4c4-5.5,6.1-11.1,6.1-16.7
			c0-2.1-0.5-3.9-1.6-5.4c-0.3-0.5-0.5-1-0.5-1.5c0-0.5,0.2-0.9,0.6-1.3c0.4-0.4,0.8-0.7,1.4-1c1-0.4,2.3-0.7,4-0.7s3.1,0.3,4.3,1
			c1.3,0.7,2.4,1.6,3.2,2.6c1.7,2.2,2.6,4.8,2.6,7.8s-0.6,6-1.8,8.8c-1.2,2.8-2.9,5.5-4.9,8c-2,2.5-4.4,4.9-7,7.1
			c-2.7,2.3-5.4,4.4-8.3,6.5l-8.7,6.2c-2.9,2-5.5,4-8,5.9c2.9,2.3,6.3,6.2,10.1,11.8l4.6,6.8c3.3,5,5.9,8.3,8,9.9
			c2,1.6,3.7,2.3,5,2.3s2.4-0.2,3.2-0.6S78.9,84.7,79.4,84.7z"/>
	</g>
</g>
</svg>
